<svg width="432" height="240" viewBox="0 0 432 240" fill="none" xmlns="http://www.w3.org/2000/svg">
<g clip-path="url(#clip0_773_17997)">
<path d="M393.995 239.999H76.8507L76.7435 239.888C67.5838 230.419 60.1987 221.268 54.1862 211.913C47.2471 201.192 41.8261 189.562 38.0777 177.354C31.7415 156.776 28.5544 132.585 29.1198 109.229C29.7562 82.6352 35.2196 59.0805 44.921 41.109C55.357 21.7754 70.3837 9.15427 89.5848 3.59479C99.7226 0.659551 110.406 0.50315 122.247 3.11285C131.583 5.1697 141.737 9.02515 153.291 14.8956C166.076 21.3935 178.549 29.0862 190.612 36.5243C201.073 42.9768 211.884 49.6474 222.862 55.507C236.103 62.5795 248.17 67.648 259.753 70.9997C273.354 74.9352 286.419 76.4464 298.586 75.4898C309.115 74.6624 320.262 72.1673 331.041 69.754C347.621 66.0404 364.763 62.2013 380.147 64.3127C388.45 65.4529 395.584 68.1863 401.964 72.6674C409.107 77.6922 415.111 84.7666 420.316 94.2924C426.261 105.171 429.985 117.529 431.383 131.028C432.694 143.666 431.945 156.951 429.156 170.512C426.444 183.627 422.006 196.323 415.956 208.27C409.893 220.273 402.54 230.905 394.102 239.878L393.995 239.999ZM77.158 239.272H393.681C402.024 230.373 409.3 219.836 415.316 207.95C421.335 196.055 425.75 183.413 428.445 170.356C431.219 156.867 431.965 143.657 430.661 131.094C429.272 117.7 425.57 105.435 419.68 94.6416C414.529 85.214 408.589 78.2214 401.548 73.2621C395.273 68.8483 388.243 66.1567 380.057 65.0328C364.805 62.9396 347.726 66.7642 331.208 70.4632C320.405 72.882 309.233 75.3844 298.653 76.2155C286.397 77.1775 273.245 75.659 259.564 71.6981C247.928 68.3318 235.817 63.2452 222.531 56.1489C211.54 50.2785 200.713 43.6005 190.243 37.1445C178.185 29.7118 165.72 22.0282 152.962 15.5449C141.459 9.70167 131.365 5.85895 122.091 3.82211C110.369 1.23969 99.8044 1.39427 89.7866 4.29313C70.7801 9.79624 55.9006 22.2974 45.561 41.4546C24.3091 80.8256 27.1454 139.385 38.7722 177.132C42.5014 189.279 47.8949 200.851 54.7989 211.518C60.7677 220.797 68.082 229.875 77.158 239.272Z" fill="#D3DFFF"/>
<path d="M399.886 185.147C423.098 115.312 421.59 6.92313 326.812 0.270655C295.812 -1.91168 264.269 9.41462 235.508 19.7443C211.691 28.2918 181.158 40.8638 173.731 67.8338C170.822 78.4217 169.975 97.7336 154.753 96.626C114.313 93.6817 67.3221 67.2209 40.394 112.879C17.2603 152.117 33.2015 208.254 65.0331 239.636H363.54C379.141 224.678 392.379 207.725 399.886 185.147Z" fill="#EAF0FF"/>
<path d="M255.429 173.391H177.613V239.588H255.429V173.391Z" fill="#B6D6FB"/>
<path opacity="0.6" d="M255.429 216.966L177.613 209.992V173.391H255.429V216.966Z" fill="#559FF6"/>
<path d="M335.877 19.7148H97.1637C93.7477 19.7148 90.9785 22.4848 90.9785 25.9018V190.804C90.9785 194.221 93.7477 196.991 97.1637 196.991H335.877C339.293 196.991 342.062 194.221 342.062 190.804V25.9018C342.062 22.4848 339.293 19.7148 335.877 19.7148Z" fill="#B6D6FB"/>
<path d="M330.183 28.0645H102.86V184.588H330.183V28.0645Z" fill="white"/>
<path opacity="0.3" d="M202.136 71.3529V184.587H102.867V66.9883H197.773C198.93 66.9883 200.04 67.4481 200.858 68.2667C201.676 69.0852 202.136 70.1954 202.136 71.3529Z" fill="#94F0D4"/>
<path opacity="0.3" d="M330.18 66.9883V184.587H225.928V71.3529C225.928 70.1954 226.387 69.0852 227.206 68.2667C228.024 67.4481 229.134 66.9883 230.291 66.9883H330.18Z" fill="#94F0D4"/>
<path d="M67.875 166.909C67.875 168.452 68.488 169.933 69.579 171.024C70.6701 172.115 72.1499 172.728 73.693 172.728H186.623C188.166 172.728 189.646 172.115 190.737 171.024C191.828 169.933 192.441 168.452 192.441 166.909V51.4727H67.875V166.909Z" fill="white"/>
<path d="M186.622 173.091H73.6913C72.0519 173.091 70.4796 172.439 69.3203 171.28C68.161 170.12 67.5098 168.547 67.5098 166.907V51.1094H192.803V166.907C192.803 168.547 192.152 170.12 190.993 171.28C189.833 172.439 188.261 173.091 186.622 173.091ZM68.237 51.8368V166.907C68.237 168.354 68.8117 169.742 69.8346 170.765C70.8574 171.788 72.2448 172.363 73.6913 172.363H186.622C188.068 172.363 189.456 171.788 190.478 170.765C191.501 169.742 192.076 168.354 192.076 166.907V51.8368H68.237Z" fill="#B6D6FB"/>
<path d="M186.623 38.7246H73.693C72.9289 38.7246 72.1724 38.8751 71.4665 39.1676C70.7607 39.4601 70.1193 39.8887 69.579 40.4291C69.0388 40.9695 68.6102 41.6111 68.3179 42.3171C68.0255 43.0232 67.875 43.7799 67.875 44.5442V51.4731H192.441V44.5442C192.441 43.0007 191.828 41.5205 190.737 40.4291C189.646 39.3377 188.166 38.7246 186.623 38.7246Z" fill="#B6D6FB"/>
<path d="M192.803 51.8372H67.5098V44.5446C67.5098 42.9047 68.161 41.332 69.3203 40.1724C70.4796 39.0128 72.0519 38.3613 73.6913 38.3613H186.622C188.261 38.3613 189.833 39.0128 190.993 40.1724C192.152 41.332 192.803 42.9047 192.803 44.5446V51.8372ZM68.237 51.1098H192.076V44.5446C192.076 43.0976 191.501 41.7099 190.478 40.6867C189.456 39.6636 188.068 39.0888 186.622 39.0888H73.6913C72.2448 39.0888 70.8574 39.6636 69.8346 40.6867C68.8117 41.7099 68.237 43.0976 68.237 44.5446V51.1098Z" fill="#B6D6FB"/>
<path d="M77.2104 47.5921C78.6162 47.5921 79.7558 46.4522 79.7558 45.0461C79.7558 43.6399 78.6162 42.5 77.2104 42.5C75.8046 42.5 74.665 43.6399 74.665 45.0461C74.665 46.4522 75.8046 47.5921 77.2104 47.5921Z" fill="white"/>
<path d="M181.426 96.2098H78.8848V61.6562H181.426V96.2098ZM79.612 95.4824H180.699V62.3837H79.612V95.4824Z" fill="#DADADA"/>
<path d="M181.061 87.0273H79.252V87.7546H181.061V87.0273Z" fill="#DADADA"/>
<path d="M181.061 78.5703H79.252V79.2976H181.061V78.5703Z" fill="#DADADA"/>
<path d="M181.061 70.1152H79.252V70.8425H181.061V70.1152Z" fill="#DADADA"/>
<path d="M171.245 62.0215H170.518V95.8476H171.245V62.0215Z" fill="#DADADA"/>
<path d="M161.066 62.0215H160.339V95.8476H161.066V62.0215Z" fill="#DADADA"/>
<path d="M150.884 62.0215H150.157V95.8476H150.884V62.0215Z" fill="#DADADA"/>
<path d="M140.703 62.0215H139.976V95.8476H140.703V62.0215Z" fill="#DADADA"/>
<path d="M130.521 62.0215H129.794V95.8476H130.521V62.0215Z" fill="#DADADA"/>
<path d="M120.339 62.0215H119.611V95.8476H120.339V62.0215Z" fill="#DADADA"/>
<path d="M110.16 62.0215H109.433V95.8476H110.16V62.0215Z" fill="#DADADA"/>
<path d="M99.9782 62.0215H99.251V95.8476H99.9782V62.0215Z" fill="#DADADA"/>
<path d="M89.7966 62.0215H89.0693V95.8476H89.7966V62.0215Z" fill="#DADADA"/>
<path d="M180.61 96.199C179.91 94.7768 179.114 93.1655 177.859 92.0689C176.39 90.7868 174.563 90.5485 173.207 91.4633C172.885 91.701 172.584 91.965 172.307 92.2526C171.443 93.0873 170.37 94.1294 168.994 93.5729C167.996 93.1692 167.42 92.4035 166.863 91.6652C166.544 91.1964 166.168 90.7689 165.743 90.3921C164.712 89.5519 163.433 89.6192 161.716 90.5995L161.598 90.6667C160.565 91.2578 159.28 91.9962 158.08 90.5958C157.509 89.9302 157.364 89.1027 157.222 88.3026C157.102 87.626 156.989 86.9877 156.633 86.4839C155.586 85.0036 154.137 84.4835 152.658 85.0691C151.909 85.3637 151.04 86.3748 150.113 87.4442C148.775 89.0009 147.291 90.7177 145.693 90.7177C145.278 90.7146 144.872 90.6016 144.515 90.3903C143.242 89.6629 143.342 88.097 143.424 86.7113C143.502 85.4255 143.575 84.2107 142.726 83.6778C141.635 82.9959 140.233 84.2234 139.552 85.1982C138.53 86.6749 136.824 88.0898 135.339 87.9261C134.706 87.8534 133.83 87.4605 133.245 85.9893C132.777 84.8181 132.85 83.5523 132.921 82.3266C132.97 81.4864 133.017 80.6899 132.896 79.9479C132.714 78.8167 131.805 77.3018 130.35 77.4727C129.323 77.5946 128.814 78.5293 128.274 79.5205C128.002 80.0795 127.658 80.6009 127.252 81.0718C126.623 81.7283 126.012 81.9811 125.434 81.8319C124.761 81.6501 124.25 80.9354 123.958 79.7587C123.943 79.7024 123.927 79.6278 123.907 79.5405C123.543 77.9037 123.258 77.6746 123.154 77.6491C123.14 77.6491 123.058 77.6655 122.914 77.831C122.55 78.2493 122.55 78.8749 122.55 79.5387C122.55 80.1043 122.55 80.688 122.329 81.2082C122.168 81.5624 121.921 81.8704 121.61 82.1037C121.299 82.3371 120.934 82.4881 120.549 82.543C120.021 82.6294 119.479 82.5874 118.971 82.4206C118.462 82.2538 118.001 81.967 117.627 81.5846C116.636 80.4934 116.26 78.8421 116.505 76.6525C116.705 74.8903 116.667 70.1565 115.403 69.4308C115.085 69.249 114.654 69.3581 114.131 69.7564C113.356 70.3365 112.885 71.8878 112.762 73.1699C112.495 75.9111 111.65 78.5646 110.284 80.9554C109.862 81.6919 109.251 82.5576 108.273 82.7212C108.01 82.7618 107.741 82.7474 107.484 82.6788C107.227 82.6103 106.986 82.4891 106.778 82.323C106.114 81.7895 105.688 81.0147 105.593 80.1679C105.54 79.4825 105.569 78.7933 105.678 78.1147C105.754 77.6103 105.791 77.1008 105.789 76.5907C105.76 75.5323 105.167 74.3847 104.231 74.2956C103.746 74.2483 102.806 75.0922 102.049 75.7669C100.948 76.7544 99.9968 77.6055 99.195 77.3109C98.7532 77.1472 98.4859 76.6744 98.3787 75.8669C98.3605 75.7305 98.3514 75.5777 98.3423 75.4177C98.3005 74.7157 98.235 74.1738 97.8205 74.0829C97.7077 74.046 97.5875 74.0374 97.4706 74.0577C97.3537 74.0779 97.2435 74.1266 97.1496 74.1992C96.4696 74.7594 96.5096 76.798 96.5333 78.0183C96.5607 78.4787 96.5479 78.9405 96.4951 79.3986C96.4068 79.814 96.2303 80.2055 95.9775 80.5466C95.7246 80.8877 95.4014 81.1704 95.0297 81.3755C94.7941 81.5037 94.532 81.5758 94.264 81.5862C93.996 81.5967 93.7291 81.5451 93.4843 81.4355C92.4243 80.9426 92.2316 79.6514 92.1825 78.5803L91.8407 71.3295C91.8007 70.4675 91.6589 69.2835 90.8717 68.9453C90.7333 68.8896 90.5851 68.8627 90.436 68.8662C90.2869 68.8696 90.1401 68.9033 90.0044 68.9653C89.4267 69.235 88.9721 69.7131 88.7317 70.3038C88.5645 70.732 88.4296 71.1721 88.3281 71.6205C88.1627 72.2715 87.9918 72.9462 87.6318 73.5536C87.4159 73.9032 87.1255 74.2008 86.7814 74.4253C86.4372 74.6497 86.0478 74.7955 85.641 74.8521C85.3831 74.8895 85.1201 74.8648 84.8738 74.78C84.6274 74.6953 84.4049 74.5529 84.2246 74.3647C83.6029 73.7064 83.7065 72.8062 83.7974 72.0115C83.8562 71.6271 83.8733 71.2374 83.8483 70.8494C83.8119 70.5405 83.6999 70.2453 83.5224 69.9899C83.3448 69.7346 83.107 69.527 82.8302 69.3854C82.3423 69.14 81.8063 69.0052 81.2605 68.9908C80.7146 68.9763 80.1722 69.0825 79.6721 69.3017L79.3594 68.6452C79.9632 68.3766 80.6195 68.2465 81.2801 68.2644C81.9408 68.2823 82.589 68.4479 83.1774 68.7489C83.5575 68.9439 83.8832 69.2303 84.1253 69.5823C84.3674 69.9343 84.5184 70.3409 84.5646 70.7657C84.5986 71.2093 84.5815 71.6554 84.5137 72.0951C84.4319 72.8225 84.3592 73.4518 84.7501 73.8664C84.8528 73.9725 84.9799 74.052 85.1202 74.0979C85.2605 74.1439 85.4099 74.1549 85.5555 74.1301C85.8504 74.0842 86.1318 73.9749 86.3803 73.8098C86.6289 73.6446 86.8388 73.4276 86.9954 73.1735C87.3027 72.6552 87.4536 72.0624 87.6118 71.4331C87.7226 70.9487 87.8697 70.4733 88.0518 70.011C88.3662 69.2413 88.9644 68.6221 89.7226 68.2815C89.9487 68.1847 90.1921 68.1348 90.438 68.1348C90.684 68.1348 90.9274 68.1847 91.1535 68.2815C92.3152 68.7798 92.5134 70.2419 92.5607 71.2986L92.8898 78.5494C92.9298 79.4168 93.0716 80.4516 93.7697 80.779C93.9144 80.843 94.0722 80.872 94.2302 80.8635C94.3881 80.8549 94.5419 80.8091 94.6788 80.7299C94.9544 80.5759 95.1942 80.3651 95.3822 80.1115C95.5703 79.8578 95.7024 79.5671 95.7697 79.2586C95.807 78.8523 95.8149 78.4439 95.7933 78.0365C95.7642 76.5143 95.7242 74.4284 96.6751 73.6464C96.8534 73.5041 97.0626 73.4058 97.2859 73.3594C97.5092 73.3129 97.7403 73.3197 97.9605 73.379C98.9477 73.5918 99.0114 74.6684 99.0514 75.3795C99.0514 75.5286 99.0695 75.6669 99.0841 75.7778C99.1477 76.2579 99.2768 76.578 99.4313 76.6362C99.8204 76.7798 100.819 75.8851 101.548 75.2322C102.54 74.3429 103.478 73.5045 104.275 73.5791C105.664 73.71 106.457 75.2158 106.493 76.578C106.496 77.1257 106.457 77.6729 106.377 78.2147C106.275 78.8367 106.246 79.4684 106.291 80.097C106.367 80.7464 106.693 81.3407 107.2 81.7537C107.329 81.8602 107.479 81.9384 107.641 81.9832C107.802 82.0279 107.971 82.0384 108.136 82.0138C108.815 81.901 109.295 81.2009 109.636 80.6044C110.952 78.3034 111.765 75.7497 112.022 73.1117C112.151 71.775 112.662 69.9455 113.68 69.1853C114.465 68.5961 115.165 68.4706 115.756 68.8107C117.842 70.0055 117.229 76.678 117.222 76.7453C117 78.7148 117.314 80.1825 118.156 81.11C118.448 81.4031 118.806 81.6222 119.2 81.7487C119.593 81.8753 120.012 81.9057 120.42 81.8374C120.771 81.7774 121.4 81.5828 121.676 80.9281C121.84 80.5462 121.84 80.0606 121.84 79.5478C121.84 78.8203 121.84 77.9856 122.385 77.3654C122.769 76.9217 123.123 76.8962 123.35 76.9544C124.067 77.1363 124.39 78.3057 124.636 79.3914C124.654 79.4714 124.67 79.5405 124.683 79.5932C124.898 80.4589 125.256 81.0372 125.641 81.1391C126.027 81.2409 126.448 80.8899 126.745 80.5789C127.106 80.1543 127.411 79.6856 127.654 79.184C128.23 78.1256 128.883 76.9272 130.283 76.7617C132.03 76.5562 133.356 78.1656 133.63 79.8406C133.763 80.6644 133.714 81.5373 133.665 82.3866C133.597 83.5305 133.528 84.7163 133.935 85.7365C134.299 86.6458 134.805 87.1477 135.437 87.2187C136.626 87.3551 138.101 86.0638 138.97 84.8072C139.977 83.3523 141.708 82.192 143.128 83.0831C144.344 83.847 144.25 85.4037 144.166 86.7767C144.088 88.0643 144.013 89.2828 144.893 89.7793C146.426 90.6522 148.029 88.7881 149.58 86.9841C150.56 85.8438 151.488 84.7672 152.404 84.4071C154.193 83.7033 156 84.3289 157.236 86.0802C157.687 86.7204 157.82 87.4696 157.949 88.1934C158.078 88.9172 158.202 89.6247 158.644 90.1393C159.415 91.0396 160.098 90.7104 161.247 90.0539L161.365 89.9848C163.351 88.8518 164.936 88.8063 166.212 89.8447C166.683 90.256 167.101 90.7239 167.456 91.2378C167.976 91.9289 168.467 92.5817 169.274 92.9091C170.145 93.2619 170.843 92.6745 171.809 91.7397C172.116 91.4219 172.451 91.1311 172.809 90.8704C174.445 89.7647 176.627 90.0248 178.345 91.5324C179.71 92.7236 180.539 94.404 181.27 95.8862L180.61 96.199Z" fill="#B6D6FB"/>
<path d="M106.095 74.1667C106.24 73.2744 105.634 72.4337 104.742 72.2889C103.85 72.144 103.01 72.75 102.865 73.6422C102.72 74.5345 103.326 75.3752 104.218 75.5201C105.11 75.6649 105.95 75.059 106.095 74.1667Z" fill="#86BBF9"/>
<path d="M150.419 88.5118C151.322 88.5118 152.055 87.779 152.055 86.875C152.055 85.9711 151.322 85.2383 150.419 85.2383C149.515 85.2383 148.782 85.9711 148.782 86.875C148.782 87.779 149.515 88.5118 150.419 88.5118Z" fill="#86BBF9"/>
<path d="M86.86 107.18H79.3457V162.229H86.86V107.18Z" fill="#94F0D4"/>
<path d="M102.544 114.762H95.0293V162.287H102.544V114.762Z" fill="#D3DFFF"/>
<path d="M118.23 124.328H110.716V162.361H118.23V124.328Z" fill="#94F0D4"/>
<path d="M133.913 130.201H126.398V162.391H133.913V130.201Z" fill="#D3DFFF"/>
<path d="M149.599 121.029H142.085V162.308H149.599V121.029Z" fill="#94F0D4"/>
<path d="M165.286 136.086H157.771V162.361H165.286V136.086Z" fill="#D3DFFF"/>
<path d="M180.971 150.998H173.457V162.61H180.971V150.998Z" fill="#94F0D4"/>
<path d="M235.383 51.4727V166.909C235.383 168.452 235.996 169.933 237.087 171.024C238.178 172.115 239.658 172.728 241.201 172.728H354.131C355.674 172.728 357.154 172.115 358.245 171.024C359.336 169.933 359.949 168.452 359.949 166.909V51.4727H235.383Z" fill="white"/>
<path d="M354.132 173.091H241.202C239.563 173.091 237.99 172.439 236.831 171.28C235.672 170.12 235.021 168.547 235.021 166.907V51.1094H360.314V166.907C360.314 168.547 359.663 170.12 358.503 171.28C357.344 172.439 355.772 173.091 354.132 173.091ZM235.748 51.8368V166.907C235.748 168.354 236.322 169.742 237.345 170.765C238.368 171.788 239.756 172.363 241.202 172.363H354.132C355.579 172.363 356.966 171.788 357.989 170.765C359.012 169.742 359.587 168.354 359.587 166.907V51.8368H235.748Z" fill="#B6D6FB"/>
<path d="M359.949 44.5442C359.949 43.0007 359.336 41.5205 358.245 40.4291C357.154 39.3377 355.674 38.7246 354.131 38.7246H241.201C239.658 38.7246 238.178 39.3377 237.087 40.4291C235.996 41.5205 235.383 43.0007 235.383 44.5442V51.4731H359.949V44.5442Z" fill="#B6D6FB"/>
<path d="M360.314 51.8353H235.021V44.5427C235.021 42.9027 235.672 41.33 236.831 40.1704C237.99 39.0108 239.563 38.3594 241.202 38.3594H354.132C355.772 38.3594 357.344 39.0108 358.503 40.1704C359.663 41.33 360.314 42.9027 360.314 44.5427V51.8353ZM235.748 51.1078H359.587V44.5427C359.587 43.0957 359.012 41.708 357.989 40.6848C356.966 39.6616 355.579 39.0868 354.132 39.0868H241.202C239.756 39.0868 238.368 39.6616 237.345 40.6848C236.322 41.708 235.748 43.0957 235.748 44.5427V51.1078Z" fill="#B6D6FB"/>
<path d="M245.325 47.5921C246.73 47.5921 247.87 46.4522 247.87 45.0461C247.87 43.6399 246.73 42.5 245.325 42.5C243.919 42.5 242.779 43.6399 242.779 45.0461C242.779 46.4522 243.919 47.5921 245.325 47.5921Z" fill="white"/>
<path d="M348.479 107.18H340.965V162.229H348.479V107.18Z" fill="#94F0D4"/>
<path d="M332.794 109.346H325.279V162.245H332.794V109.346Z" fill="#D3DFFF"/>
<path d="M317.108 118.273H309.594V162.302H317.108V118.273Z" fill="#94F0D4"/>
<path d="M301.423 124.486H293.909V162.321H301.423V124.486Z" fill="#D3DFFF"/>
<path d="M285.738 135.934H278.224V162.453H285.738V135.934Z" fill="#94F0D4"/>
<path d="M270.051 145.408H262.537V162.51H270.051V145.408Z" fill="#D3DFFF"/>
<path d="M254.368 150.998H246.854V162.61H254.368V150.998Z" fill="#94F0D4"/>
<path d="M267.318 115.719H253.291C252.712 115.719 252.158 115.949 251.748 116.358C251.339 116.767 251.109 117.322 251.109 117.901V126.469C251.109 127.047 251.339 127.602 251.748 128.012C252.158 128.421 252.712 128.651 253.291 128.651H262.109L264.756 132.817L267.411 128.634C267.97 128.61 268.499 128.371 268.887 127.967C269.275 127.563 269.493 127.025 269.496 126.465V117.896C269.494 117.318 269.265 116.765 268.856 116.357C268.448 115.949 267.895 115.72 267.318 115.719Z" fill="#94F0D4"/>
<path d="M260.303 118.623L261.412 120.873L263.893 121.233L262.099 122.982L262.523 125.454L260.303 124.288L258.085 125.454L258.508 122.982L256.712 121.233L259.194 120.873L260.303 118.623Z" fill="white"/>
<path d="M348.936 96.2098H246.395V61.6562H348.936V96.2098ZM247.122 95.4824H348.209V62.3837H247.122V95.4824Z" fill="#DADADA"/>
<path d="M348.569 87.0273H246.76V87.7546H348.569V87.0273Z" fill="#DADADA"/>
<path d="M348.569 78.5703H246.76V79.2976H348.569V78.5703Z" fill="#DADADA"/>
<path d="M348.569 70.1152H246.76V70.8425H348.569V70.1152Z" fill="#DADADA"/>
<path d="M338.753 62.0215H338.025V95.8476H338.753V62.0215Z" fill="#DADADA"/>
<path d="M328.571 62.0215H327.844V95.8476H328.571V62.0215Z" fill="#DADADA"/>
<path d="M318.392 62.0215H317.665V95.8476H318.392V62.0215Z" fill="#DADADA"/>
<path d="M308.211 62.0215H307.483V95.8476H308.211V62.0215Z" fill="#DADADA"/>
<path d="M298.029 62.0215H297.302V95.8476H298.029V62.0215Z" fill="#DADADA"/>
<path d="M287.849 62.0215H287.122V95.8476H287.849V62.0215Z" fill="#DADADA"/>
<path d="M277.668 62.0215H276.94V95.8476H277.668V62.0215Z" fill="#DADADA"/>
<path d="M267.486 62.0215H266.759V95.8476H267.486V62.0215Z" fill="#DADADA"/>
<path d="M257.307 62.0215H256.58V95.8476H257.307V62.0215Z" fill="#DADADA"/>
<path d="M255.092 90.5598C254.891 90.5591 254.692 90.5378 254.495 90.4962C252.876 90.1688 252.581 88.714 252.345 87.5446C252.099 86.3316 251.901 85.5841 250.97 85.5059C249.896 85.415 248.061 86.779 247.165 87.7319L246.636 87.2318C247.323 86.5043 249.454 84.6439 251.032 84.7803C252.554 84.9112 252.821 86.2352 253.057 87.4009C253.328 88.7394 253.57 89.5669 254.639 89.7833C256.414 90.147 257.139 88.3284 257.784 86.2898L260.032 79.1644C260.381 78.0605 260.775 76.8093 261.668 75.8746C262.561 74.9398 264.102 74.3869 265.319 75.1217C266.228 75.6672 266.69 76.7257 266.691 78.2606C266.691 78.5388 266.691 78.8298 266.673 79.1372C266.64 80.272 266.602 81.5577 267.015 82.4561C267.106 82.6585 267.237 82.8399 267.402 82.9889C267.566 83.1379 267.759 83.2513 267.969 83.3218C268.114 83.3654 268.266 83.3761 268.415 83.3531C268.563 83.3301 268.705 83.274 268.829 83.189C269.675 82.6434 269.777 81.6123 269.884 80.5229C269.949 79.841 270.02 79.1353 270.286 78.5334C270.78 77.4167 271.955 76.9385 273.14 77.3749C275.569 78.2642 275.456 81.194 275.382 83.1363V83.3527C275.331 84.7385 275.487 86.6844 276.516 88.0811C276.924 88.6376 277.473 88.954 277.985 88.9304C278.44 88.9085 278.842 88.6248 279.147 88.112C279.671 87.2318 279.735 86.017 279.796 84.8385C279.815 84.4748 279.833 84.1438 279.864 83.8183L280.347 78.668C280.549 76.5347 281.289 75.2599 282.487 74.978C282.723 74.9122 282.97 74.8988 283.211 74.9387C283.452 74.9786 283.682 75.0708 283.883 75.209C284.5 75.6454 284.874 76.5384 285.027 77.9369C285.06 78.3545 285.06 78.7741 285.027 79.1917C284.952 80.6612 284.983 81.6468 286.054 81.9196C286.712 82.0906 287.472 81.6196 287.827 81.0631C288.291 80.3356 288.412 79.4263 288.531 78.5316C288.563 78.2788 288.598 78.0278 288.638 77.7805C288.921 76.0546 289.278 74.0232 289.767 72.0373V72.0118C290.04 70.9007 290.414 69.3785 291.585 68.7038C292.465 68.1946 293.163 68.3401 293.585 68.5437C294.627 69.0475 295.272 70.4933 295.448 71.7045C295.543 72.5223 295.571 73.3464 295.53 74.1687C295.508 75.2599 295.485 76.3965 295.785 77.3604C296.085 78.3242 297.039 79.51 298.239 79.179C299.512 78.8334 299.785 77.7241 300.092 76.4511C300.152 76.2019 300.214 75.9455 300.274 75.6963C300.839 73.6959 301.614 70.9516 303.346 69.1821C303.871 68.6505 304.555 68.3046 305.294 68.197C306.032 68.0893 306.786 68.2257 307.441 68.5856C309.461 69.7022 309.441 72.1355 309.426 74.2851C309.426 75.3999 309.41 76.4547 309.664 77.2531C309.999 78.2988 310.573 78.9517 311.366 79.1917C311.66 79.2914 311.972 79.3267 312.28 79.2953C312.589 79.264 312.887 79.1666 313.155 79.0099C314.13 78.4297 314.717 77.0894 314.942 76.0273L315.039 75.569C315.497 73.3667 316.13 70.3478 317.546 68.6801C318.502 67.5581 319.786 67.1143 321.068 67.4635C322.447 67.8381 323.515 69.073 323.784 70.6061C323.816 70.7879 323.844 70.9789 323.873 71.1644C323.935 71.733 324.065 72.2923 324.26 72.8302C324.556 73.5577 325.06 73.9978 325.676 74.0814C326.358 74.1742 327.08 73.8195 327.609 73.1357C327.997 72.5894 328.32 71.9998 328.573 71.379C328.755 70.9989 328.925 70.6042 329.136 70.2278C331.045 66.8052 335.067 65.463 338.194 65.3485C341.83 65.2157 345.345 66.3596 348.45 67.3689L348.225 68.06C345.178 67.0707 341.723 65.9486 338.225 66.0759C335.296 66.1832 331.538 67.4235 329.776 70.5824C329.582 70.9334 329.413 71.3099 329.231 71.6736C328.956 72.3452 328.603 72.9824 328.18 73.5722C327.489 74.467 326.515 74.9216 325.576 74.7961C324.702 74.6761 323.977 74.0578 323.577 73.0976C323.36 72.5071 323.216 71.8929 323.146 71.268C323.117 71.0862 323.089 70.9043 323.058 70.7224C322.837 69.4658 321.967 68.4583 320.868 68.1564C319.869 67.8836 318.857 68.2437 318.091 69.1421C316.789 70.6697 316.184 73.5813 315.74 75.7073L315.644 76.1674C315.313 77.7386 314.517 79.0317 313.515 79.6227C313.162 79.8311 312.768 79.9611 312.36 80.0038C311.952 80.0464 311.54 80.0008 311.152 79.8701C310.128 79.5609 309.372 78.7261 308.97 77.4549C308.679 76.5456 308.688 75.4363 308.697 74.2596C308.712 72.221 308.728 70.1114 307.088 69.2057C306.573 68.9217 305.98 68.8136 305.398 68.898C304.816 68.9823 304.278 69.2545 303.865 69.6731C302.261 71.3099 301.516 73.9487 300.972 75.8764C300.906 76.111 300.846 76.362 300.79 76.6038C300.474 77.9187 300.116 79.4099 298.427 79.8682C296.916 80.2774 295.541 79.0153 295.087 77.5568C294.752 76.4802 294.776 75.2872 294.799 74.1342C294.839 73.3515 294.815 72.5668 294.727 71.7881C294.578 70.7715 294.027 69.5476 293.263 69.1784C292.863 68.9839 292.429 69.0293 291.938 69.313C291.04 69.8331 290.721 71.1316 290.465 72.1646V72.1919C289.981 74.1542 289.629 76.1674 289.347 77.8787C289.307 78.1169 289.274 78.3624 289.241 78.6061C289.114 79.5718 288.981 80.5702 288.431 81.4322C287.931 82.2161 286.887 82.8708 285.86 82.6016C284.14 82.1506 284.223 80.4029 284.293 79.1244C284.321 78.7461 284.321 78.3661 284.293 77.9878C284.134 76.5329 283.747 75.9873 283.453 75.7727C283.334 75.6946 283.2 75.6436 283.06 75.6235C282.92 75.6033 282.777 75.6146 282.642 75.6563C281.491 75.9255 281.156 77.6823 281.06 78.7061L280.576 83.8546C280.547 84.1656 280.531 84.4948 280.513 84.8458C280.449 86.0479 280.378 87.4118 279.762 88.4484C279.331 89.1759 278.709 89.5869 278.009 89.6196C277.242 89.6596 276.478 89.2395 275.918 88.4757C274.766 86.9026 274.589 84.7839 274.646 83.2818L274.655 83.0654C274.724 81.2322 274.82 78.7207 272.889 78.0133C272.066 77.7114 271.286 78.0223 270.949 78.7843C270.729 79.279 270.669 79.8973 270.606 80.5502C270.491 81.7069 270.362 83.0162 269.224 83.7564C269.013 83.8978 268.773 83.9909 268.521 84.0289C268.27 84.0669 268.013 84.049 267.769 83.9765C267.458 83.8781 267.172 83.7149 266.928 83.4977C266.685 83.2804 266.49 83.0141 266.357 82.7162C265.873 81.665 265.913 80.2883 265.948 79.079C265.957 78.7752 265.966 78.4897 265.966 78.2242C265.966 76.9603 265.62 76.1128 264.944 75.7054C264.057 75.1689 262.866 75.6291 262.199 76.3365C261.43 77.1494 261.061 78.3151 260.744 79.3445L258.501 86.4552C258.001 88.0611 257.201 90.558 255.092 90.5598Z" fill="#B6D6FB"/>
<path d="M277.808 90.5743C278.712 90.5743 279.444 89.8415 279.444 88.9375C279.444 88.0336 278.712 87.3008 277.808 87.3008C276.904 87.3008 276.172 88.0336 276.172 88.9375C276.172 89.8415 276.904 90.5743 277.808 90.5743Z" fill="#86BBF9"/>
<path d="M338.353 67.2969C339.257 67.2969 339.989 66.5641 339.989 65.6602C339.989 64.7562 339.257 64.0234 338.353 64.0234C337.449 64.0234 336.717 64.7562 336.717 65.6602C336.717 66.5641 337.449 67.2969 338.353 67.2969Z" fill="#86BBF9"/>
<path d="M423.742 239.264H0V239.991H423.742V239.264Z" fill="#010C18"/>
</g>
<defs>
<clipPath id="clip0_773_17997">
<rect width="432" height="240" fill="white"/>
</clipPath>
</defs>
</svg>
