<svg width="524" height="348" viewBox="0 0 524 348" fill="none" xmlns="http://www.w3.org/2000/svg">
<g filter="url(#filter0_dd_773_19171)">
<rect x="10" y="8" width="504" height="328" fill="white"/>
</g>
<path d="M435 283.637H89V283.81H435V283.637Z" fill="#E0E0E0"/>
<path d="M370.437 288.885H348.32V289.058H370.437V288.885Z" fill="#E0E0E0"/>
<path d="M282.904 291.826H237.551V291.999H282.904V291.826Z" fill="#E0E0E0"/>
<path d="M233.564 291.826H226.201V291.999H233.564V291.826Z" fill="#E0E0E0"/>
<path d="M191.625 288.629H169.619V288.802H191.625V288.629Z" fill="#E0E0E0"/>
<path d="M323.935 288.629H303.971V288.802H323.935V288.629Z" fill="#E0E0E0"/>
<path d="M154.276 290.652H133.932V290.825H154.276V290.652Z" fill="#E0E0E0"/>
<path d="M253.004 252.841H119.386C118.339 252.84 117.336 252.423 116.596 251.684C115.857 250.945 115.441 249.943 115.441 248.899V61.4823C115.451 60.4439 115.87 59.4509 116.608 58.7192C117.347 57.9874 118.345 57.576 119.386 57.5742H253.004C254.052 57.5742 255.057 57.9896 255.798 58.729C256.539 59.4684 256.955 60.4712 256.955 61.5168V248.899C256.955 249.944 256.539 250.947 255.798 251.687C255.057 252.426 254.052 252.841 253.004 252.841ZM119.386 57.7123C118.385 57.7141 117.426 58.1121 116.719 58.819C116.012 59.5258 115.614 60.4837 115.614 61.4823V248.899C115.614 249.897 116.012 250.855 116.719 251.562C117.426 252.269 118.385 252.667 119.386 252.669H253.004C254.006 252.667 254.966 252.269 255.674 251.563C256.382 250.856 256.781 249.898 256.782 248.899V61.4823C256.781 60.483 256.382 59.5252 255.674 58.8185C254.966 58.1119 254.006 57.7141 253.004 57.7123H119.386Z" fill="#E0E0E0"/>
<path d="M402.692 252.841H269.067C268.019 252.84 267.015 252.424 266.275 251.685C265.534 250.946 265.117 249.944 265.115 248.899V61.4823C265.126 60.4432 265.547 59.4503 266.287 58.7188C267.026 57.9872 268.025 57.576 269.067 57.5742H402.692C403.731 57.5778 404.728 57.9901 405.465 58.7216C406.202 59.4532 406.62 60.4451 406.629 61.4823V248.899C406.629 249.942 406.215 250.943 405.477 251.682C404.739 252.421 403.737 252.838 402.692 252.841ZM269.067 57.7123C268.065 57.7141 267.105 58.1119 266.397 58.8185C265.689 59.5252 265.29 60.483 265.288 61.4823V248.899C265.29 249.898 265.689 250.856 266.397 251.563C267.105 252.269 268.065 252.667 269.067 252.669H402.692C403.693 252.667 404.653 252.269 405.361 251.563C406.07 250.856 406.468 249.898 406.47 248.899V61.4823C406.468 60.483 406.07 59.5252 405.361 58.8185C404.653 58.1119 403.693 57.7141 402.692 57.7123H269.067Z" fill="#E0E0E0"/>
<path d="M194.324 237.616C179.401 237.621 164.812 233.208 152.404 224.936C139.995 216.665 130.324 204.907 124.614 191.15C118.905 177.392 117.413 162.254 120.328 147.651C123.244 133.048 130.435 119.636 140.992 109.111C141.008 109.095 141.027 109.081 141.049 109.072C141.07 109.063 141.093 109.059 141.116 109.059C141.14 109.059 141.163 109.063 141.184 109.072C141.205 109.081 141.225 109.095 141.241 109.111L155.123 122.962C155.139 122.979 155.153 122.998 155.162 123.019C155.171 123.041 155.175 123.063 155.175 123.087C155.175 123.11 155.171 123.133 155.162 123.154C155.153 123.176 155.139 123.195 155.123 123.211C146.483 131.825 140.936 143.044 139.341 155.126C137.746 167.208 140.193 179.477 146.302 190.03C152.411 200.582 161.84 208.827 173.126 213.485C184.412 218.143 196.923 218.954 208.718 215.79C208.739 215.781 208.761 215.777 208.784 215.777C208.806 215.777 208.829 215.781 208.849 215.79C208.889 215.813 208.919 215.85 208.932 215.894L214.019 234.827C214.036 234.869 214.036 234.916 214.019 234.958C213.993 234.998 213.954 235.028 213.908 235.041C207.521 236.749 200.937 237.615 194.324 237.616ZM141.116 109.477C129.476 121.149 122.013 136.321 119.879 152.649C117.746 168.977 121.062 185.551 129.314 199.81C137.566 214.07 150.296 225.22 165.535 231.538C180.774 237.856 197.675 238.99 213.624 234.765L208.628 216.163C196.78 219.295 184.229 218.448 172.911 213.754C161.594 209.059 152.14 200.778 146.01 190.188C139.879 179.599 137.412 167.29 138.99 155.162C140.569 143.035 146.104 131.763 154.742 123.087L141.116 109.477Z" fill="#E0E0E0"/>
<path d="M233.683 123.259C233.637 123.26 233.593 123.243 233.559 123.211C223.149 112.847 209.045 107.027 194.34 107.027C179.635 107.027 165.53 112.847 155.121 123.211C155.105 123.228 155.086 123.241 155.065 123.25C155.045 123.259 155.022 123.263 154.999 123.263C154.977 123.263 154.954 123.259 154.933 123.25C154.913 123.241 154.894 123.228 154.878 123.211L140.99 109.36C140.973 109.345 140.96 109.326 140.951 109.305C140.942 109.284 140.938 109.262 140.938 109.239C140.938 109.217 140.942 109.194 140.951 109.173C140.96 109.153 140.973 109.134 140.99 109.118C155.143 95.0051 174.334 87.0771 194.343 87.0771C214.353 87.0771 233.543 95.0051 247.696 109.118C247.726 109.151 247.743 109.195 247.743 109.239C247.743 109.284 247.726 109.327 247.696 109.36L233.808 123.218C233.773 123.247 233.729 123.262 233.683 123.259ZM194.343 106.688C209.085 106.662 223.234 112.476 233.683 122.852L247.323 109.236C233.244 95.2654 214.195 87.4234 194.34 87.4234C174.484 87.4234 155.436 95.2654 141.357 109.236L155.003 122.852C165.45 112.472 179.6 106.655 194.343 106.681V106.688Z" fill="#E0E0E0"/>
<path d="M213.838 235.062C213.808 235.067 213.777 235.067 213.748 235.062C213.729 235.05 213.712 235.035 213.699 235.017C213.686 235 213.677 234.979 213.671 234.958L208.585 216.025C208.568 215.983 208.568 215.936 208.585 215.894C208.596 215.875 208.611 215.858 208.629 215.845C208.647 215.832 208.667 215.823 208.689 215.818C218.1 213.31 226.683 208.372 233.573 201.503C240.464 194.633 245.419 186.073 247.941 176.685C250.462 167.296 250.46 157.411 247.936 148.024C245.411 138.636 240.453 130.078 233.56 123.211C233.529 123.177 233.512 123.133 233.512 123.087C233.512 123.041 233.529 122.997 233.56 122.962L247.469 109.111C247.485 109.095 247.504 109.081 247.526 109.072C247.547 109.063 247.57 109.059 247.593 109.059C247.617 109.059 247.64 109.063 247.661 109.072C247.682 109.081 247.702 109.095 247.718 109.111C257.025 118.479 263.707 130.118 267.1 142.867C270.492 155.615 270.475 169.029 267.052 181.769C263.628 194.51 256.916 206.132 247.586 215.476C238.256 224.821 226.634 231.562 213.879 235.027L213.838 235.062ZM208.959 216.073L213.962 234.675C226.656 231.245 238.225 224.549 247.511 215.257C256.798 205.965 263.476 194.404 266.879 181.728C270.282 169.053 270.29 155.708 266.902 143.029C263.513 130.349 256.848 118.78 247.573 109.477L233.926 123.087C240.814 129.997 245.764 138.59 248.279 148.007C250.795 157.424 250.788 167.335 248.261 176.749C245.733 186.163 240.773 194.75 233.876 201.651C226.979 208.552 218.387 213.525 208.959 216.073Z" fill="#E0E0E0"/>
<path d="M156.898 271.339V283.637C167.299 283.636 177.408 280.211 185.659 273.893C193.909 267.575 199.84 258.717 202.53 248.693C205.221 238.669 204.521 228.039 200.54 218.452C196.558 208.865 189.517 200.857 180.509 195.67L174.351 206.324C181.007 210.159 186.21 216.077 189.152 223.163C192.093 230.248 192.61 238.104 190.621 245.512C188.633 252.92 184.25 259.467 178.153 264.137C172.056 268.806 164.585 271.338 156.898 271.339Z" fill="#D9E9FC"/>
<path d="M109.656 236.498C109.658 249 114.636 260.988 123.495 269.828C132.355 278.668 144.37 283.635 156.899 283.637V271.34C147.639 271.338 138.758 267.666 132.21 261.133C125.662 254.599 121.983 245.738 121.981 236.498H109.656Z" fill="#9DF1D8"/>
<path d="M109.656 236.498H121.981C121.979 230.382 123.592 224.374 126.655 219.077C129.719 213.78 134.127 209.381 139.435 206.323C144.743 203.265 150.764 201.655 156.893 201.655C163.022 201.655 169.044 203.266 174.351 206.324L180.51 195.67C158.069 182.744 128.949 190.54 115.988 212.932C111.843 220.098 109.66 228.225 109.656 236.498Z" fill="#D9E9FC"/>
<path d="M308.647 265.822H293.43V283.637H308.647V265.822Z" fill="#F5F5F5"/>
<path d="M326.973 271.195H311.756V283.638H326.973V271.195Z" fill="#D9E9FC"/>
<path d="M345.301 275.772H330.084V283.63H345.301V275.772Z" fill="#F0F0F0"/>
<path d="M251.543 271.195H236.326V283.638H251.543V271.195Z" fill="#9DF1D8"/>
<path d="M269.867 273.95H254.65V283.638H269.867V273.95Z" fill="#D9E9FC"/>
<path d="M288.198 262.765H272.98V283.638H288.198V262.765Z" fill="#9DF1D8"/>
<path d="M365.752 264.165H350.535V283.637H365.752V264.165Z" fill="#9DF1D8"/>
<path d="M224.555 69.5619C224.558 68.1493 225.122 66.7956 226.123 65.7967C227.125 64.7979 228.481 64.2351 229.897 64.2314H396.302C397.718 64.2351 399.075 64.7979 400.076 65.7967C401.077 66.7956 401.641 68.1493 401.644 69.5619V86.7203H224.555V69.5619Z" fill="#D9E9FC"/>
<path d="M263.711 75.4787C263.711 76.2765 263.948 77.0564 264.392 77.7197C264.837 78.383 265.468 78.8998 266.207 79.2048C266.946 79.5098 267.759 79.5892 268.543 79.4331C269.327 79.2769 270.047 78.8922 270.612 78.3276C271.177 77.7629 271.562 77.0438 271.717 76.2611C271.872 75.4785 271.791 74.6675 271.484 73.9308C271.177 73.1941 270.658 72.5648 269.992 72.1225C269.327 71.6803 268.545 71.4449 267.745 71.4463C266.675 71.4481 265.649 71.8738 264.892 72.6298C264.136 73.3858 263.711 74.4104 263.711 75.4787Z" fill="#F5F5F5"/>
<path d="M253.432 79.5111C255.664 79.5111 257.473 77.7057 257.473 75.4787C257.473 73.2517 255.664 71.4463 253.432 71.4463C251.2 71.4463 249.391 73.2517 249.391 75.4787C249.391 77.7057 251.2 79.5111 253.432 79.5111Z" fill="#F5F5F5"/>
<path d="M239.123 79.5111C241.355 79.5111 243.165 77.7057 243.165 75.4787C243.165 73.2517 241.355 71.4463 239.123 71.4463C236.891 71.4463 235.082 73.2517 235.082 75.4787C235.082 77.7057 236.891 79.5111 239.123 79.5111Z" fill="#F5F5F5"/>
<path d="M396.302 202.278H229.897C228.481 202.275 227.125 201.712 226.123 200.713C225.122 199.714 224.558 198.36 224.555 196.948V86.7197H401.644V196.948C401.641 198.36 401.077 199.714 400.076 200.713C399.075 201.712 397.718 202.275 396.302 202.278Z" fill="#F5F5F5"/>
<path d="M212.633 87.4028C212.638 85.9907 213.203 84.638 214.204 83.6396C215.204 82.6411 216.56 82.0777 217.975 82.0723H384.38C385.796 82.0759 387.153 82.6387 388.154 83.6376C389.155 84.6364 389.719 85.9901 389.723 87.4028V104.561H212.633V87.4028Z" fill="#FAFAFA"/>
<path d="M251.787 93.3205C251.787 94.118 252.024 94.8976 252.468 95.5608C252.912 96.2239 253.543 96.7407 254.282 97.0459C255.02 97.3511 255.833 97.431 256.617 97.2754C257.401 97.1198 258.121 96.7358 258.686 96.1718C259.251 95.6079 259.636 94.8894 259.792 94.1072C259.948 93.325 259.868 92.5142 259.562 91.7773C259.256 91.0405 258.738 90.4107 258.074 89.9677C257.409 89.5246 256.628 89.2881 255.828 89.2881C254.757 89.2881 253.729 89.7129 252.971 90.4691C252.213 91.2254 251.787 92.251 251.787 93.3205Z" fill="#E0E0E0"/>
<path d="M237.477 93.3205C237.477 94.118 237.714 94.8976 238.158 95.5608C238.602 96.2239 239.233 96.7407 239.971 97.0459C240.71 97.3511 241.522 97.431 242.306 97.2754C243.09 97.1198 243.81 96.7358 244.375 96.1718C244.941 95.6079 245.326 94.8894 245.481 94.1072C245.637 93.325 245.557 92.5142 245.252 91.7773C244.946 91.0405 244.428 90.4107 243.763 89.9677C243.098 89.5246 242.317 89.2881 241.518 89.2881C240.446 89.2881 239.418 89.7129 238.66 90.4691C237.902 91.2254 237.477 92.251 237.477 93.3205Z" fill="#E0E0E0"/>
<path d="M223.166 93.3205C223.166 94.1183 223.403 94.8982 223.848 95.5615C224.292 96.2247 224.924 96.7416 225.662 97.0466C226.401 97.3516 227.214 97.431 227.998 97.2749C228.782 97.1187 229.502 96.734 230.067 96.1694C230.632 95.6047 231.017 94.8856 231.172 94.1029C231.327 93.3203 231.246 92.5093 230.939 91.7726C230.632 91.0359 230.113 90.4066 229.447 89.9643C228.782 89.5221 228 89.2867 227.2 89.2881C226.13 89.2899 225.104 89.7156 224.347 90.4716C223.591 91.2276 223.166 92.2522 223.166 93.3205Z" fill="#E0E0E0"/>
<path d="M384.38 220.12H217.975C216.559 220.116 215.203 219.554 214.202 218.555C213.2 217.556 212.636 216.202 212.633 214.789V104.562H389.723V214.789C389.719 216.202 389.155 217.556 388.154 218.555C387.153 219.554 385.796 220.116 384.38 220.12Z" fill="#E0E0E0"/>
<path d="M386.137 74.8369H137.868C136.106 74.8424 134.419 75.542 133.172 76.7836C131.925 78.0251 131.22 79.7079 131.211 81.4655V246.807C131.216 248.567 131.92 250.252 133.167 251.496C134.415 252.739 136.105 253.439 137.868 253.443H386.137C387.899 253.437 389.587 252.737 390.833 251.493C392.079 250.25 392.781 248.566 392.787 246.807V81.4655C392.778 79.7091 392.074 78.0273 390.829 76.786C389.583 75.5446 387.897 74.8442 386.137 74.8369Z" fill="#86BBF9"/>
<path opacity="0.3" d="M386.137 74.8369H137.868C136.106 74.8424 134.419 75.542 133.172 76.7836C131.925 78.0251 131.22 79.7079 131.211 81.4655V246.807C131.216 248.567 131.92 250.252 133.167 251.496C134.415 252.739 136.105 253.439 137.868 253.443H386.137C387.899 253.437 389.587 252.737 390.833 251.493C392.079 250.25 392.781 248.566 392.787 246.807V81.4655C392.778 79.7091 392.074 78.0273 390.829 76.786C389.583 75.5446 387.897 74.8442 386.137 74.8369Z" fill="#F5F5F5"/>
<path d="M181.832 87.8113H144.222C143.639 87.8345 143.057 87.74 142.512 87.5335C141.966 87.3269 141.468 87.0125 141.047 86.6092C140.627 86.2058 140.292 85.7218 140.063 85.1862C139.835 84.6507 139.717 84.0745 139.717 83.4923C139.717 82.9102 139.835 82.334 140.063 81.7984C140.292 81.2628 140.627 80.7788 141.047 80.3755C141.468 79.9721 141.966 79.6577 142.512 79.4512C143.057 79.2446 143.639 79.1501 144.222 79.1734H181.832C182.415 79.1501 182.997 79.2446 183.542 79.4512C184.088 79.6577 184.586 79.9721 185.006 80.3755C185.427 80.7788 185.762 81.2628 185.991 81.7984C186.219 82.334 186.337 82.9102 186.337 83.4923C186.337 84.0745 186.219 84.6507 185.991 85.1862C185.762 85.7218 185.427 86.2058 185.006 86.6092C184.586 87.0125 184.088 87.3269 183.542 87.5335C182.997 87.74 182.415 87.8345 181.832 87.8113ZM144.222 79.8639C143.731 79.8425 143.241 79.9205 142.781 80.0932C142.321 80.2659 141.901 80.5297 141.546 80.8688C141.191 81.2078 140.909 81.6151 140.716 82.0659C140.523 82.5168 140.423 83.002 140.423 83.4923C140.423 83.9826 140.523 84.4678 140.716 84.9187C140.909 85.3696 141.191 85.7768 141.546 86.1158C141.901 86.4549 142.321 86.7187 142.781 86.8914C143.241 87.0641 143.731 87.1422 144.222 87.1208H181.832C182.323 87.1422 182.813 87.0641 183.273 86.8914C183.733 86.7187 184.153 86.4549 184.508 86.1158C184.863 85.7768 185.145 85.3696 185.338 84.9187C185.531 84.4678 185.631 83.9826 185.631 83.4923C185.631 83.002 185.531 82.5168 185.338 82.0659C185.145 81.6151 184.863 81.2078 184.508 80.8688C184.153 80.5297 183.733 80.2659 183.273 80.0932C182.813 79.9205 182.323 79.8425 181.832 79.8639H144.222Z" fill="#9DF1D8"/>
<path d="M200.046 87.8117H195.569C194.451 87.7671 193.394 87.2926 192.618 86.4875C191.843 85.6824 191.41 84.6092 191.41 83.4928C191.41 82.3763 191.843 81.3031 192.618 80.4981C193.394 79.693 194.451 79.2184 195.569 79.1738H200.067C201.185 79.2184 202.242 79.693 203.018 80.4981C203.793 81.3031 204.226 82.3763 204.226 83.4928C204.226 84.6092 203.793 85.6824 203.018 86.4875C202.242 87.2926 201.185 87.7671 200.067 87.8117H200.046ZM195.569 79.8643C194.632 79.9051 193.747 80.3052 193.098 80.9812C192.45 81.6572 192.088 82.5569 192.088 83.4928C192.088 84.4286 192.45 85.3283 193.098 86.0043C193.747 86.6803 194.632 87.0804 195.569 87.1212H200.067C201.004 87.0804 201.889 86.6803 202.538 86.0043C203.186 85.3283 203.548 84.4286 203.548 83.4928C203.548 82.5569 203.186 81.6572 202.538 80.9812C201.889 80.3052 201.004 79.9051 200.067 79.8643H195.569Z" fill="#9DF1D8"/>
<path d="M392.787 91.9961H131.211V240.849H392.787V91.9961Z" fill="#86BBF9"/>
<path opacity="0.8" d="M392.787 91.9961H131.211V240.849H392.787V91.9961Z" fill="#F5F5F5"/>
<path opacity="0.9" d="M179.82 218.588C176.914 218.593 174.009 218.429 171.122 218.098C154.514 216.199 139.912 208.3 131.076 196.43C131.048 196.394 131.036 196.348 131.043 196.302C131.049 196.257 131.074 196.216 131.11 196.189C131.147 196.161 131.193 196.149 131.238 196.156C131.284 196.162 131.325 196.187 131.352 196.223C140.127 208.017 154.638 215.867 171.156 217.759C184.367 219.271 198.546 217.29 215.776 211.545C220.87 209.839 226.025 207.899 231 206.021C246.965 199.993 263.469 193.758 280.824 194.442C289.128 194.766 297.432 196.693 305.46 198.585C309.418 199.503 313.508 200.449 317.549 201.195C332.835 204.019 344.585 202.859 353.471 197.653C355.962 196.116 358.346 194.411 360.605 192.55C363.754 190.085 366.999 187.53 370.729 185.935C374.303 184.474 378.172 183.879 382.021 184.197C385.87 184.515 389.589 185.737 392.873 187.765C392.893 187.776 392.91 187.791 392.923 187.81C392.937 187.828 392.946 187.848 392.952 187.87C392.957 187.892 392.957 187.915 392.953 187.937C392.949 187.96 392.941 187.981 392.928 188C392.917 188.019 392.902 188.036 392.884 188.05C392.866 188.063 392.845 188.073 392.823 188.078C392.801 188.083 392.778 188.084 392.756 188.08C392.733 188.076 392.712 188.067 392.693 188.055C389.454 186.056 385.786 184.851 381.99 184.537C378.194 184.224 374.378 184.812 370.854 186.253C367.172 187.827 363.934 190.396 360.813 192.826C358.54 194.693 356.145 196.407 353.644 197.956C344.682 203.204 332.849 204.371 317.48 201.533C313.431 200.787 309.335 199.834 305.377 198.916C297.363 197.059 289.073 195.132 280.804 194.815C263.545 194.124 247.062 200.338 231.125 206.373C226.136 208.258 220.973 210.205 215.901 211.897C202.317 216.385 190.629 218.588 179.82 218.588Z" fill="#FAFAFA"/>
<g style="mix-blend-mode:multiply">
<path d="M349.67 159.87C337.318 159.87 324.004 156.825 308.109 150.383C303.009 148.311 297.846 146.005 292.885 143.768C276.969 136.614 260.464 129.219 243.206 128.667C234.902 128.405 226.653 129.737 218.64 131.028C214.675 131.664 210.578 132.327 206.53 132.782C191.161 134.529 179.334 132.513 170.373 126.63C167.867 124.904 165.473 123.022 163.204 120.996C160.048 118.337 156.817 115.576 153.128 113.704C149.732 112.01 145.979 111.148 142.182 111.191C138.385 111.235 134.653 112.181 131.296 113.953C131.255 113.973 131.208 113.977 131.164 113.965C131.121 113.952 131.084 113.923 131.06 113.884C131.049 113.864 131.043 113.842 131.04 113.819C131.038 113.797 131.04 113.774 131.046 113.752C131.053 113.73 131.063 113.71 131.078 113.692C131.092 113.675 131.11 113.66 131.13 113.649C134.536 111.857 138.32 110.899 142.171 110.854C146.021 110.81 149.827 111.68 153.274 113.394C156.997 115.251 160.249 118.034 163.391 120.733C165.648 122.751 168.031 124.623 170.525 126.34C179.41 132.182 191.168 134.177 206.454 132.437C210.495 131.981 214.585 131.325 218.543 130.683C226.57 129.392 234.874 128.059 243.171 128.322C260.506 128.881 277.017 136.283 292.995 143.45C297.985 145.687 303.14 148 308.219 150.065C325.45 157.046 339.615 160.029 352.839 159.455C369.351 158.765 383.855 151.929 392.629 140.764C392.645 140.748 392.664 140.735 392.685 140.726C392.705 140.717 392.728 140.712 392.751 140.712C392.773 140.712 392.796 140.717 392.817 140.726C392.837 140.735 392.856 140.748 392.872 140.764C392.89 140.778 392.905 140.795 392.917 140.814C392.928 140.834 392.936 140.855 392.939 140.878C392.942 140.9 392.941 140.923 392.935 140.945C392.93 140.967 392.92 140.988 392.906 141.006C384.069 152.247 369.468 159.11 352.853 159.828C351.815 159.849 350.743 159.87 349.67 159.87Z" fill="#86BBF9"/>
</g>
<path opacity="0.7" d="M349.67 159.87C337.318 159.87 324.004 156.825 308.109 150.383C303.009 148.311 297.846 146.005 292.885 143.768C276.969 136.614 260.464 129.219 243.206 128.667C234.902 128.405 226.653 129.737 218.64 131.028C214.675 131.664 210.578 132.327 206.53 132.782C191.161 134.529 179.334 132.513 170.373 126.63C167.867 124.904 165.473 123.022 163.204 120.996C160.048 118.337 156.817 115.576 153.128 113.704C149.732 112.01 145.979 111.148 142.182 111.191C138.385 111.235 134.653 112.181 131.296 113.953C131.255 113.973 131.208 113.977 131.164 113.965C131.121 113.952 131.084 113.923 131.06 113.884C131.049 113.864 131.043 113.842 131.04 113.819C131.038 113.797 131.04 113.774 131.046 113.752C131.053 113.73 131.063 113.71 131.078 113.692C131.092 113.675 131.11 113.66 131.13 113.649C134.536 111.857 138.32 110.899 142.171 110.854C146.021 110.81 149.827 111.68 153.274 113.394C156.997 115.251 160.249 118.034 163.391 120.733C165.648 122.751 168.031 124.623 170.525 126.34C179.41 132.182 191.168 134.177 206.454 132.437C210.495 131.981 214.585 131.325 218.543 130.683C226.57 129.392 234.874 128.059 243.171 128.322C260.506 128.881 277.017 136.283 292.995 143.45C297.985 145.687 303.14 148 308.219 150.065C325.45 157.046 339.615 160.029 352.839 159.455C369.351 158.765 383.855 151.929 392.629 140.764C392.645 140.748 392.664 140.735 392.685 140.726C392.705 140.717 392.728 140.712 392.751 140.712C392.773 140.712 392.796 140.717 392.817 140.726C392.837 140.735 392.856 140.748 392.872 140.764C392.89 140.778 392.905 140.795 392.917 140.814C392.928 140.834 392.936 140.855 392.939 140.878C392.942 140.9 392.941 140.923 392.935 140.945C392.93 140.967 392.92 140.988 392.906 141.006C384.069 152.247 369.468 159.11 352.853 159.828C351.815 159.849 350.743 159.87 349.67 159.87Z" fill="#F5F5F5"/>
<path d="M372.353 236.195H151.647C147.467 236.19 143.461 234.531 140.506 231.582C137.551 228.633 135.888 224.636 135.883 220.466V112.385C135.888 108.215 137.551 104.218 140.506 101.269C143.461 98.3207 147.467 96.6617 151.647 96.6562H372.353C376.532 96.6617 380.539 98.3207 383.494 101.269C386.449 104.218 388.111 108.215 388.117 112.385V220.466C388.111 224.636 386.449 228.633 383.494 231.582C380.539 234.531 376.532 236.19 372.353 236.195ZM151.647 97.0015C147.559 97.007 143.641 98.6295 140.751 101.513C137.86 104.397 136.234 108.307 136.229 112.385V220.466C136.234 224.544 137.86 228.454 140.751 231.338C143.641 234.222 147.559 235.844 151.647 235.85H372.353C376.44 235.844 380.359 234.222 383.249 231.338C386.139 228.454 387.765 224.544 387.771 220.466V112.385C387.765 108.307 386.139 104.397 383.249 101.513C380.359 98.6295 376.44 97.007 372.353 97.0015H151.647Z" fill="#FAFAFA"/>
<path d="M163.321 183.595H150.471V240.856H163.321V183.595Z" fill="#FAFAFA"/>
<path d="M182.434 171.904H169.584V240.849H182.434V171.904Z" fill="#9DF1D8"/>
<path d="M201.542 160.429H188.691V240.856H201.542V160.429Z" fill="#FAFAFA"/>
<path d="M220.655 146.356H207.805V240.848H220.655V146.356Z" fill="#FAFAFA"/>
<path d="M239.761 166.422H226.91V240.849H239.761V166.422Z" fill="#9DF1D8"/>
<path d="M258.872 138.534H246.021V240.856H258.872V138.534Z" fill="#86BBF9"/>
<path opacity="0.2" d="M258.872 138.534H246.021V240.856H258.872V138.534Z" fill="white"/>
<path d="M277.981 173.362H265.131V240.85H277.981V173.362Z" fill="#FAFAFA"/>
<path d="M297.093 150.728H284.242V240.856H297.093V150.728Z" fill="#FAFAFA"/>
<path d="M316.196 218.305H303.346V240.849H316.196V218.305Z" fill="#86BBF9"/>
<path opacity="0.3" d="M316.196 218.305H303.346V240.849H316.196V218.305Z" fill="#9EC9FA"/>
<path d="M335.311 145.065H322.461V240.855H335.311V145.065Z" fill="#9DF1D8"/>
<path d="M354.419 118.51H341.568V240.856H354.419V118.51Z" fill="#86BBF9"/>
<path opacity="0.2" d="M354.419 118.51H341.568V240.856H354.419V118.51Z" fill="white"/>
<defs>
<filter id="filter0_dd_773_19171" x="0" y="0" width="524" height="348" filterUnits="userSpaceOnUse" color-interpolation-filters="sRGB">
<feFlood flood-opacity="0" result="BackgroundImageFix"/>
<feColorMatrix in="SourceAlpha" type="matrix" values="0 0 0 0 0 0 0 0 0 0 0 0 0 0 0 0 0 0 127 0" result="hardAlpha"/>
<feOffset dy="2"/>
<feGaussianBlur stdDeviation="5"/>
<feColorMatrix type="matrix" values="0 0 0 0 0 0 0 0 0 0 0 0 0 0 0 0 0 0 0.1 0"/>
<feBlend mode="normal" in2="BackgroundImageFix" result="effect1_dropShadow_773_19171"/>
<feColorMatrix in="SourceAlpha" type="matrix" values="0 0 0 0 0 0 0 0 0 0 0 0 0 0 0 0 0 0 127 0" result="hardAlpha"/>
<feOffset/>
<feGaussianBlur stdDeviation="1"/>
<feColorMatrix type="matrix" values="0 0 0 0 0 0 0 0 0 0 0 0 0 0 0 0 0 0 0.2 0"/>
<feBlend mode="normal" in2="effect1_dropShadow_773_19171" result="effect2_dropShadow_773_19171"/>
<feBlend mode="normal" in="SourceGraphic" in2="effect2_dropShadow_773_19171" result="shape"/>
</filter>
</defs>
</svg>
