<svg width="524" height="348" viewBox="0 0 524 348" fill="none" xmlns="http://www.w3.org/2000/svg">
<g filter="url(#filter0_dd_773_18721)">
<rect x="10" y="8" width="504" height="328" fill="white"/>
</g>
<path d="M114.784 180.34C133.452 172.89 142.541 151.727 135.086 133.072C127.631 114.417 106.454 105.333 87.7857 112.784C69.1177 120.234 60.0281 141.397 67.4834 160.052C74.9387 178.707 96.1158 187.791 114.784 180.34Z" fill="#86BBF9"/>
<path d="M131.543 151.585C134.293 134.892 122.981 119.131 106.277 116.383C89.5723 113.634 73.8009 124.938 71.0504 141.632C68.3 158.325 79.612 174.086 96.3166 176.834C113.021 179.583 128.793 168.278 131.543 151.585Z" fill="white"/>
<path d="M119.03 164.324C128.835 154.527 128.835 138.641 119.03 128.844C109.226 119.046 93.3301 119.046 83.5258 128.844C73.7214 138.641 73.7214 154.527 83.5257 164.324C93.3301 174.122 109.226 174.122 119.03 164.324Z" fill="#86BBF9"/>
<path d="M112.334 148.377C113.331 142.264 109.181 136.501 103.064 135.505C96.9471 134.508 91.18 138.655 90.1827 144.768C89.1854 150.881 93.3356 156.644 99.4524 157.64C105.569 158.637 111.336 154.49 112.334 148.377Z" fill="white"/>
<path d="M103.544 152.075C106.584 150.824 108.034 147.347 106.782 144.309C105.53 141.271 102.051 139.822 99.0107 141.073C95.9705 142.324 94.5207 145.801 95.7725 148.839C97.0244 151.877 100.504 153.326 103.544 152.075Z" fill="#86BBF9"/>
<path d="M56.3174 174.301L51 177.31L55.5488 178.721L60.8661 175.711L56.3174 174.301Z" fill="#9DF1D8"/>
<path d="M59.7404 180.333L54.416 183.343L55.548 178.72L60.8653 175.711L59.7404 180.333Z" fill="#9DF1D8"/>
<path d="M57.4698 177.639C56.9947 176.808 62.1304 173.002 70.1379 168.471C78.1454 163.939 89.8213 159.316 89.8213 159.316C89.8213 159.316 79.8573 166.955 71.8498 171.48C63.8423 176.005 57.952 178.463 57.4698 177.639Z" fill="#9DF1D8"/>
<path d="M55.5488 178.728C58.3438 176.989 61.1387 175.314 63.9896 173.652C66.8404 171.99 69.6773 170.37 72.5211 168.729C75.365 167.088 78.2438 165.517 81.1225 163.946C84.0013 162.375 86.8941 160.818 89.8218 159.316C87.0268 161.062 84.2319 162.731 81.3811 164.4C78.5302 166.069 75.6934 167.675 72.8495 169.288C70.0057 170.901 67.1269 172.5 64.2411 174.071C61.3553 175.642 58.4695 177.227 55.5488 178.728Z" fill="#86BBF9"/>
<path d="M75.7465 120.653L71.0859 116.701L71.3235 121.449L75.9841 125.409L75.7465 120.653Z" fill="#9DF1D8"/>
<path d="M71.2485 125.939L66.5879 121.987L71.3253 121.449L75.9859 125.408L71.2485 125.939Z" fill="#9DF1D8"/>
<path d="M73.0083 122.881C73.6231 122.183 78.9615 125.674 85.9768 131.617C92.9921 137.559 101.349 146.936 101.349 146.936C101.349 146.936 90.7422 140.219 83.7338 134.263C76.7255 128.307 72.3864 123.614 73.0083 122.881Z" fill="#9DF1D8"/>
<path d="M71.3223 121.457C73.9146 123.475 76.458 125.549 79.0084 127.63C81.5587 129.711 84.0462 131.819 86.5687 133.914C89.0911 136.009 91.5576 138.18 94.0242 140.345C96.4907 142.51 98.9503 144.681 101.361 146.909C98.7686 144.898 96.2252 142.824 93.6748 140.736C91.1244 138.648 88.6439 136.546 86.1215 134.452C83.599 132.357 81.1325 130.192 78.666 128.021C76.1994 125.849 73.7329 123.684 71.3223 121.457Z" fill="#86BBF9"/>
<path d="M391.087 110.486H158.562C151.354 110.486 145.51 116.326 145.51 123.53V256.975C145.51 264.178 151.354 270.018 158.562 270.018H391.087C398.296 270.018 404.14 264.178 404.14 256.975V123.53C404.14 116.326 398.296 110.486 391.087 110.486Z" fill="#86BBF9"/>
<path d="M159.269 267.225C156.363 267.225 153.576 266.072 151.521 264.018C149.467 261.965 148.312 259.18 148.312 256.276V123.753C148.312 120.975 149.417 118.311 151.382 116.347C153.348 114.383 156.014 113.279 158.794 113.279H390.871C393.651 113.279 396.317 114.383 398.283 116.347C400.248 118.311 401.352 120.975 401.352 123.753V256.276C401.352 259.18 400.198 261.965 398.143 264.018C396.089 266.072 393.302 267.225 390.396 267.225H159.269Z" fill="white"/>
<path d="M158.239 113.279H390.869C393.649 113.279 396.314 114.383 398.28 116.347C400.246 118.311 401.35 120.975 401.35 123.753V132.188H147.758V123.753C147.758 120.975 148.862 118.311 150.828 116.347C152.793 114.383 155.459 113.279 158.239 113.279Z" fill="#9DF1D8"/>
<path d="M162.013 125.15C163.349 125.15 164.431 124.069 164.431 122.734C164.431 121.4 163.349 120.318 162.013 120.318C160.678 120.318 159.596 121.4 159.596 122.734C159.596 124.069 160.678 125.15 162.013 125.15Z" fill="#D5ECF0"/>
<path d="M176.423 125.15C177.759 125.15 178.841 124.069 178.841 122.734C178.841 121.4 177.759 120.318 176.423 120.318C175.088 120.318 174.006 121.4 174.006 122.734C174.006 124.069 175.088 125.15 176.423 125.15Z" fill="#D5ECF0"/>
<path d="M193.238 122.734C193.238 123.212 193.096 123.679 192.83 124.077C192.565 124.474 192.187 124.784 191.745 124.966C191.303 125.149 190.817 125.197 190.348 125.104C189.879 125.011 189.449 124.781 189.11 124.443C188.772 124.105 188.542 123.674 188.449 123.206C188.356 122.737 188.403 122.251 188.586 121.81C188.769 121.368 189.079 120.991 189.477 120.726C189.874 120.46 190.342 120.318 190.82 120.318C191.461 120.318 192.076 120.573 192.529 121.026C192.983 121.479 193.238 122.094 193.238 122.734Z" fill="#D5ECF0"/>
<path d="M161.379 241.885H305.668" stroke="#86BBF9" stroke-width="3" stroke-linecap="round" stroke-linejoin="round"/>
<path d="M161.379 250.201H274.092" stroke="#86BBF9" stroke-width="3" stroke-linecap="round" stroke-linejoin="round"/>
<path d="M161.379 258.518H231.56" stroke="#86BBF9" stroke-width="3" stroke-linecap="round" stroke-linejoin="round"/>
<path d="M325.955 241.885H339.294" stroke="#86BBF9" stroke-width="3" stroke-linecap="round" stroke-linejoin="round"/>
<path d="M325.955 250.201H339.294" stroke="#86BBF9" stroke-width="3" stroke-linecap="round" stroke-linejoin="round"/>
<path d="M325.955 258.518H339.294" stroke="#86BBF9" stroke-width="3" stroke-linecap="round" stroke-linejoin="round"/>
<path d="M350.439 241.885H363.778" stroke="#86BBF9" stroke-width="3" stroke-linecap="round" stroke-linejoin="round"/>
<path d="M350.439 250.201H363.778" stroke="#86BBF9" stroke-width="3" stroke-linecap="round" stroke-linejoin="round"/>
<path d="M350.439 258.518H363.778" stroke="#86BBF9" stroke-width="3" stroke-linecap="round" stroke-linejoin="round"/>
<path d="M374.93 241.885H388.269" stroke="#86BBF9" stroke-width="3" stroke-linecap="round" stroke-linejoin="round"/>
<path d="M374.93 250.201H388.269" stroke="#86BBF9" stroke-width="3" stroke-linecap="round" stroke-linejoin="round"/>
<path d="M374.93 258.518H388.269" stroke="#86BBF9" stroke-width="3" stroke-linecap="round" stroke-linejoin="round"/>
<path d="M387.291 136.846V168.854" stroke="#86BBF9" stroke-width="0.79" stroke-miterlimit="10"/>
<path d="M387.291 146.781V161.347" stroke="#86BBF9" stroke-width="6.32" stroke-miterlimit="10"/>
<path d="M380.182 142.264V174.272" stroke="#86BBF9" stroke-width="0.79" stroke-miterlimit="10"/>
<path d="M380.182 157.158V166.766" stroke="#86BBF9" stroke-width="6.32" stroke-miterlimit="10"/>
<path d="M373.066 145.078V177.086" stroke="#86BBF9" stroke-width="0.79" stroke-miterlimit="10"/>
<path d="M373.066 161.391V176.41" stroke="#86BBF9" stroke-width="6.32" stroke-miterlimit="10"/>
<path d="M365.947 143.494V175.509" stroke="#86BBF9" stroke-width="0.79" stroke-miterlimit="10"/>
<path d="M365.947 148.172V167.996" stroke="#86BBF9" stroke-width="6.32" stroke-miterlimit="10"/>
<path d="M358.836 154.449V178.455" stroke="#86BBF9" stroke-width="0.79" stroke-miterlimit="10"/>
<path d="M358.836 160.643V171.235" stroke="#86BBF9" stroke-width="6.32" stroke-miterlimit="10"/>
<path d="M351.719 157.898V186.457" stroke="#86BBF9" stroke-width="0.79" stroke-miterlimit="10"/>
<path d="M351.719 165.404V182.393" stroke="#86BBF9" stroke-width="6.32" stroke-miterlimit="10"/>
<path d="M344.598 152.85V177.715" stroke="#86BBF9" stroke-width="0.79" stroke-miterlimit="10"/>
<path d="M344.598 158.674V172.793" stroke="#86BBF9" stroke-width="6.32" stroke-miterlimit="10"/>
<path d="M337.488 142.879V172.667" stroke="#86BBF9" stroke-width="0.79" stroke-miterlimit="10"/>
<path d="M337.488 148.66V167.374" stroke="#86BBF9" stroke-width="6.32" stroke-miterlimit="10"/>
<path d="M330.373 156.971V180.607" stroke="#86BBF9" stroke-width="0.79" stroke-miterlimit="10"/>
<path d="M330.373 162.633V174.077" stroke="#86BBF9" stroke-width="6.32" stroke-miterlimit="10"/>
<path d="M323.254 166.641V190.402" stroke="#86BBF9" stroke-width="0.79" stroke-miterlimit="10"/>
<path d="M323.254 174.154V182.89" stroke="#86BBF9" stroke-width="6.32" stroke-miterlimit="10"/>
<path d="M316.141 160.488V184.739" stroke="#86BBF9" stroke-width="0.79" stroke-miterlimit="10"/>
<path d="M316.141 167.996V177.15" stroke="#86BBF9" stroke-width="6.32" stroke-miterlimit="10"/>
<path d="M309.025 166.641V196.065" stroke="#86BBF9" stroke-width="0.79" stroke-miterlimit="10"/>
<path d="M309.025 174.154V191.143" stroke="#86BBF9" stroke-width="6.32" stroke-miterlimit="10"/>
<path d="M301.906 166.641V187.016" stroke="#86BBF9" stroke-width="0.79" stroke-miterlimit="10"/>
<path d="M301.906 174.154V182.443" stroke="#86BBF9" stroke-width="6.32" stroke-miterlimit="10"/>
<path d="M294.791 163.443V184.74" stroke="#86BBF9" stroke-width="0.79" stroke-miterlimit="10"/>
<path d="M294.791 170.949V177.15" stroke="#86BBF9" stroke-width="6.32" stroke-miterlimit="10"/>
<path d="M287.682 166.641V207.391" stroke="#86BBF9" stroke-width="0.79" stroke-miterlimit="10"/>
<path d="M287.682 174.154V202.958" stroke="#86BBF9" stroke-width="6.32" stroke-miterlimit="10"/>
<path d="M280.562 178.092V210.1" stroke="#86BBF9" stroke-width="0.79" stroke-miterlimit="10"/>
<path d="M280.562 185.6V202.595" stroke="#86BBF9" stroke-width="6.32" stroke-miterlimit="10"/>
<path d="M273.447 179.447V215.89" stroke="#86BBF9" stroke-width="0.79" stroke-miterlimit="10"/>
<path d="M273.447 186.338V208.375" stroke="#86BBF9" stroke-width="6.32" stroke-miterlimit="10"/>
<path d="M266.328 200.373V229.924" stroke="#86BBF9" stroke-width="0.79" stroke-miterlimit="10"/>
<path d="M266.328 205.422V222.411" stroke="#86BBF9" stroke-width="6.32" stroke-miterlimit="10"/>
<path d="M259.213 171.906V203.915" stroke="#86BBF9" stroke-width="0.79" stroke-miterlimit="10"/>
<path d="M259.213 179.412V200.346" stroke="#86BBF9" stroke-width="6.32" stroke-miterlimit="10"/>
<path d="M252.104 174.523V206.532" stroke="#86BBF9" stroke-width="0.79" stroke-miterlimit="10"/>
<path d="M252.104 186.584V199.02" stroke="#86BBF9" stroke-width="6.32" stroke-miterlimit="10"/>
<path d="M244.982 186.584V218.599" stroke="#86BBF9" stroke-width="0.79" stroke-miterlimit="10"/>
<path d="M244.982 200.256V211.086" stroke="#86BBF9" stroke-width="6.32" stroke-miterlimit="10"/>
<path d="M237.865 194.098V226.106" stroke="#86BBF9" stroke-width="0.79" stroke-miterlimit="10"/>
<path d="M237.865 210.102V218.599" stroke="#86BBF9" stroke-width="6.32" stroke-miterlimit="10"/>
<path d="M230.754 189.662V221.67" stroke="#86BBF9" stroke-width="0.79" stroke-miterlimit="10"/>
<path d="M230.754 203.824V214.165" stroke="#86BBF9" stroke-width="6.32" stroke-miterlimit="10"/>
<path d="M223.635 186.584V218.599" stroke="#86BBF9" stroke-width="0.79" stroke-miterlimit="10"/>
<path d="M223.635 198.16V211.085" stroke="#86BBF9" stroke-width="6.32" stroke-miterlimit="10"/>
<path d="M216.521 194.473V226.481" stroke="#86BBF9" stroke-width="0.79" stroke-miterlimit="10"/>
<path d="M216.521 199.033V218.976" stroke="#86BBF9" stroke-width="6.32" stroke-miterlimit="10"/>
<path d="M209.408 181.158V213.174" stroke="#86BBF9" stroke-width="0.79" stroke-miterlimit="10"/>
<path d="M209.408 188.672V208" stroke="#86BBF9" stroke-width="6.32" stroke-miterlimit="10"/>
<path d="M202.287 167.988V200.004" stroke="#86BBF9" stroke-width="0.79" stroke-miterlimit="10"/>
<path d="M202.287 175.502V195.074" stroke="#86BBF9" stroke-width="6.32" stroke-miterlimit="10"/>
<path d="M195.174 173.406V205.422" stroke="#86BBF9" stroke-width="0.79" stroke-miterlimit="10"/>
<path d="M195.174 178.826V197.91" stroke="#86BBF9" stroke-width="6.32" stroke-miterlimit="10"/>
<path d="M188.061 166.768V198.776" stroke="#86BBF9" stroke-width="0.79" stroke-miterlimit="10"/>
<path d="M188.061 174.273V179.566" stroke="#86BBF9" stroke-width="6.32" stroke-miterlimit="10"/>
<path d="M180.941 159.498V191.513" stroke="#86BBF9" stroke-width="0.79" stroke-miterlimit="10"/>
<path d="M180.941 167.012V175.51" stroke="#86BBF9" stroke-width="6.32" stroke-miterlimit="10"/>
<path d="M173.83 174.951V212.937" stroke="#86BBF9" stroke-width="0.79" stroke-miterlimit="10"/>
<path d="M173.83 178.889V205.423" stroke="#86BBF9" stroke-width="6.32" stroke-miterlimit="10"/>
<path d="M166.717 196.68V228.695" stroke="#86BBF9" stroke-width="0.79" stroke-miterlimit="10"/>
<path d="M166.717 188.559V202.964" stroke="#86BBF9" stroke-width="6.32" stroke-miterlimit="10"/>
<path d="M159.596 194.467V226.482" stroke="#86BBF9" stroke-width="0.79" stroke-miterlimit="10"/>
<path d="M159.596 200.256V218.969" stroke="#86BBF9" stroke-width="6.32" stroke-miterlimit="10"/>
<path d="M463.919 212.293L454.465 226.817H437.129C437.305 223.772 438.257 220.823 439.893 218.248C441.529 215.673 443.796 213.558 446.479 212.104C449.161 210.649 452.171 209.903 455.223 209.937C458.275 209.97 461.268 210.781 463.919 212.293Z" fill="#D5ECF0"/>
<path d="M473 227.857C472.997 231.125 472.092 234.328 470.386 237.116L456.475 227.557L465.677 213.41C467.949 215.073 469.796 217.247 471.069 219.758C472.341 222.268 473.003 225.043 473 227.857Z" fill="#86BBF9"/>
<path d="M469.194 238.869C466.954 241.747 463.889 243.875 460.409 244.967C456.928 246.059 453.196 246.065 449.712 244.983C446.228 243.901 443.157 241.783 440.909 238.912C438.66 236.04 437.342 232.552 437.129 228.912H454.716L469.194 238.869Z" fill="#9DF1D8"/>
<path d="M422.619 185.551H382.057C380.745 185.551 379.682 186.614 379.682 187.925V215.709C379.682 217.02 380.745 218.083 382.057 218.083H422.619C423.931 218.083 424.995 217.02 424.995 215.709V187.925C424.995 186.614 423.931 185.551 422.619 185.551Z" fill="white" stroke="#86BBF9" stroke-width="2.73" stroke-miterlimit="10"/>
<path d="M382.982 213.997C386.211 213.997 386.211 209.591 389.439 209.591C392.667 209.591 392.66 201.82 395.888 201.82C399.116 201.82 398.222 206.882 401.478 206.882C404.734 206.882 405.594 193.615 408.822 193.615C412.05 193.615 412.05 199.446 415.278 199.446C418.506 199.446 418.506 193.615 421.727 193.615" stroke="#86BBF9" stroke-width="2" stroke-linecap="round" stroke-linejoin="round"/>
<path d="M444.483 156.306H441.737C441.498 156.307 441.264 156.233 441.07 156.094C440.875 155.955 440.73 155.758 440.654 155.531C440.482 154.992 440.265 154.469 440.004 153.967C439.896 153.752 439.859 153.509 439.898 153.272C439.937 153.034 440.05 152.816 440.221 152.647L442.156 150.706C442.264 150.599 442.349 150.472 442.408 150.333C442.466 150.193 442.496 150.043 442.496 149.892C442.496 149.741 442.466 149.591 442.408 149.451C442.349 149.312 442.264 149.185 442.156 149.079L440.207 147.131C439.991 146.915 439.698 146.794 439.393 146.794C439.088 146.794 438.795 146.915 438.579 147.131L436.664 149.072C436.495 149.241 436.276 149.354 436.039 149.393C435.802 149.431 435.559 149.395 435.344 149.288C434.84 149.03 434.317 148.813 433.779 148.639C433.55 148.562 433.352 148.416 433.211 148.221C433.071 148.025 432.995 147.79 432.996 147.549V144.812C432.997 144.661 432.968 144.512 432.911 144.372C432.854 144.232 432.769 144.105 432.663 143.998C432.556 143.891 432.43 143.806 432.29 143.748C432.151 143.69 432.001 143.66 431.85 143.66H429.055C428.749 143.66 428.456 143.782 428.24 143.998C428.024 144.214 427.902 144.507 427.902 144.812V147.549C427.904 147.79 427.831 148.024 427.691 148.22C427.552 148.416 427.354 148.562 427.127 148.639C426.587 148.81 426.064 149.028 425.561 149.288C425.347 149.396 425.103 149.433 424.866 149.394C424.629 149.355 424.41 149.242 424.241 149.072L422.298 147.131C422.082 146.915 421.789 146.794 421.484 146.794C421.179 146.794 420.886 146.915 420.67 147.131L418.721 149.079C418.505 149.295 418.384 149.587 418.384 149.892C418.384 150.197 418.505 150.49 418.721 150.706L420.663 152.647C420.834 152.816 420.947 153.034 420.986 153.272C421.025 153.509 420.988 153.752 420.88 153.967C420.619 154.469 420.402 154.992 420.23 155.531C420.155 155.758 420.009 155.955 419.815 156.094C419.62 156.233 419.386 156.307 419.147 156.306H416.401C416.095 156.306 415.802 156.427 415.586 156.643C415.37 156.859 415.248 157.152 415.248 157.458V160.216C415.248 160.367 415.278 160.516 415.336 160.656C415.394 160.795 415.479 160.922 415.586 161.028C415.693 161.135 415.82 161.219 415.96 161.276C416.1 161.333 416.25 161.362 416.401 161.361H419.196C419.436 161.361 419.67 161.436 419.864 161.577C420.059 161.717 420.204 161.915 420.279 162.143C420.453 162.681 420.671 163.204 420.929 163.707C421.037 163.922 421.074 164.165 421.035 164.402C420.996 164.639 420.883 164.858 420.712 165.027L418.77 166.961C418.554 167.177 418.433 167.47 418.433 167.775C418.433 168.08 418.554 168.372 418.77 168.588L420.719 170.536C420.826 170.644 420.953 170.729 421.092 170.787C421.232 170.845 421.382 170.875 421.533 170.875C421.685 170.875 421.834 170.845 421.974 170.787C422.114 170.729 422.241 170.644 422.347 170.536L424.29 168.602C424.459 168.431 424.678 168.318 424.915 168.28C425.152 168.241 425.396 168.278 425.61 168.386C426.113 168.646 426.636 168.863 427.176 169.035C427.403 169.11 427.6 169.256 427.74 169.45C427.879 169.645 427.953 169.878 427.951 170.117V172.875C427.951 173.026 427.981 173.176 428.039 173.315C428.097 173.455 428.182 173.581 428.289 173.688C428.396 173.794 428.524 173.878 428.663 173.935C428.803 173.993 428.953 174.022 429.104 174.021H431.899C432.05 174.022 432.199 173.993 432.339 173.935C432.478 173.878 432.605 173.794 432.711 173.687C432.818 173.581 432.902 173.454 432.96 173.315C433.017 173.175 433.046 173.026 433.045 172.875V170.131C433.044 169.891 433.119 169.657 433.259 169.462C433.4 169.268 433.599 169.123 433.828 169.049C434.366 168.875 434.889 168.658 435.393 168.4C435.607 168.292 435.851 168.255 436.088 168.294C436.325 168.332 436.544 168.445 436.713 168.616L438.649 170.55C438.755 170.658 438.882 170.743 439.022 170.801C439.162 170.859 439.311 170.889 439.463 170.889C439.614 170.889 439.764 170.859 439.904 170.801C440.044 170.743 440.17 170.658 440.277 170.55L442.226 168.602C442.334 168.496 442.419 168.369 442.477 168.229C442.536 168.09 442.566 167.94 442.566 167.789C442.566 167.637 442.536 167.488 442.477 167.348C442.419 167.208 442.334 167.082 442.226 166.975L440.291 165.041C440.12 164.872 440.007 164.653 439.968 164.416C439.929 164.179 439.966 163.936 440.074 163.721C440.332 163.218 440.55 162.695 440.724 162.157C440.798 161.929 440.943 161.73 441.138 161.589C441.332 161.449 441.567 161.374 441.807 161.375H444.553C444.704 161.376 444.853 161.347 444.993 161.29C445.132 161.233 445.259 161.148 445.365 161.042C445.472 160.935 445.556 160.809 445.614 160.669C445.671 160.53 445.7 160.381 445.699 160.23V157.472C445.702 157.314 445.673 157.156 445.612 157.01C445.551 156.864 445.461 156.732 445.347 156.622C445.233 156.513 445.097 156.428 444.948 156.374C444.8 156.319 444.641 156.296 444.483 156.306ZM430.446 164.559C429.312 164.559 428.205 164.223 427.262 163.594C426.32 162.965 425.586 162.071 425.152 161.025C424.718 159.978 424.605 158.827 424.826 157.716C425.047 156.606 425.593 155.585 426.394 154.785C427.195 153.984 428.216 153.439 429.328 153.218C430.439 152.997 431.591 153.11 432.638 153.543C433.685 153.977 434.58 154.711 435.21 155.652C435.839 156.594 436.175 157.701 436.175 158.833C436.175 160.352 435.572 161.808 434.497 162.882C433.423 163.956 431.965 164.559 430.446 164.559Z" fill="#86BBF9"/>
<path d="M464.026 168.765H462.3C462.146 168.772 461.994 168.727 461.867 168.639C461.741 168.551 461.647 168.423 461.601 168.276C461.492 167.937 461.357 167.608 461.196 167.291C461.125 167.157 461.099 167.003 461.123 166.854C461.147 166.704 461.219 166.566 461.329 166.46L462.551 165.238C462.621 165.173 462.677 165.094 462.715 165.006C462.753 164.919 462.773 164.824 462.773 164.729C462.773 164.633 462.753 164.538 462.715 164.451C462.677 164.363 462.621 164.284 462.551 164.219L461.322 162.99C461.256 162.919 461.177 162.863 461.088 162.824C461 162.785 460.905 162.765 460.808 162.765C460.712 162.765 460.616 162.785 460.528 162.824C460.439 162.863 460.36 162.919 460.294 162.99L459.079 164.212C458.973 164.321 458.835 164.394 458.685 164.417C458.535 164.441 458.381 164.416 458.247 164.345C457.931 164.182 457.601 164.047 457.262 163.94C457.113 163.895 456.984 163.802 456.894 163.675C456.804 163.549 456.759 163.396 456.766 163.241V161.517C456.766 161.331 456.692 161.154 456.561 161.023C456.43 160.892 456.252 160.818 456.067 160.818H454.327C454.142 160.818 453.964 160.892 453.833 161.023C453.702 161.154 453.629 161.331 453.629 161.517V163.241C453.636 163.395 453.591 163.547 453.503 163.674C453.414 163.8 453.287 163.893 453.139 163.94C452.8 164.046 452.47 164.181 452.154 164.345C452.02 164.416 451.866 164.441 451.716 164.417C451.566 164.394 451.428 164.321 451.323 164.212L450.107 162.99C450.041 162.919 449.962 162.863 449.874 162.824C449.785 162.785 449.69 162.765 449.593 162.765C449.497 162.765 449.401 162.785 449.313 162.824C449.225 162.863 449.145 162.919 449.08 162.99L447.843 164.219C447.773 164.284 447.718 164.363 447.679 164.451C447.641 164.538 447.622 164.633 447.622 164.729C447.622 164.824 447.641 164.919 447.679 165.006C447.718 165.094 447.773 165.173 447.843 165.238L449.066 166.46C449.175 166.566 449.248 166.704 449.271 166.854C449.295 167.003 449.27 167.157 449.199 167.291C449.038 167.608 448.902 167.937 448.793 168.276C448.747 168.423 448.654 168.551 448.527 168.639C448.401 168.727 448.249 168.772 448.095 168.765H446.369C446.183 168.765 446.006 168.838 445.875 168.969C445.744 169.1 445.67 169.278 445.67 169.463V171.195C445.67 171.38 445.744 171.557 445.875 171.688C446.006 171.819 446.183 171.893 446.369 171.893H448.095C448.249 171.886 448.401 171.93 448.527 172.018C448.654 172.107 448.747 172.234 448.793 172.382C448.902 172.72 449.038 173.049 449.199 173.366C449.27 173.5 449.295 173.654 449.271 173.804C449.248 173.954 449.175 174.092 449.066 174.197L447.843 175.475C447.709 175.612 447.633 175.796 447.633 175.988C447.633 176.18 447.709 176.364 447.843 176.501L449.073 177.723C449.138 177.794 449.218 177.851 449.306 177.889C449.394 177.928 449.49 177.948 449.586 177.948C449.683 177.948 449.778 177.928 449.867 177.889C449.955 177.851 450.034 177.794 450.1 177.723L451.316 176.508C451.42 176.398 451.558 176.324 451.708 176.299C451.858 176.274 452.012 176.298 452.147 176.369C452.464 176.532 452.794 176.669 453.132 176.781C453.28 176.827 453.407 176.92 453.496 177.047C453.584 177.173 453.629 177.325 453.622 177.479V179.162C453.622 179.347 453.695 179.524 453.826 179.655C453.957 179.786 454.135 179.86 454.32 179.86H456.06C456.245 179.86 456.423 179.786 456.554 179.655C456.685 179.524 456.759 179.347 456.759 179.162V177.437C456.752 177.282 456.797 177.129 456.887 177.003C456.977 176.876 457.106 176.784 457.255 176.739C457.593 176.626 457.923 176.488 458.24 176.327C458.375 176.256 458.529 176.232 458.679 176.257C458.829 176.282 458.967 176.356 459.072 176.466L460.287 177.681C460.353 177.752 460.432 177.809 460.521 177.847C460.609 177.886 460.705 177.906 460.801 177.906C460.898 177.906 460.993 177.886 461.081 177.847C461.17 177.809 461.249 177.752 461.315 177.681L462.544 176.459C462.679 176.322 462.754 176.138 462.754 175.946C462.754 175.754 462.679 175.57 462.544 175.433L461.343 174.274C461.233 174.169 461.161 174.031 461.137 173.881C461.113 173.731 461.139 173.577 461.21 173.443C461.371 173.126 461.506 172.797 461.615 172.458C461.661 172.311 461.755 172.184 461.881 172.095C462.008 172.007 462.16 171.963 462.314 171.97H464.04C464.225 171.97 464.403 171.896 464.534 171.765C464.665 171.634 464.738 171.457 464.738 171.271V169.54C464.749 169.441 464.739 169.34 464.708 169.245C464.677 169.151 464.626 169.064 464.558 168.99C464.491 168.917 464.408 168.859 464.317 168.82C464.225 168.781 464.125 168.762 464.026 168.765ZM455.187 173.96C454.474 173.958 453.778 173.746 453.186 173.349C452.594 172.952 452.132 172.389 451.861 171.731C451.589 171.072 451.518 170.348 451.658 169.649C451.798 168.951 452.142 168.31 452.647 167.806C453.151 167.303 453.794 166.961 454.493 166.822C455.192 166.684 455.917 166.756 456.575 167.029C457.233 167.301 457.796 167.763 458.192 168.356C458.588 168.948 458.799 169.644 458.799 170.357C458.799 170.83 458.706 171.299 458.524 171.737C458.342 172.175 458.076 172.572 457.741 172.907C457.405 173.241 457.007 173.507 456.569 173.687C456.13 173.868 455.661 173.961 455.187 173.96Z" fill="#86BBF9"/>
<path d="M447.295 138.076H446.226C446.133 138.077 446.042 138.049 445.967 137.995C445.891 137.941 445.835 137.864 445.807 137.776C445.737 137.567 445.653 137.364 445.555 137.168C445.513 137.084 445.498 136.989 445.514 136.896C445.529 136.804 445.572 136.718 445.639 136.651L446.394 135.897C446.435 135.856 446.469 135.807 446.491 135.754C446.514 135.7 446.526 135.642 446.526 135.583C446.526 135.525 446.514 135.467 446.491 135.413C446.469 135.359 446.435 135.31 446.394 135.269L445.632 134.508C445.591 134.466 445.542 134.433 445.488 134.41C445.434 134.387 445.376 134.376 445.318 134.376C445.259 134.376 445.201 134.387 445.147 134.41C445.093 134.433 445.044 134.466 445.003 134.508L444.249 135.262C444.182 135.328 444.096 135.372 444.004 135.387C443.911 135.402 443.816 135.388 443.731 135.346C443.536 135.246 443.332 135.162 443.124 135.094C443.035 135.066 442.958 135.01 442.904 134.934C442.85 134.859 442.822 134.768 442.823 134.675V133.607C442.823 133.489 442.776 133.375 442.692 133.291C442.608 133.207 442.495 133.16 442.376 133.16H441.3C441.181 133.16 441.068 133.207 440.984 133.291C440.9 133.375 440.853 133.489 440.853 133.607V134.675C440.854 134.768 440.826 134.859 440.772 134.934C440.718 135.01 440.641 135.066 440.552 135.094C440.344 135.164 440.141 135.248 439.944 135.346C439.86 135.388 439.765 135.402 439.672 135.387C439.579 135.372 439.494 135.328 439.427 135.262L438.673 134.508C438.632 134.466 438.583 134.433 438.529 134.41C438.475 134.387 438.417 134.376 438.358 134.376C438.3 134.376 438.242 134.387 438.188 134.41C438.134 134.433 438.085 134.466 438.044 134.508L437.282 135.269C437.24 135.31 437.207 135.359 437.184 135.413C437.162 135.467 437.15 135.525 437.15 135.583C437.15 135.642 437.162 135.7 437.184 135.754C437.207 135.807 437.24 135.856 437.282 135.897L438.037 136.651C438.105 136.717 438.151 136.802 438.166 136.896C438.181 136.989 438.165 137.085 438.121 137.168C438.022 137.364 437.938 137.567 437.869 137.776C437.841 137.864 437.785 137.941 437.709 137.995C437.634 138.049 437.543 138.077 437.45 138.076H436.381C436.262 138.076 436.148 138.123 436.065 138.207C435.981 138.291 435.934 138.404 435.934 138.523V139.598C435.934 139.717 435.981 139.83 436.065 139.914C436.148 139.998 436.262 140.045 436.381 140.045H437.45C437.543 140.044 437.634 140.072 437.709 140.126C437.785 140.18 437.841 140.257 437.869 140.345C437.938 140.553 438.022 140.756 438.121 140.953C438.165 141.036 438.181 141.132 438.166 141.225C438.151 141.319 438.105 141.404 438.037 141.469L437.282 142.224C437.24 142.265 437.207 142.313 437.184 142.367C437.162 142.421 437.15 142.479 437.15 142.538C437.15 142.596 437.162 142.654 437.184 142.708C437.207 142.762 437.24 142.811 437.282 142.852L438.044 143.613C438.085 143.655 438.134 143.688 438.188 143.711C438.242 143.734 438.3 143.745 438.358 143.745C438.417 143.745 438.475 143.734 438.529 143.711C438.583 143.688 438.632 143.655 438.673 143.613L439.462 142.852C439.529 142.786 439.614 142.742 439.707 142.727C439.8 142.712 439.895 142.726 439.979 142.768C440.176 142.866 440.379 142.95 440.587 143.02C440.676 143.048 440.752 143.104 440.807 143.18C440.861 143.255 440.889 143.346 440.888 143.439V144.507C440.888 144.625 440.935 144.739 441.019 144.823C441.102 144.907 441.216 144.954 441.335 144.954H442.411C442.529 144.954 442.643 144.907 442.727 144.823C442.811 144.739 442.858 144.625 442.858 144.507V143.439C442.857 143.346 442.885 143.255 442.939 143.18C442.993 143.104 443.07 143.048 443.159 143.02C443.367 142.952 443.571 142.868 443.766 142.768C443.85 142.726 443.946 142.712 444.039 142.727C444.131 142.742 444.217 142.786 444.284 142.852L445.038 143.606C445.079 143.648 445.128 143.681 445.182 143.704C445.236 143.727 445.294 143.738 445.353 143.738C445.411 143.738 445.469 143.727 445.523 143.704C445.577 143.681 445.626 143.648 445.667 143.606L446.429 142.845C446.47 142.804 446.504 142.755 446.526 142.701C446.549 142.647 446.561 142.589 446.561 142.531C446.561 142.472 446.549 142.414 446.526 142.36C446.504 142.306 446.47 142.258 446.429 142.217L445.639 141.456C445.572 141.389 445.529 141.303 445.514 141.211C445.498 141.118 445.513 141.023 445.555 140.939C445.653 140.743 445.737 140.54 445.807 140.331C445.835 140.243 445.891 140.166 445.967 140.112C446.042 140.058 446.133 140.03 446.226 140.031H447.295C447.414 140.031 447.527 139.984 447.611 139.9C447.695 139.816 447.742 139.703 447.742 139.584V138.523C447.742 138.404 447.695 138.291 447.611 138.207C447.527 138.123 447.414 138.076 447.295 138.076ZM441.838 141.288C441.397 141.288 440.966 141.157 440.6 140.913C440.233 140.668 439.947 140.32 439.779 139.913C439.61 139.506 439.566 139.058 439.652 138.626C439.738 138.194 439.95 137.797 440.262 137.485C440.574 137.174 440.971 136.962 441.403 136.876C441.835 136.79 442.284 136.834 442.691 137.003C443.098 137.171 443.446 137.457 443.691 137.823C443.936 138.189 444.067 138.62 444.067 139.06C444.067 139.651 443.832 140.218 443.414 140.636C442.996 141.053 442.429 141.288 441.838 141.288Z" fill="#86BBF9"/>
<path d="M344.276 83.709H331.168V103.882H344.276V83.709Z" fill="#86BBF9"/>
<path d="M337.724 71L325.775 85.859H349.679L337.724 71Z" fill="#86BBF9"/>
<path d="M240.218 139.207H227.109V159.38H240.218V139.207Z" fill="#86BBF9"/>
<path d="M233.661 172.088L245.617 157.229H221.713L233.661 172.088Z" fill="#86BBF9"/>
<path d="M435.782 102.753C436.893 95.9121 432.245 89.4667 425.4 88.3564C418.555 87.246 412.105 91.8912 410.994 98.7316C409.883 105.572 414.531 112.017 421.376 113.128C428.221 114.238 434.671 109.593 435.782 102.753Z" stroke="#9DF1D8" stroke-width="8.58" stroke-miterlimit="10"/>
<path d="M417.099 111.597C415.187 110.499 413.599 108.916 412.495 107.009C411.391 105.101 410.81 102.936 410.811 100.732" stroke="#86BBF9" stroke-width="8.58" stroke-miterlimit="10"/>
<path d="M410.811 100.733C410.811 97.3994 412.136 94.2024 414.494 91.8454C416.853 89.4883 420.052 88.1641 423.388 88.1641" stroke="#D5ECF0" stroke-width="8.58" stroke-miterlimit="10"/>
<path d="M151.484 90.998H143.343C142.456 90.998 141.736 91.7171 141.736 92.604V100.739C141.736 101.626 142.456 102.345 143.343 102.345H151.484C152.371 102.345 153.091 101.626 153.091 100.739V92.604C153.091 91.7171 152.371 90.998 151.484 90.998Z" fill="#86BBF9"/>
<path d="M144.705 97.2619L145.991 98.7003L150.127 94.6504" stroke="white" stroke-width="2.22" stroke-linecap="round" stroke-linejoin="round"/>
<path d="M451.775 261.652H443.634C442.747 261.652 442.027 262.371 442.027 263.258V271.393C442.027 272.28 442.747 272.999 443.634 272.999H451.775C452.662 272.999 453.382 272.28 453.382 271.393V263.258C453.382 262.371 452.662 261.652 451.775 261.652Z" fill="#86BBF9"/>
<path d="M444.986 267.91L446.279 269.349L450.415 265.299" stroke="white" stroke-width="2.22" stroke-linecap="round" stroke-linejoin="round"/>
<path d="M100.866 194.885H88.7217C87.4019 194.885 86.332 195.954 86.332 197.273V209.409C86.332 210.728 87.4019 211.797 88.7217 211.797H100.866C102.185 211.797 103.255 210.728 103.255 209.409V197.273C103.255 195.954 102.185 194.885 100.866 194.885Z" fill="#86BBF9"/>
<path d="M90.748 204.221L92.6766 206.357L98.8394 200.324" stroke="white" stroke-width="3.31" stroke-linecap="round" stroke-linejoin="round"/>
<path d="M214.286 101.248H209.779V106.038H214.286V101.248Z" fill="#86BBF9"/>
<path d="M220.741 98.3574H216.234V106.038H220.741V98.3574Z" fill="#86BBF9"/>
<path d="M227.206 94.6855H222.699V106.039H227.206V94.6855Z" fill="#86BBF9"/>
<path d="M233.661 90.0215H229.154V106.04H233.661V90.0215Z" fill="#86BBF9"/>
<defs>
<filter id="filter0_dd_773_18721" x="0" y="0" width="524" height="348" filterUnits="userSpaceOnUse" color-interpolation-filters="sRGB">
<feFlood flood-opacity="0" result="BackgroundImageFix"/>
<feColorMatrix in="SourceAlpha" type="matrix" values="0 0 0 0 0 0 0 0 0 0 0 0 0 0 0 0 0 0 127 0" result="hardAlpha"/>
<feOffset dy="2"/>
<feGaussianBlur stdDeviation="5"/>
<feColorMatrix type="matrix" values="0 0 0 0 0 0 0 0 0 0 0 0 0 0 0 0 0 0 0.1 0"/>
<feBlend mode="normal" in2="BackgroundImageFix" result="effect1_dropShadow_773_18721"/>
<feColorMatrix in="SourceAlpha" type="matrix" values="0 0 0 0 0 0 0 0 0 0 0 0 0 0 0 0 0 0 127 0" result="hardAlpha"/>
<feOffset/>
<feGaussianBlur stdDeviation="1"/>
<feColorMatrix type="matrix" values="0 0 0 0 0 0 0 0 0 0 0 0 0 0 0 0 0 0 0.2 0"/>
<feBlend mode="normal" in2="effect1_dropShadow_773_18721" result="effect2_dropShadow_773_18721"/>
<feBlend mode="normal" in="SourceGraphic" in2="effect2_dropShadow_773_18721" result="shape"/>
</filter>
</defs>
</svg>
