<svg width="701" height="515" viewBox="0 0 701 515" fill="none" xmlns="http://www.w3.org/2000/svg">
<g filter="url(#filter0_dd_773_13342)">
<rect x="10" y="8" width="681" height="495" fill="white"/>
</g>
<path opacity="0.09" d="M593.869 69.7773H155.513C148.262 69.7773 142.383 75.6548 142.383 82.9051V454.871C142.383 462.122 148.262 467.999 155.513 467.999H593.869C601.121 467.999 607 462.122 607 454.871V82.9051C607 75.6548 601.121 69.7773 593.869 69.7773Z" fill="black"/>
<path d="M593.811 63.3398H150.834C143.55 63.3398 137.645 69.2433 137.645 76.5256V448.376C137.645 455.658 143.55 461.562 150.834 461.562H593.811C601.095 461.562 607 455.658 607 448.376V76.5256C607 69.2433 601.095 63.3398 593.811 63.3398Z" fill="white"/>
<path d="M606.981 190.035C606.981 190.035 533.863 218.92 497.411 276.632C471.189 318.181 450.284 337.573 414.741 337.051C379.197 336.529 353.826 337.244 334.971 353.929C316.117 370.614 305.249 417.055 266.804 407.233C230.894 398.069 172.937 372.161 137.626 387.145V446.094C137.626 450.197 139.256 454.131 142.157 457.031C145.058 459.932 148.993 461.562 153.096 461.562H606.981V190.035Z" fill="url(#paint0_linear_773_13342)"/>
<path d="M226.833 402.478V422.856C218.152 422.861 209.636 420.486 202.213 415.987C194.789 411.488 188.743 405.039 184.732 397.342C180.721 389.645 178.899 380.996 179.466 372.335C180.032 363.675 182.965 355.336 187.944 348.227L204.633 359.827C201.807 363.884 200.146 368.638 199.832 373.572C199.517 378.507 200.561 383.433 202.848 387.816C205.136 392.199 208.581 395.873 212.809 398.437C217.037 401.001 221.887 402.358 226.833 402.362V402.478Z" fill="#559FF6"/>
<path d="M274.114 371.484C274.238 372.769 274.296 374.06 274.288 375.351C274.288 387.935 269.288 400.003 260.388 408.9C251.489 417.798 239.418 422.797 226.832 422.797V402.477C234.012 402.477 240.899 399.625 245.976 394.549C251.053 389.473 253.905 382.588 253.905 375.409C253.906 374.66 253.867 373.911 253.789 373.166L274.114 371.484Z" fill="#3BE3B0"/>
<path d="M274.115 371.485L253.79 373.167C253.331 367.383 251.01 361.902 247.177 357.546L262.493 344.012C269.24 351.669 273.319 361.311 274.115 371.485V371.485Z" fill="#758FFF"/>
<path d="M226.833 327.945V348.343C222.472 348.346 218.176 349.402 214.311 351.421C210.445 353.441 207.125 356.365 204.633 359.943L187.944 348.343C192.295 342.054 198.106 336.913 204.879 333.361C211.652 329.808 219.185 327.95 226.833 327.945V327.945Z" fill="#86BBF9"/>
<path d="M262.491 344.089L247.176 357.623C244.634 354.731 241.505 352.414 237.997 350.827C234.489 349.24 230.683 348.419 226.832 348.42V327.945C233.583 327.942 240.257 329.381 246.407 332.165C252.556 334.949 258.04 339.015 262.491 344.089Z" fill="#B6D6FB"/>
<path d="M358.7 327.945V348.343C351.519 348.343 344.633 351.194 339.556 356.271C334.479 361.347 331.626 368.232 331.626 375.41C331.62 377.018 331.762 378.623 332.052 380.205L312.017 383.821C311.494 381.048 311.235 378.232 311.244 375.41C311.244 362.825 316.243 350.755 325.142 341.854C334.041 332.954 346.112 327.95 358.7 327.945V327.945Z" fill="#86BBF9"/>
<path d="M337.291 392.016L321.202 404.487C316.475 398.462 313.313 391.362 311.997 383.819L332.031 380.203C332.797 384.51 334.602 388.565 337.291 392.016V392.016Z" fill="#559FF6"/>
<path d="M381.654 389.717L398.962 400.486C394.921 406.977 389.37 412.395 382.782 416.279C376.194 420.162 368.765 422.395 361.128 422.788C353.49 423.182 345.871 421.723 338.919 418.536C331.968 415.35 325.89 410.53 321.203 404.488L337.292 392.018C339.969 395.461 343.438 398.208 347.404 400.023C351.371 401.838 355.717 402.668 360.074 402.442C364.43 402.216 368.667 400.941 372.425 398.725C376.182 396.51 379.348 393.419 381.654 389.717V389.717Z" fill="#3BE3B0"/>
<path d="M385.522 378.947L405.711 381.615C404.859 388.321 402.556 394.76 398.962 400.485L381.654 389.716C383.719 386.454 385.039 382.777 385.522 378.947V378.947Z" fill="#758FFF"/>
<path d="M406.136 375.41C406.141 377.486 405.999 379.56 405.71 381.616L385.521 378.948C385.687 377.776 385.764 376.594 385.754 375.41C385.754 368.231 382.901 361.347 377.824 356.271C372.747 351.194 365.86 348.343 358.68 348.343V327.945C364.914 327.945 371.086 329.173 376.845 331.559C382.604 333.944 387.836 337.441 392.243 341.849C396.65 346.256 400.145 351.489 402.529 357.248C404.913 363.006 406.138 369.178 406.136 375.41V375.41Z" fill="#B6D6FB"/>
<path d="M490.526 402.478V422.856C482.38 422.86 474.369 420.766 467.267 416.777C460.164 412.787 454.209 407.036 449.975 400.078C445.741 393.119 443.371 385.188 443.094 377.047C442.816 368.907 444.639 360.833 448.389 353.602L466.489 362.959C464.483 366.802 463.441 371.075 463.453 375.41C463.453 382.589 466.306 389.474 471.383 394.55C476.46 399.626 483.346 402.478 490.526 402.478Z" fill="#559FF6"/>
<path d="M517.155 380.436L537.17 384.206C535.123 395.076 529.342 404.89 520.825 411.951C512.308 419.012 501.591 422.875 490.527 422.874V402.476C496.839 402.482 502.955 400.283 507.818 396.258C512.68 392.234 515.983 386.637 517.155 380.436V380.436Z" fill="#3BE3B0"/>
<path d="M537.983 375.41C537.988 378.361 537.716 381.307 537.171 384.207L517.156 380.437C517.459 378.778 517.614 377.096 517.62 375.41C517.618 370.825 516.451 366.316 514.229 362.305C512.007 358.294 508.802 354.913 504.915 352.48L515.764 335.215C522.569 339.485 528.178 345.414 532.065 352.444C535.951 359.475 537.988 367.377 537.983 375.41V375.41Z" fill="#758FFF"/>
<path d="M490.527 327.945C499.425 327.953 508.139 330.473 515.667 335.215L504.818 352.48C500.511 349.766 495.522 348.331 490.431 348.343L490.527 327.945Z" fill="#B6D6FB"/>
<path d="M490.527 327.945V348.343C485.565 348.343 480.699 349.706 476.46 352.284C472.221 354.862 468.772 358.555 466.49 362.959L448.389 353.602C452.382 345.871 458.425 339.388 465.858 334.863C473.29 330.337 481.825 327.944 490.527 327.945Z" fill="#86BBF9"/>
<path opacity="0.15" d="M527.598 47.4277H115.735C106.316 47.4277 98.6792 55.0624 98.6792 64.4803V279.049C98.6792 288.467 106.316 296.101 115.735 296.101H527.598C537.018 296.101 544.654 288.467 544.654 279.049V64.4803C544.654 55.0624 537.018 47.4277 527.598 47.4277Z" fill="black"/>
<path d="M524.524 43.0195H109.49C100.945 43.0195 94.019 49.9444 94.019 58.4867V276.226C94.019 284.768 100.945 291.693 109.49 291.693H524.524C533.068 291.693 539.994 284.768 539.994 276.226V58.4867C539.994 49.9444 533.068 43.0195 524.524 43.0195Z" fill="#B6D6FB"/>
<path d="M125.83 77.9961V291.694" stroke="#F5F5F5" stroke-width="0.5" stroke-miterlimit="10"/>
<path d="M128.015 147.598H123.645V237.056H128.015V147.598Z" fill="#86BBF9"/>
<path d="M135.15 77.9961V291.694" stroke="#F5F5F5" stroke-width="0.5" stroke-miterlimit="10"/>
<path d="M137.336 129.654H132.965V175.321H137.336V129.654Z" fill="#86BBF9"/>
<path d="M144.472 77.9961V291.694" stroke="#F5F5F5" stroke-width="0.5" stroke-miterlimit="10"/>
<path d="M146.657 97.5801H142.287V187.038H146.657V97.5801Z" fill="#86BBF9"/>
<path d="M153.812 77.9961V291.694" stroke="#F5F5F5" stroke-width="0.5" stroke-miterlimit="10"/>
<path d="M155.997 124.088H151.627V213.546H155.997V124.088Z" fill="#86BBF9"/>
<path d="M163.134 77.9961V291.694" stroke="#F5F5F5" stroke-width="0.5" stroke-miterlimit="10"/>
<path d="M165.319 119.041H160.948V170.875H165.319V119.041Z" fill="#86BBF9"/>
<path d="M172.454 77.9961V291.694" stroke="#F5F5F5" stroke-width="0.5" stroke-miterlimit="10"/>
<path d="M174.639 132.924H170.269V180.253H174.639V132.924Z" fill="#86BBF9"/>
<path d="M181.775 77.9961V291.694" stroke="#F5F5F5" stroke-width="0.5" stroke-miterlimit="10"/>
<path d="M183.805 142.725H179.435V189.068H183.805V142.725Z" fill="#86BBF9"/>
<path d="M191.116 77.9961V291.694" stroke="#F5F5F5" stroke-width="0.5" stroke-miterlimit="10"/>
<path d="M193.301 175.902H188.93V237.036H193.301V175.902Z" fill="#86BBF9"/>
<path d="M200.437 77.9961V291.694" stroke="#F5F5F5" stroke-width="0.5" stroke-miterlimit="10"/>
<path d="M209.757 77.9961V291.694" stroke="#F5F5F5" stroke-width="0.5" stroke-miterlimit="10"/>
<path d="M211.942 192.316H207.572V237.036H211.942V192.316Z" fill="#86BBF9"/>
<path d="M219.078 77.9961V291.694" stroke="#F5F5F5" stroke-width="0.5" stroke-miterlimit="10"/>
<path d="M221.263 147.598H216.893V220.989H221.263V147.598Z" fill="#86BBF9"/>
<path d="M228.419 77.9961V291.694" stroke="#F5F5F5" stroke-width="0.5" stroke-miterlimit="10"/>
<path d="M230.604 117.029H226.233V192.316H230.604V117.029Z" fill="#86BBF9"/>
<path d="M237.74 77.9961V291.694" stroke="#F5F5F5" stroke-width="0.5" stroke-miterlimit="10"/>
<path d="M239.926 111.85H235.555V150.073H239.926V111.85Z" fill="#86BBF9"/>
<path d="M247.06 77.9961V291.694" stroke="#F5F5F5" stroke-width="0.5" stroke-miterlimit="10"/>
<path d="M249.245 122.889H244.875V177.778H249.245V122.889Z" fill="#86BBF9"/>
<path d="M256.381 77.9961V291.694" stroke="#F5F5F5" stroke-width="0.5" stroke-miterlimit="10"/>
<path d="M258.567 147.598H254.196V204.691H258.567V147.598Z" fill="#86BBF9"/>
<path d="M265.722 77.9961V291.694" stroke="#F5F5F5" stroke-width="0.5" stroke-miterlimit="10"/>
<path d="M267.888 130.971H263.518V189.069H267.888V130.971Z" fill="#86BBF9"/>
<path d="M275.043 77.9961V291.694" stroke="#F5F5F5" stroke-width="0.5" stroke-miterlimit="10"/>
<path d="M277.229 123.682H272.858V160.938H277.229V123.682Z" fill="#86BBF9"/>
<path d="M284.363 77.9961V291.694" stroke="#F5F5F5" stroke-width="0.5" stroke-miterlimit="10"/>
<path d="M286.549 130.584H282.178V209.409H286.549V130.584Z" fill="#86BBF9"/>
<path d="M293.685 77.9961V291.694" stroke="#F5F5F5" stroke-width="0.5" stroke-miterlimit="10"/>
<path d="M295.87 127.916H291.5V200.882H295.87V127.916Z" fill="#86BBF9"/>
<path d="M303.025 77.9961V291.694" stroke="#F5F5F5" stroke-width="0.5" stroke-miterlimit="10"/>
<path d="M305.191 115.291H300.821V135.456H305.191V115.291Z" fill="#86BBF9"/>
<path d="M312.346 77.9961V291.694" stroke="#F5F5F5" stroke-width="0.5" stroke-miterlimit="10"/>
<path d="M314.531 125.268H310.16V163.762H314.531V125.268Z" fill="#86BBF9"/>
<path d="M321.667 77.9961V291.694" stroke="#F5F5F5" stroke-width="0.5" stroke-miterlimit="10"/>
<path d="M323.852 132.518H319.481V162.698H323.852V132.518Z" fill="#86BBF9"/>
<path d="M330.988 77.9961V291.694" stroke="#F5F5F5" stroke-width="0.5" stroke-miterlimit="10"/>
<path d="M333.174 146.359H328.803V178.995H333.174V146.359Z" fill="#86BBF9"/>
<path d="M340.328 77.9961V291.694" stroke="#F5F5F5" stroke-width="0.5" stroke-miterlimit="10"/>
<path d="M342.494 144.33H338.124V184.835H342.494V144.33Z" fill="#86BBF9"/>
<path d="M349.65 77.9961V291.694" stroke="#F5F5F5" stroke-width="0.5" stroke-miterlimit="10"/>
<path d="M351.834 141.525H347.463V180.773H351.834V141.525Z" fill="#86BBF9"/>
<path d="M358.97 77.9961V291.694" stroke="#F5F5F5" stroke-width="0.5" stroke-miterlimit="10"/>
<path d="M361.155 147.598H356.785V170.006H361.155V147.598Z" fill="#86BBF9"/>
<path d="M368.291 77.9961V291.694" stroke="#F5F5F5" stroke-width="0.5" stroke-miterlimit="10"/>
<path d="M370.476 152.818H366.106V195.74H370.476V152.818Z" fill="#86BBF9"/>
<path d="M377.632 77.9961V291.694" stroke="#F5F5F5" stroke-width="0.5" stroke-miterlimit="10"/>
<path d="M379.797 165.037H375.426V241.89H379.797V165.037Z" fill="#86BBF9"/>
<path d="M386.953 77.9961V291.694" stroke="#F5F5F5" stroke-width="0.5" stroke-miterlimit="10"/>
<path d="M389.137 169.967H384.767V232.184H389.137V169.967Z" fill="#86BBF9"/>
<path d="M396.273 77.9961V291.694" stroke="#F5F5F5" stroke-width="0.5" stroke-miterlimit="10"/>
<path d="M398.458 167.357H394.088V189.069H398.458V167.357Z" fill="#86BBF9"/>
<path d="M405.595 77.9961V291.694" stroke="#F5F5F5" stroke-width="0.5" stroke-miterlimit="10"/>
<path d="M407.78 150.324H403.409V175.903H407.78V150.324Z" fill="#86BBF9"/>
<path d="M414.935 77.9961V291.694" stroke="#F5F5F5" stroke-width="0.5" stroke-miterlimit="10"/>
<path d="M417.1 154.674H412.729V222.633H417.1V154.674Z" fill="#86BBF9"/>
<path d="M424.255 77.9961V291.694" stroke="#F5F5F5" stroke-width="0.5" stroke-miterlimit="10"/>
<path d="M426.44 190.557H422.07V254.127H426.44V190.557Z" fill="#86BBF9"/>
<path d="M433.576 77.9961V291.694" stroke="#F5F5F5" stroke-width="0.5" stroke-miterlimit="10"/>
<path d="M442.897 77.9961V291.694" stroke="#F5F5F5" stroke-width="0.5" stroke-miterlimit="10"/>
<path d="M445.083 197.826H440.712V240.148H445.083V197.826Z" fill="#86BBF9"/>
<path d="M452.238 77.9961V291.694" stroke="#F5F5F5" stroke-width="0.5" stroke-miterlimit="10"/>
<path d="M454.403 175.438H450.032V226.673H454.403V175.438Z" fill="#86BBF9"/>
<path d="M461.558 77.9961V291.694" stroke="#F5F5F5" stroke-width="0.5" stroke-miterlimit="10"/>
<path d="M463.744 118.596H459.373V190.557H463.744V118.596Z" fill="#86BBF9"/>
<path d="M470.88 77.9961V291.694" stroke="#F5F5F5" stroke-width="0.5" stroke-miterlimit="10"/>
<path d="M473.065 105.605H468.694V163.124H473.065V105.605Z" fill="#86BBF9"/>
<path d="M480.201 77.9961V291.694" stroke="#F5F5F5" stroke-width="0.5" stroke-miterlimit="10"/>
<path d="M482.386 106.127H478.016V131.609H482.386V106.127Z" fill="#86BBF9"/>
<path d="M489.541 77.9961V291.694" stroke="#F5F5F5" stroke-width="0.5" stroke-miterlimit="10"/>
<path d="M491.706 118.867H487.336V149.86H491.706V118.867Z" fill="#86BBF9"/>
<path d="M498.861 77.9961V291.694" stroke="#F5F5F5" stroke-width="0.5" stroke-miterlimit="10"/>
<path d="M501.047 99.998H496.676V137.197H501.047V99.998Z" fill="#86BBF9"/>
<path d="M508.183 77.9961V291.694" stroke="#F5F5F5" stroke-width="0.5" stroke-miterlimit="10"/>
<path d="M510.368 109.955H505.998V152.819H510.368V109.955Z" fill="#86BBF9"/>
<path d="M435.761 209.408H431.391V259.406H435.761V209.408Z" fill="#86BBF9"/>
<path d="M524.524 43H109.47C105.367 43 101.432 44.6296 98.5312 47.5302C95.6299 50.4309 94 54.365 94 58.4672V86.5014H539.994V58.4672C539.994 54.365 538.365 50.4309 535.463 47.5302C532.562 44.6296 528.627 43 524.524 43Z" fill="#C1F6E6"/>
<path d="M202.447 217.895H198.077V265.881H202.447V217.895Z" fill="#86BBF9"/>
<defs>
<filter id="filter0_dd_773_13342" x="0" y="0" width="701" height="515" filterUnits="userSpaceOnUse" color-interpolation-filters="sRGB">
<feFlood flood-opacity="0" result="BackgroundImageFix"/>
<feColorMatrix in="SourceAlpha" type="matrix" values="0 0 0 0 0 0 0 0 0 0 0 0 0 0 0 0 0 0 127 0" result="hardAlpha"/>
<feOffset dy="2"/>
<feGaussianBlur stdDeviation="5"/>
<feColorMatrix type="matrix" values="0 0 0 0 0 0 0 0 0 0 0 0 0 0 0 0 0 0 0.1 0"/>
<feBlend mode="normal" in2="BackgroundImageFix" result="effect1_dropShadow_773_13342"/>
<feColorMatrix in="SourceAlpha" type="matrix" values="0 0 0 0 0 0 0 0 0 0 0 0 0 0 0 0 0 0 127 0" result="hardAlpha"/>
<feOffset/>
<feGaussianBlur stdDeviation="1"/>
<feColorMatrix type="matrix" values="0 0 0 0 0 0 0 0 0 0 0 0 0 0 0 0 0 0 0.2 0"/>
<feBlend mode="normal" in2="effect1_dropShadow_773_13342" result="effect2_dropShadow_773_13342"/>
<feBlend mode="normal" in="SourceGraphic" in2="effect2_dropShadow_773_13342" result="shape"/>
</filter>
<linearGradient id="paint0_linear_773_13342" x1="372.313" y1="438.825" x2="372.313" y2="250.647" gradientUnits="userSpaceOnUse">
<stop stop-color="#C1F6E6"/>
<stop offset="1" stop-color="#4DE5B8"/>
</linearGradient>
</defs>
</svg>
