<svg width="524" height="348" viewBox="0 0 524 348" fill="none" xmlns="http://www.w3.org/2000/svg">
<g filter="url(#filter0_dd_773_18977)">
<rect x="10" y="8" width="504" height="328" fill="white"/>
</g>
<path d="M435 283.637H89V283.81H435V283.637Z" fill="#E0E0E0"/>
<path d="M370.437 288.885H348.32V289.058H370.437V288.885Z" fill="#E0E0E0"/>
<path d="M398.312 288.801H373.531V288.974H398.312V288.801Z" fill="#E0E0E0"/>
<path d="M282.904 291.826H237.551V291.999H282.904V291.826Z" fill="#E0E0E0"/>
<path d="M233.565 291.826H226.202V291.999H233.565V291.826Z" fill="#E0E0E0"/>
<path d="M191.625 288.629H169.619V288.802H191.625V288.629Z" fill="#E0E0E0"/>
<path d="M323.934 288.629H303.97V288.802H323.934V288.629Z" fill="#E0E0E0"/>
<path d="M154.275 290.652H133.931V290.825H154.275V290.652Z" fill="#E0E0E0"/>
<path d="M253.003 252.841H119.385C118.338 252.84 117.335 252.423 116.595 251.684C115.856 250.945 115.44 249.943 115.44 248.899V61.4823C115.45 60.4439 115.869 59.4509 116.607 58.7192C117.346 57.9874 118.344 57.576 119.385 57.5742H253.003C254.051 57.5742 255.056 57.9896 255.797 58.729C256.538 59.4684 256.954 60.4712 256.954 61.5168V248.899C256.954 249.944 256.538 250.947 255.797 251.687C255.056 252.426 254.051 252.841 253.003 252.841ZM119.385 57.7123C118.384 57.7141 117.425 58.1121 116.718 58.819C116.011 59.5258 115.613 60.4837 115.613 61.4823V248.899C115.613 249.897 116.011 250.855 116.718 251.562C117.425 252.269 118.384 252.667 119.385 252.669H253.003C254.005 252.667 254.965 252.269 255.673 251.563C256.381 250.856 256.78 249.898 256.781 248.899V61.4823C256.78 60.483 256.381 59.5252 255.673 58.8185C254.965 58.1119 254.005 57.7141 253.003 57.7123H119.385Z" fill="#E0E0E0"/>
<path d="M402.691 252.841H269.066C268.018 252.84 267.014 252.424 266.274 251.685C265.533 250.946 265.116 249.944 265.114 248.899V61.4823C265.125 60.4432 265.546 59.4503 266.286 58.7188C267.025 57.9872 268.024 57.576 269.066 57.5742H402.691C403.73 57.5778 404.727 57.9901 405.464 58.7216C406.201 59.4532 406.619 60.4451 406.628 61.4823V248.899C406.628 249.942 406.214 250.943 405.476 251.682C404.738 252.421 403.736 252.838 402.691 252.841ZM269.066 57.7123C268.064 57.7141 267.104 58.1119 266.396 58.8185C265.688 59.5252 265.289 60.483 265.287 61.4823V248.899C265.289 249.898 265.688 250.856 266.396 251.563C267.104 252.269 268.064 252.667 269.066 252.669H402.691C403.692 252.667 404.652 252.269 405.36 251.563C406.069 250.856 406.467 249.898 406.469 248.899V61.4823C406.467 60.483 406.069 59.5252 405.36 58.8185C404.652 58.1119 403.692 57.7141 402.691 57.7123H269.066Z" fill="#E0E0E0"/>
<path d="M194.323 237.616C179.4 237.621 164.811 233.208 152.403 224.936C139.994 216.665 130.323 204.907 124.613 191.15C118.904 177.392 117.412 162.254 120.327 147.651C123.243 133.048 130.434 119.636 140.991 109.111C141.007 109.095 141.026 109.081 141.048 109.072C141.069 109.063 141.092 109.059 141.115 109.059C141.139 109.059 141.162 109.063 141.183 109.072C141.205 109.081 141.224 109.095 141.24 109.111L155.122 122.962C155.138 122.979 155.152 122.998 155.161 123.019C155.17 123.041 155.174 123.063 155.174 123.087C155.174 123.11 155.17 123.133 155.161 123.154C155.152 123.176 155.138 123.195 155.122 123.211C146.483 131.825 140.935 143.044 139.34 155.126C137.745 167.208 140.192 179.477 146.301 190.03C152.41 200.582 161.839 208.827 173.125 213.485C184.411 218.143 196.922 218.954 208.717 215.79C208.738 215.781 208.76 215.777 208.783 215.777C208.805 215.777 208.828 215.781 208.848 215.79C208.888 215.813 208.918 215.85 208.931 215.894L214.018 234.827C214.035 234.869 214.035 234.916 214.018 234.958C213.992 234.998 213.953 235.028 213.907 235.041C207.52 236.749 200.936 237.615 194.323 237.616ZM141.115 109.477C129.475 121.149 122.012 136.321 119.878 152.649C117.745 168.977 121.061 185.551 129.313 199.81C137.565 214.07 150.295 225.22 165.534 231.538C180.773 237.856 197.674 238.99 213.623 234.765L208.627 216.163C196.779 219.295 184.228 218.448 172.911 213.754C161.593 209.059 152.139 200.778 146.009 190.188C139.878 179.599 137.411 167.29 138.989 155.162C140.568 143.035 146.103 131.763 154.741 123.087L141.115 109.477Z" fill="#E0E0E0"/>
<path d="M233.683 123.26C233.637 123.261 233.593 123.244 233.559 123.212C223.149 112.848 209.045 107.028 194.34 107.028C179.635 107.028 165.53 112.848 155.121 123.212C155.105 123.229 155.086 123.242 155.065 123.251C155.045 123.26 155.022 123.264 154.999 123.264C154.977 123.264 154.954 123.26 154.933 123.251C154.913 123.242 154.894 123.229 154.878 123.212L140.99 109.361C140.973 109.346 140.96 109.327 140.951 109.306C140.942 109.285 140.938 109.263 140.938 109.24C140.938 109.218 140.942 109.195 140.951 109.174C140.96 109.154 140.973 109.135 140.99 109.119C155.143 95.0061 174.334 87.0781 194.343 87.0781C214.353 87.0781 233.543 95.0061 247.696 109.119C247.726 109.152 247.743 109.196 247.743 109.24C247.743 109.285 247.726 109.328 247.696 109.361L233.808 123.219C233.773 123.248 233.729 123.263 233.683 123.26ZM194.343 106.689C209.085 106.663 223.234 112.477 233.683 122.853L247.323 109.237C233.244 95.2664 214.195 87.4244 194.34 87.4244C174.484 87.4244 155.436 95.2664 141.357 109.237L155.003 122.853C165.45 112.473 179.6 106.656 194.343 106.682V106.689Z" fill="#E0E0E0"/>
<path d="M213.838 235.062C213.808 235.067 213.777 235.067 213.748 235.062C213.729 235.05 213.712 235.035 213.699 235.017C213.686 235 213.677 234.979 213.671 234.958L208.585 216.025C208.568 215.983 208.568 215.936 208.585 215.894C208.596 215.875 208.611 215.858 208.629 215.845C208.647 215.832 208.667 215.823 208.689 215.818C218.1 213.31 226.683 208.372 233.573 201.503C240.464 194.633 245.419 186.073 247.941 176.685C250.462 167.296 250.46 157.411 247.936 148.024C245.411 138.636 240.453 130.078 233.56 123.211C233.529 123.177 233.512 123.133 233.512 123.087C233.512 123.041 233.529 122.997 233.56 122.962L247.469 109.111C247.485 109.095 247.504 109.081 247.526 109.072C247.547 109.063 247.57 109.059 247.593 109.059C247.617 109.059 247.64 109.063 247.661 109.072C247.682 109.081 247.702 109.095 247.718 109.111C257.025 118.479 263.707 130.118 267.1 142.867C270.492 155.615 270.475 169.029 267.052 181.769C263.628 194.51 256.916 206.132 247.586 215.476C238.256 224.821 226.634 231.562 213.879 235.027L213.838 235.062ZM208.959 216.073L213.962 234.675C226.656 231.245 238.225 224.549 247.511 215.257C256.798 205.965 263.476 194.404 266.879 181.728C270.282 169.053 270.29 155.708 266.902 143.029C263.513 130.349 256.848 118.78 247.573 109.477L233.926 123.087C240.814 129.997 245.764 138.59 248.279 148.007C250.795 157.424 250.788 167.335 248.261 176.749C245.733 186.163 240.773 194.75 233.876 201.651C226.979 208.552 218.387 213.525 208.959 216.073Z" fill="#E0E0E0"/>
<path d="M156.899 271.339V283.637C167.3 283.636 177.409 280.211 185.66 273.893C193.91 267.575 199.841 258.717 202.531 248.693C205.222 238.669 204.522 228.039 200.541 218.452C196.559 208.865 189.518 200.857 180.51 195.67L174.352 206.324C181.008 210.159 186.211 216.077 189.152 223.163C192.094 230.248 192.611 238.104 190.622 245.512C188.634 252.92 184.251 259.467 178.154 264.137C172.057 268.806 164.586 271.338 156.899 271.339Z" fill="#D9E9FC"/>
<path d="M109.657 236.498C109.659 249 114.637 260.988 123.496 269.828C132.356 278.668 144.371 283.635 156.9 283.637V271.34C147.64 271.338 138.759 267.666 132.211 261.133C125.663 254.599 121.984 245.738 121.982 236.498H109.657Z" fill="#9DF1D8"/>
<path d="M109.657 236.497H121.982C121.98 230.381 123.593 224.373 126.656 219.076C129.72 213.779 134.128 209.38 139.436 206.322C144.744 203.264 150.765 201.654 156.894 201.654C163.023 201.654 169.045 203.265 174.352 206.323L180.511 195.669C158.07 182.743 128.95 190.539 115.989 212.931C111.844 220.097 109.661 228.224 109.657 236.497Z" fill="#D9E9FC"/>
<path d="M308.648 265.822H293.431V283.637H308.648V265.822Z" fill="#F5F5F5"/>
<path d="M326.973 271.195H311.756V283.638H326.973V271.195Z" fill="#D9E9FC"/>
<path d="M345.301 275.773H330.084V283.631H345.301V275.773Z" fill="#F0F0F0"/>
<path d="M251.544 271.195H236.327V283.638H251.544V271.195Z" fill="#9DF1D8"/>
<path d="M269.868 273.949H254.651V283.637H269.868V273.949Z" fill="#D9E9FC"/>
<path d="M288.198 262.766H272.98V283.639H288.198V262.766Z" fill="#9DF1D8"/>
<path d="M365.752 264.164H350.535V283.636H365.752V264.164Z" fill="#9DF1D8"/>
<path d="M384.076 271.195H368.859V283.638H384.076V271.195Z" fill="#D9E9FC"/>
<path d="M402.407 267.266H387.189V283.637H402.407V267.266Z" fill="#9DF1D8"/>
<path d="M224.556 69.561C224.559 68.1483 225.123 66.7946 226.124 65.7958C227.125 64.7969 228.482 64.2341 229.898 64.2305H396.303C397.719 64.2341 399.076 64.7969 400.077 65.7958C401.078 66.7946 401.642 68.1483 401.645 69.561V86.7193H224.556V69.561Z" fill="#D9E9FC"/>
<path d="M263.71 75.4777C263.71 76.2755 263.947 77.0554 264.392 77.7187C264.836 78.382 265.467 78.8988 266.206 79.2038C266.945 79.5088 267.758 79.5883 268.542 79.4321C269.326 79.276 270.046 78.8912 270.611 78.3266C271.176 77.762 271.561 77.0428 271.716 76.2602C271.871 75.4775 271.79 74.6665 271.483 73.9298C271.176 73.1931 270.657 72.5638 269.991 72.1215C269.326 71.6793 268.544 71.444 267.744 71.4453C266.674 71.4471 265.648 71.8728 264.891 72.6288C264.135 73.3848 263.71 74.4095 263.71 75.4777Z" fill="#F5F5F5"/>
<path d="M253.432 79.5101C255.664 79.5101 257.473 77.7047 257.473 75.4777C257.473 73.2507 255.664 71.4453 253.432 71.4453C251.2 71.4453 249.391 73.2507 249.391 75.4777C249.391 77.7047 251.2 79.5101 253.432 79.5101Z" fill="#F5F5F5"/>
<path d="M239.122 79.5101C241.354 79.5101 243.164 77.7047 243.164 75.4777C243.164 73.2507 241.354 71.4453 239.122 71.4453C236.89 71.4453 235.081 73.2507 235.081 75.4777C235.081 77.7047 236.89 79.5101 239.122 79.5101Z" fill="#F5F5F5"/>
<path d="M396.303 202.277H229.898C228.482 202.274 227.125 201.711 226.124 200.712C225.123 199.713 224.559 198.359 224.556 196.947V86.7188H401.645V196.947C401.642 198.359 401.078 199.713 400.077 200.712C399.076 201.711 397.719 202.274 396.303 202.277Z" fill="#F5F5F5"/>
<path d="M212.634 87.4028C212.639 85.9907 213.204 84.638 214.205 83.6396C215.205 82.6411 216.561 82.0777 217.976 82.0723H384.381C385.797 82.0759 387.154 82.6387 388.155 83.6376C389.156 84.6364 389.72 85.9901 389.724 87.4028V104.561H212.634V87.4028Z" fill="#FAFAFA"/>
<path d="M251.786 93.3215C251.786 94.119 252.023 94.8986 252.467 95.5617C252.911 96.2249 253.542 96.7417 254.281 97.0469C255.019 97.3521 255.832 97.432 256.616 97.2764C257.4 97.1208 258.12 96.7367 258.685 96.1728C259.25 95.6088 259.635 94.8903 259.791 94.1081C259.947 93.3259 259.867 92.5151 259.561 91.7783C259.255 91.0415 258.737 90.4117 258.073 89.9686C257.408 89.5256 256.627 89.2891 255.827 89.2891C254.756 89.2891 253.728 89.7139 252.97 90.4701C252.212 91.2263 251.786 92.252 251.786 93.3215Z" fill="#E0E0E0"/>
<path d="M237.477 93.3215C237.477 94.119 237.714 94.8986 238.158 95.5617C238.602 96.2249 239.233 96.7417 239.971 97.0469C240.71 97.3521 241.522 97.432 242.306 97.2764C243.09 97.1208 243.81 96.7367 244.375 96.1728C244.941 95.6088 245.326 94.8903 245.481 94.1081C245.637 93.3259 245.557 92.5151 245.252 91.7783C244.946 91.0415 244.428 90.4117 243.763 89.9686C243.098 89.5256 242.317 89.2891 241.518 89.2891C240.446 89.2891 239.418 89.7139 238.66 90.4701C237.902 91.2263 237.477 92.252 237.477 93.3215Z" fill="#E0E0E0"/>
<path d="M223.165 93.3215C223.165 94.1193 223.402 94.8992 223.847 95.5625C224.291 96.2257 224.923 96.7426 225.661 97.0476C226.4 97.3526 227.213 97.432 227.997 97.2759C228.781 97.1197 229.501 96.735 230.066 96.1703C230.631 95.6057 231.016 94.8866 231.171 94.1039C231.326 93.3212 231.245 92.5102 230.938 91.7735C230.631 91.0368 230.112 90.4075 229.446 89.9653C228.781 89.523 227.999 89.2877 227.199 89.2891C226.129 89.2909 225.103 89.7165 224.346 90.4726C223.59 91.2286 223.165 92.2532 223.165 93.3215Z" fill="#E0E0E0"/>
<path d="M384.381 220.121H217.976C216.56 220.117 215.204 219.555 214.203 218.556C213.201 217.557 212.637 216.203 212.634 214.79V104.562H389.724V214.79C389.72 216.203 389.156 217.557 388.155 218.556C387.154 219.555 385.797 220.117 384.381 220.121Z" fill="#E0E0E0"/>
<path d="M386.138 74.8359H137.869C136.107 74.8414 134.419 75.5411 133.173 76.7826C131.926 78.0241 131.221 79.7069 131.212 81.4645V246.806C131.217 248.566 131.921 250.251 133.168 251.495C134.416 252.738 136.106 253.438 137.869 253.442H386.138C387.9 253.436 389.588 252.736 390.834 251.492C392.08 250.249 392.782 248.565 392.788 246.806V81.4645C392.779 79.7081 392.075 78.0263 390.83 76.785C389.584 75.5437 387.898 74.8432 386.138 74.8359Z" fill="#86BBF9"/>
<path opacity="0.3" d="M386.138 74.8359H137.869C136.107 74.8414 134.419 75.5411 133.173 76.7826C131.926 78.0241 131.221 79.7069 131.212 81.4645V246.806C131.217 248.566 131.921 250.251 133.168 251.495C134.416 252.738 136.106 253.438 137.869 253.442H386.138C387.9 253.436 389.588 252.736 390.834 251.492C392.08 250.249 392.782 248.565 392.788 246.806V81.4645C392.779 79.7081 392.075 78.0263 390.83 76.785C389.584 75.5437 387.898 74.8432 386.138 74.8359Z" fill="#F5F5F5"/>
<path d="M181.832 87.8093H144.222C143.639 87.8326 143.057 87.7381 142.512 87.5315C141.966 87.325 141.468 87.0106 141.047 86.6072C140.627 86.2039 140.292 85.7199 140.063 85.1843C139.835 84.6487 139.717 84.0725 139.717 83.4904C139.717 82.9082 139.835 82.332 140.063 81.7964C140.292 81.2608 140.627 80.7768 141.047 80.3735C141.468 79.9702 141.966 79.6558 142.512 79.4492C143.057 79.2426 143.639 79.1482 144.222 79.1714H181.832C182.415 79.1482 182.997 79.2426 183.542 79.4492C184.088 79.6558 184.586 79.9702 185.006 80.3735C185.427 80.7768 185.762 81.2608 185.991 81.7964C186.219 82.332 186.337 82.9082 186.337 83.4904C186.337 84.0725 186.219 84.6487 185.991 85.1843C185.762 85.7199 185.427 86.2039 185.006 86.6072C184.586 87.0106 184.088 87.325 183.542 87.5315C182.997 87.7381 182.415 87.8326 181.832 87.8093ZM144.222 79.8619C143.731 79.8405 143.241 79.9185 142.781 80.0913C142.321 80.264 141.901 80.5278 141.546 80.8668C141.191 81.2059 140.909 81.6131 140.716 82.064C140.523 82.5149 140.423 83.0001 140.423 83.4904C140.423 83.9806 140.523 84.4658 140.716 84.9167C140.909 85.3676 141.191 85.7749 141.546 86.1139C141.901 86.4529 142.321 86.7168 142.781 86.8895C143.241 87.0622 143.731 87.1402 144.222 87.1188H181.832C182.323 87.1402 182.813 87.0622 183.273 86.8895C183.733 86.7168 184.153 86.4529 184.508 86.1139C184.863 85.7749 185.145 85.3676 185.338 84.9167C185.531 84.4658 185.631 83.9806 185.631 83.4904C185.631 83.0001 185.531 82.5149 185.338 82.064C185.145 81.6131 184.863 81.2059 184.508 80.8668C184.153 80.5278 183.733 80.264 183.273 80.0913C182.813 79.9185 182.323 79.8405 181.832 79.8619H144.222Z" fill="#9DF1D8"/>
<path d="M200.046 87.8098H195.569C194.451 87.7651 193.394 87.2906 192.618 86.4855C191.843 85.6804 191.41 84.6073 191.41 83.4908C191.41 82.3744 191.843 81.3012 192.618 80.4961C193.394 79.691 194.451 79.2165 195.569 79.1719H200.067C201.185 79.2165 202.242 79.691 203.018 80.4961C203.793 81.3012 204.226 82.3744 204.226 83.4908C204.226 84.6073 203.793 85.6804 203.018 86.4855C202.242 87.2906 201.185 87.7651 200.067 87.8098H200.046ZM195.569 79.8624C194.632 79.9031 193.747 80.3033 193.098 80.9793C192.45 81.6553 192.088 82.555 192.088 83.4908C192.088 84.4267 192.45 85.3264 193.098 86.0024C193.747 86.6784 194.632 87.0785 195.569 87.1193H200.067C201.004 87.0785 201.889 86.6784 202.538 86.0024C203.186 85.3264 203.548 84.4267 203.548 83.4908C203.548 82.555 203.186 81.6553 202.538 80.9793C201.889 80.3033 201.004 79.9031 200.067 79.8624H195.569Z" fill="#9DF1D8"/>
<path d="M392.788 91.9941H131.212V240.847H392.788V91.9941Z" fill="#86BBF9"/>
<path opacity="0.8" d="M392.788 91.9941H131.212V240.847H392.788V91.9941Z" fill="#F5F5F5"/>
<path opacity="0.9" d="M179.819 218.586C176.913 218.591 174.008 218.427 171.121 218.096C154.513 216.197 139.911 208.298 131.075 196.428C131.047 196.392 131.035 196.346 131.042 196.3C131.048 196.255 131.073 196.214 131.109 196.187C131.146 196.159 131.192 196.148 131.238 196.154C131.283 196.16 131.324 196.185 131.351 196.221C140.126 208.015 154.637 215.865 171.155 217.757C184.366 219.269 198.545 217.288 215.775 211.543C220.869 209.838 226.024 207.897 230.999 206.019C246.964 199.991 263.468 193.756 280.823 194.44C289.127 194.764 297.431 196.691 305.459 198.583C309.417 199.501 313.507 200.447 317.548 201.193C332.834 204.017 344.584 202.857 353.47 197.651C355.961 196.114 358.345 194.409 360.604 192.548C363.753 190.083 366.998 187.528 370.728 185.933C374.302 184.472 378.171 183.877 382.02 184.195C385.869 184.513 389.588 185.735 392.872 187.763C392.892 187.774 392.909 187.789 392.922 187.808C392.936 187.826 392.945 187.846 392.951 187.868C392.956 187.89 392.956 187.913 392.952 187.935C392.948 187.958 392.94 187.979 392.927 187.998C392.916 188.017 392.901 188.034 392.883 188.048C392.865 188.061 392.844 188.071 392.822 188.076C392.8 188.081 392.777 188.082 392.755 188.078C392.732 188.074 392.711 188.065 392.692 188.053C389.453 186.054 385.785 184.849 381.989 184.535C378.193 184.222 374.377 184.81 370.853 186.251C367.171 187.825 363.933 190.394 360.812 192.824C358.539 194.691 356.144 196.405 353.643 197.954C344.681 203.202 332.848 204.369 317.479 201.531C313.43 200.785 309.334 199.833 305.376 198.914C297.362 197.057 289.072 195.13 280.803 194.813C263.544 194.122 247.061 200.337 231.124 206.371C226.135 208.256 220.972 210.203 215.9 211.895C202.316 216.383 190.628 218.586 179.819 218.586Z" fill="#FAFAFA"/>
<g style="mix-blend-mode:multiply">
<path d="M349.67 159.869C337.318 159.869 324.004 156.824 308.109 150.382C303.009 148.31 297.846 146.004 292.885 143.767C276.969 136.613 260.464 129.218 243.206 128.666C234.902 128.404 226.653 129.736 218.64 131.027C214.675 131.663 210.578 132.326 206.53 132.781C191.161 134.528 179.334 132.512 170.373 126.629C167.867 124.903 165.473 123.021 163.204 120.995C160.048 118.336 156.817 115.575 153.128 113.703C149.732 112.009 145.979 111.147 142.182 111.191C138.385 111.234 134.653 112.18 131.296 113.952C131.255 113.972 131.208 113.976 131.164 113.964C131.121 113.951 131.084 113.922 131.06 113.883C131.049 113.863 131.043 113.841 131.04 113.818C131.038 113.796 131.04 113.773 131.046 113.751C131.053 113.729 131.063 113.709 131.078 113.691C131.092 113.674 131.11 113.659 131.13 113.648C134.536 111.856 138.32 110.898 142.171 110.853C146.021 110.809 149.827 111.679 153.274 113.393C156.997 115.25 160.249 118.033 163.391 120.732C165.648 122.75 168.031 124.622 170.525 126.339C179.41 132.181 191.168 134.176 206.454 132.436C210.495 131.98 214.585 131.324 218.543 130.682C226.57 129.391 234.874 128.058 243.171 128.321C260.506 128.88 277.017 136.282 292.995 143.449C297.985 145.686 303.14 147.999 308.219 150.064C325.45 157.045 339.615 160.028 352.839 159.454C369.351 158.764 383.855 151.928 392.629 140.763C392.645 140.747 392.664 140.734 392.685 140.725C392.705 140.716 392.728 140.711 392.751 140.711C392.773 140.711 392.796 140.716 392.817 140.725C392.837 140.734 392.856 140.747 392.872 140.763C392.89 140.777 392.905 140.794 392.917 140.813C392.928 140.833 392.936 140.854 392.939 140.877C392.942 140.899 392.941 140.922 392.935 140.944C392.93 140.966 392.92 140.987 392.906 141.005C384.069 152.246 369.468 159.109 352.853 159.827C351.815 159.848 350.743 159.869 349.67 159.869Z" fill="#86BBF9"/>
</g>
<path opacity="0.7" d="M349.67 159.869C337.318 159.869 324.004 156.824 308.109 150.382C303.009 148.31 297.846 146.004 292.885 143.767C276.969 136.613 260.464 129.218 243.206 128.666C234.902 128.404 226.653 129.736 218.64 131.027C214.675 131.663 210.578 132.326 206.53 132.781C191.161 134.528 179.334 132.512 170.373 126.629C167.867 124.903 165.473 123.021 163.204 120.995C160.048 118.336 156.817 115.575 153.128 113.703C149.732 112.009 145.979 111.147 142.182 111.191C138.385 111.234 134.653 112.18 131.296 113.952C131.255 113.972 131.208 113.976 131.164 113.964C131.121 113.951 131.084 113.922 131.06 113.883C131.049 113.863 131.043 113.841 131.04 113.818C131.038 113.796 131.04 113.773 131.046 113.751C131.053 113.729 131.063 113.709 131.078 113.691C131.092 113.674 131.11 113.659 131.13 113.648C134.536 111.856 138.32 110.898 142.171 110.853C146.021 110.809 149.827 111.679 153.274 113.393C156.997 115.25 160.249 118.033 163.391 120.732C165.648 122.75 168.031 124.622 170.525 126.339C179.41 132.181 191.168 134.176 206.454 132.436C210.495 131.98 214.585 131.324 218.543 130.682C226.57 129.391 234.874 128.058 243.171 128.321C260.506 128.88 277.017 136.282 292.995 143.449C297.985 145.686 303.14 147.999 308.219 150.064C325.45 157.045 339.615 160.028 352.839 159.454C369.351 158.764 383.855 151.928 392.629 140.763C392.645 140.747 392.664 140.734 392.685 140.725C392.705 140.716 392.728 140.711 392.751 140.711C392.773 140.711 392.796 140.716 392.817 140.725C392.837 140.734 392.856 140.747 392.872 140.763C392.89 140.777 392.905 140.794 392.917 140.813C392.928 140.833 392.936 140.854 392.939 140.877C392.942 140.899 392.941 140.922 392.935 140.944C392.93 140.966 392.92 140.987 392.906 141.005C384.069 152.246 369.468 159.109 352.853 159.827C351.815 159.848 350.743 159.869 349.67 159.869Z" fill="#F5F5F5"/>
<path d="M372.353 236.195H151.647C147.467 236.19 143.461 234.531 140.506 231.582C137.551 228.633 135.888 224.636 135.883 220.466V112.385C135.888 108.215 137.551 104.218 140.506 101.269C143.461 98.3207 147.467 96.6617 151.647 96.6562H372.353C376.532 96.6617 380.539 98.3207 383.494 101.269C386.449 104.218 388.111 108.215 388.117 112.385V220.466C388.111 224.636 386.449 228.633 383.494 231.582C380.539 234.531 376.532 236.19 372.353 236.195ZM151.647 97.0015C147.559 97.007 143.641 98.6295 140.751 101.513C137.86 104.397 136.234 108.307 136.229 112.385V220.466C136.234 224.544 137.86 228.454 140.751 231.338C143.641 234.222 147.559 235.844 151.647 235.85H372.353C376.44 235.844 380.359 234.222 383.249 231.338C386.139 228.454 387.765 224.544 387.771 220.466V112.385C387.765 108.307 386.139 104.397 383.249 101.513C380.359 98.6295 376.44 97.007 372.353 97.0015H151.647Z" fill="#FAFAFA"/>
<path d="M163.322 183.594H150.472V240.855H163.322V183.594Z" fill="#FAFAFA"/>
<path d="M182.434 171.902H169.584V240.847H182.434V171.902Z" fill="#9DF1D8"/>
<path d="M201.542 160.428H188.691V240.855H201.542V160.428Z" fill="#FAFAFA"/>
<path d="M220.654 146.355H207.804V240.847H220.654V146.355Z" fill="#FAFAFA"/>
<path d="M239.761 166.422H226.91V240.849H239.761V166.422Z" fill="#9DF1D8"/>
<path d="M258.872 138.533H246.021V240.855H258.872V138.533Z" fill="#86BBF9"/>
<path opacity="0.2" d="M258.872 138.533H246.021V240.855H258.872V138.533Z" fill="white"/>
<path d="M277.98 173.361H265.13V240.849H277.98V173.361Z" fill="#FAFAFA"/>
<path d="M297.093 150.727H284.242V240.855H297.093V150.727Z" fill="#FAFAFA"/>
<path d="M316.196 218.305H303.346V240.849H316.196V218.305Z" fill="#86BBF9"/>
<path opacity="0.3" d="M316.196 218.305H303.346V240.849H316.196V218.305Z" fill="#9EC9FA"/>
<path d="M335.31 145.064H322.46V240.854H335.31V145.064Z" fill="#9DF1D8"/>
<path d="M354.419 118.508H341.568V240.854H354.419V118.508Z" fill="#86BBF9"/>
<path opacity="0.2" d="M354.419 118.508H341.568V240.854H354.419V118.508Z" fill="white"/>
<path d="M373.53 175.197H360.68V240.848H373.53V175.197Z" fill="#FAFAFA"/>
<defs>
<filter id="filter0_dd_773_18977" x="0" y="0" width="524" height="348" filterUnits="userSpaceOnUse" color-interpolation-filters="sRGB">
<feFlood flood-opacity="0" result="BackgroundImageFix"/>
<feColorMatrix in="SourceAlpha" type="matrix" values="0 0 0 0 0 0 0 0 0 0 0 0 0 0 0 0 0 0 127 0" result="hardAlpha"/>
<feOffset dy="2"/>
<feGaussianBlur stdDeviation="5"/>
<feColorMatrix type="matrix" values="0 0 0 0 0 0 0 0 0 0 0 0 0 0 0 0 0 0 0.1 0"/>
<feBlend mode="normal" in2="BackgroundImageFix" result="effect1_dropShadow_773_18977"/>
<feColorMatrix in="SourceAlpha" type="matrix" values="0 0 0 0 0 0 0 0 0 0 0 0 0 0 0 0 0 0 127 0" result="hardAlpha"/>
<feOffset/>
<feGaussianBlur stdDeviation="1"/>
<feColorMatrix type="matrix" values="0 0 0 0 0 0 0 0 0 0 0 0 0 0 0 0 0 0 0.2 0"/>
<feBlend mode="normal" in2="effect1_dropShadow_773_18977" result="effect2_dropShadow_773_18977"/>
<feBlend mode="normal" in="SourceGraphic" in2="effect2_dropShadow_773_18977" result="shape"/>
</filter>
</defs>
</svg>
