<svg width="440" height="240" viewBox="0 0 440 240" fill="none" xmlns="http://www.w3.org/2000/svg">
<path d="M29.1398 175.203H17.1299V215.151H29.1398V175.203Z" fill="#86BBF9"/>
<path d="M53.963 163.109H41.9531V215.152H53.963V163.109Z" fill="#86BBF9"/>
<path d="M78.7863 141.779H66.7764V215.153H78.7863V141.779Z" fill="#86BBF9"/>
<path d="M103.613 122.322H91.6035V215.153H103.613V122.322Z" fill="#86BBF9"/>
<path d="M128.434 102.383H116.424V215.151H128.434V102.383Z" fill="#86BBF9"/>
<path d="M153.256 93.6387H141.246V215.152H153.256V93.6387Z" fill="#86BBF9"/>
<path d="M178.083 103.074H166.073V215.152H178.083V103.074Z" fill="#86BBF9"/>
<path d="M202.905 114.004H190.896V215.153H202.905V114.004Z" fill="#86BBF9"/>
<path d="M227.733 93.6387H215.723V215.152H227.733V93.6387Z" fill="#86BBF9"/>
<path d="M252.556 82.1582H240.546V215.147H252.556V82.1582Z" fill="#86BBF9"/>
<path d="M277.376 66.9062H265.366V215.151H277.376V66.9062Z" fill="#86BBF9"/>
<path d="M285.156 216.086H0V60.3906H2.38754V213.715H285.156V216.086Z" fill="#559FF6"/>
<path d="M23.3478 194.076L22.9258 191.743L47.4398 187.354L70.7877 168.096L70.8877 168.041L96.3456 154.073L121.393 133.869L147.783 128.076L170.52 146.61L195.079 160.982L221.497 126.473L246.694 118.436L273.451 105.855L274.467 108L247.494 120.675L222.935 128.508L195.695 164.094L169.082 148.501L147.172 130.641L122.459 136.064L97.6837 156.052L97.5893 156.101L72.137 170.07L48.4781 189.582L23.3478 194.076Z" fill="#94F0D4"/>
<path d="M224.563 231.293H51.3047V239.999H224.563V231.293Z" fill="#86BBF9"/>
<path d="M192.662 24.125H166.011V36.2083H192.662V24.125Z" fill="#86BBF9"/>
<path d="M317.989 29.2715H201.305V31.052H317.989V29.2715Z" fill="#559FF6"/>
<path d="M192.662 47.6523H166.011V59.7356H192.662V47.6523Z" fill="#94F0D4"/>
<path d="M317.989 52.8027H201.305V54.5833H317.989V52.8027Z" fill="#559FF6"/>
<path d="M397.623 42.1399L420.388 6.59198C412.457 1.56686 403.071 -0.687918 393.711 0.182955C384.35 1.05383 375.547 5.00084 368.688 11.402C361.829 17.8031 357.305 26.2944 355.828 35.5376C354.352 44.7808 356.007 54.2504 360.533 62.4539C365.058 70.6574 372.197 77.1285 380.825 80.8473C389.452 84.566 399.078 85.321 408.184 82.9932C417.29 80.6655 425.359 75.3874 431.119 67.9907C436.88 60.594 440.004 51.4993 440 42.1399C440 41.3605 439.927 40.6088 439.883 39.846L397.623 42.1399Z" fill="#86BBF9"/>
<path d="M439.885 39.8464C439.529 33.1559 437.574 26.6465 434.184 20.859C430.793 15.0715 426.064 10.173 420.39 6.57031L397.625 42.1183L439.885 39.8464Z" fill="#94F0D4"/>
</svg>
