<svg width="766" height="530" viewBox="0 0 766 530" fill="none" xmlns="http://www.w3.org/2000/svg">
<g clip-path="url(#clip0_773_4513)">
<path d="M385.954 262.087C386.689 261.173 387.619 260.435 388.676 259.928C389.734 259.421 390.892 259.158 392.064 259.158L552.392 259.792L623.245 260.066C624.72 260.063 626.165 260.483 627.41 261.276C628.655 262.069 629.647 263.202 630.269 264.541C630.906 265.873 631.148 267.359 630.969 268.824C630.789 270.29 630.195 271.673 629.256 272.812L591.071 319.58C589.984 320.915 589.467 322.626 589.633 324.34C589.798 326.054 590.633 327.633 591.956 328.734L766 473.144V474.803L591.118 329.708C589.54 328.389 588.545 326.499 588.35 324.45C588.155 322.402 588.775 320.358 590.076 318.764L628.275 271.999C629.058 271.047 629.554 269.891 629.703 268.668C629.853 267.444 629.651 266.203 629.12 265.09C628.601 263.975 627.774 263.031 626.737 262.37C625.7 261.709 624.496 261.358 623.267 261.359L551.364 261.08L392.072 260.462H392.046C391.07 260.462 390.106 260.682 389.226 261.106C388.347 261.529 387.573 262.145 386.963 262.908C386.354 263.671 385.923 264.561 385.703 265.513C385.484 266.465 385.481 267.454 385.695 268.407L413.291 391.265L420.137 421.711L435.719 491.075C435.987 492.266 436.584 493.358 437.443 494.226C438.301 495.094 439.386 495.704 440.574 495.985C441.762 496.266 443.004 496.207 444.16 495.815C445.316 495.424 446.339 494.715 447.112 493.77L483.61 449.077L494.271 436.031C494.922 435.233 495.724 434.571 496.632 434.085C497.539 433.599 498.534 433.297 499.558 433.198C500.583 433.098 501.617 433.203 502.601 433.506C503.585 433.809 504.499 434.304 505.291 434.962L619.827 529.996H617.808L504.464 435.954C503.803 435.406 503.04 434.993 502.219 434.741C501.398 434.489 500.535 434.402 499.68 434.486C498.826 434.569 497.996 434.821 497.239 435.227C496.482 435.633 495.813 436.185 495.27 436.851L484.62 449.905L448.121 494.575C447.195 495.708 445.969 496.557 444.583 497.027C443.198 497.496 441.708 497.567 440.285 497.23C438.861 496.893 437.56 496.163 436.531 495.123C435.502 494.082 434.786 492.774 434.464 491.346L419.098 422.974L411.963 391.251L384.421 268.696C384.163 267.55 384.166 266.361 384.432 265.216C384.697 264.072 385.218 263.002 385.954 262.087Z" fill="#30262A"/>
<path d="M231.627 225.487L277.568 429.942C277.844 431.14 278.449 432.238 279.316 433.11C280.183 433.982 281.276 434.594 282.472 434.877C283.668 435.159 284.919 435.101 286.084 434.709C287.249 434.317 288.281 433.607 289.063 432.659L320.681 393.957L324.292 389.537L325.247 388.373L332.374 379.647C332.923 378.977 333.6 378.422 334.364 378.014C335.128 377.605 335.965 377.352 336.828 377.268C337.69 377.184 338.56 377.271 339.389 377.524C340.217 377.777 340.988 378.191 341.656 378.743L383.536 413.491L384.462 414.252L523.95 529.996H721.42L421.223 281.189C419.881 280.084 419.032 278.491 418.862 276.76C418.692 275.029 419.215 273.301 420.316 271.955L445.714 240.858L446.684 239.675L455.391 229.013C456.17 228.049 456.662 226.885 456.81 225.655C456.958 224.424 456.756 223.177 456.227 222.056C455.699 220.935 454.866 219.986 453.823 219.318C452.78 218.649 451.57 218.289 450.331 218.277L371.704 217.973L352.335 217.897L322.565 217.779L317.509 217.765L305.143 217.717L297.123 217.688L275.538 217.604L257.42 217.534L238.095 217.457C237.105 217.451 236.126 217.668 235.231 218.093C234.336 218.518 233.548 219.139 232.927 219.911C232.305 220.683 231.865 221.585 231.64 222.55C231.415 223.516 231.411 224.519 231.627 225.487Z" fill="#2584F4"/>
<path d="M515.488 61.0518L536.437 154.259C536.578 154.889 536.893 155.466 537.347 155.925C537.8 156.384 538.373 156.706 539.001 156.855C539.628 157.003 540.285 156.972 540.896 156.765C541.507 156.558 542.047 156.183 542.455 155.684L561.696 132.129C561.982 131.777 562.336 131.486 562.736 131.272C563.135 131.058 563.574 130.925 564.025 130.881C564.476 130.837 564.932 130.883 565.365 131.016C565.799 131.149 566.202 131.367 566.551 131.657L766 299.511V212.807L603.331 86.5616C602.631 85.9816 602.189 85.1483 602.102 84.2434C602.014 83.3386 602.287 82.4358 602.862 81.732L618.294 62.846C618.706 62.3423 618.966 61.7322 619.046 61.0865C619.125 60.4407 619.019 59.7857 618.742 59.1974C618.464 58.6092 618.026 58.1117 617.477 57.7627C616.928 57.4137 616.292 57.2274 615.642 57.2256L518.857 56.8594C518.341 56.8574 517.83 56.9718 517.364 57.1942C516.898 57.4166 516.488 57.7412 516.164 58.144C515.84 58.5467 515.611 59.0173 515.494 59.5207C515.377 60.0241 515.375 60.5474 515.488 61.0518Z" fill="#B6D6FB"/>
<path d="M583.432 529.996H470.073L376.95 452.738C376.633 452.474 376.266 452.275 375.871 452.154C375.476 452.032 375.061 451.99 374.65 452.03C374.238 452.07 373.839 452.191 373.475 452.386C373.11 452.581 372.788 452.846 372.527 453.167L346.372 485.183C346 485.639 345.507 485.981 344.951 486.17C344.394 486.359 343.795 486.388 343.223 486.253C342.65 486.117 342.128 485.824 341.714 485.406C341.301 484.987 341.013 484.461 340.884 483.887L320.681 393.956L314 364.225C313.896 363.766 313.897 363.289 314.003 362.83C314.108 362.371 314.316 361.942 314.61 361.575C314.905 361.207 315.278 360.911 315.703 360.708C316.127 360.505 316.592 360.401 317.063 360.402H318.972L441.313 360.875C441.906 360.875 442.487 361.045 442.988 361.363C443.489 361.681 443.889 362.135 444.142 362.672C444.395 363.21 444.491 363.808 444.417 364.397C444.344 364.986 444.105 365.542 443.727 366.001L422.292 392.243C421.769 392.883 421.52 393.705 421.6 394.528C421.68 395.351 422.083 396.109 422.72 396.637L583.432 529.996Z" fill="white"/>
<path d="M136.466 387.41C137.37 386.341 137.951 385.036 138.139 383.648C138.328 382.26 138.116 380.847 137.53 379.575C136.943 378.303 136.006 377.226 134.829 376.468C133.652 375.711 132.283 375.306 130.883 375.301L37.6359 374.935L8.56824 374.829H8.54266C7.43546 374.829 6.3425 375.079 5.34543 375.561C4.34836 376.042 3.47293 376.743 2.78448 377.611C2.09607 378.479 1.61246 379.491 1.36972 380.572C1.12701 381.653 1.13141 382.775 1.38272 383.855L27.8565 497.61C28.1652 498.939 28.8371 500.156 29.797 501.124C30.7569 502.093 31.9671 502.775 33.2922 503.095C34.6174 503.415 36.0053 503.36 37.3009 502.936C38.5964 502.511 39.7486 501.735 40.6287 500.693L61.1462 476.436C62.5769 474.727 64.6213 473.649 66.8387 473.435C69.0562 473.22 71.269 473.886 73.0001 475.29L141.251 529.978H139.334L72.2391 476.216C70.7479 475.01 68.8434 474.438 66.9353 474.623C65.0271 474.808 63.2676 475.735 62.0352 477.205L41.5141 501.466C40.4909 502.674 39.1521 503.575 37.6474 504.066C36.1427 504.557 34.5312 504.62 32.9927 504.248C31.4542 503.876 30.0494 503.083 28.9351 501.958C27.8207 500.833 27.0407 499.42 26.682 497.878L0.208313 384.122C-0.0824585 382.869 -0.086792 381.566 0.195587 380.311C0.477997 379.056 1.03986 377.881 1.83929 376.874C2.63873 375.866 3.65512 375.052 4.81262 374.493C5.97015 373.934 7.23892 373.643 8.52435 373.643H8.55731L37.3542 373.749L130.872 374.115C132.497 374.12 134.087 374.59 135.455 375.469C136.823 376.348 137.911 377.6 138.592 379.076C139.274 380.553 139.519 382.194 139.301 383.806C139.082 385.418 138.409 386.933 137.359 388.175L123.09 405.051C122.455 405.801 121.976 406.671 121.683 407.61C121.389 408.548 121.287 409.536 121.382 410.515C121.477 411.494 121.767 412.444 122.235 413.308C122.703 414.173 123.34 414.935 124.107 415.549L266.947 529.996H265.052L123.372 416.49C122.481 415.776 121.743 414.89 121.2 413.886C120.657 412.882 120.321 411.779 120.211 410.642C120.101 409.505 120.22 408.358 120.56 407.269C120.901 406.179 121.456 405.168 122.194 404.297L136.466 387.41Z" fill="#30262A"/>
<path d="M422.08 150.147C422.08 150.147 418.055 141.14 407.848 142.268C397.64 143.395 398.862 152.428 394.003 151.583C389.145 150.737 382.347 151.583 380.891 157.225C379.435 162.867 372.875 159.766 372.633 164.548C372.392 169.33 380.159 172.731 389.148 168.499C398.138 164.266 402.506 171.794 415.125 170.425C427.743 169.055 429.32 167.371 436.795 168.228C444.269 169.085 444.097 163.131 440.702 159.18C437.307 155.229 423.539 155.607 422.08 150.147Z" fill="#F7F0F7"/>
<path d="M448.652 23.2031C448.652 23.2031 443.413 11.4863 430.154 12.9509C416.895 14.4155 418.472 26.158 412.161 25.0559C405.85 23.9538 397.007 25.0559 395.112 32.3789C393.217 39.7019 384.696 35.6742 384.381 41.9171C384.066 48.16 394.164 52.5538 405.846 47.0432C417.528 41.5327 423.21 51.3199 439.626 49.5477C456.042 47.7755 458.073 45.575 467.797 46.6771C477.522 47.7792 477.284 40.0461 472.865 34.9127C468.445 29.7792 450.547 30.2955 448.652 23.2031Z" fill="#F7F0F7"/>
<path d="M54.3562 220.272C54.3562 220.272 63.232 202.235 85.6886 204.495C108.145 206.754 105.471 224.834 116.165 223.139C126.859 221.444 141.83 223.139 145.039 234.438C148.247 245.738 162.684 239.524 163.218 249.128C163.752 258.733 146.645 265.514 126.859 257.037C107.073 248.561 97.451 263.628 69.6492 260.897C41.8474 258.165 38.401 254.778 21.9445 256.473C5.48805 258.169 5.87589 246.261 13.3614 238.353C20.8469 230.444 51.1622 231.194 54.3562 220.272Z" fill="#F7F0F7"/>
<path d="M147.786 170.129C147.786 170.129 152.143 161.378 163.152 162.476C174.161 163.575 172.877 172.362 178.116 171.52C183.355 170.678 190.712 171.52 192.289 177.012C193.866 182.505 200.949 179.48 201.213 184.141C201.476 188.803 193.076 192.091 183.366 187.979C173.656 183.867 168.929 191.172 155.282 189.85C141.636 188.528 139.946 186.88 131.867 187.704C123.789 188.528 123.979 182.75 127.653 178.916C131.326 175.083 146.213 175.427 147.786 170.129Z" fill="#F7F0F7"/>
<path d="M73.9295 105.554C73.9295 105.554 79.1247 95.1186 92.2738 96.4258C105.423 97.733 103.853 108.198 110.113 107.216C116.373 106.235 125.139 107.216 127.016 113.752C128.893 120.288 137.348 116.681 137.659 122.254C137.97 127.827 127.956 131.734 116.373 126.831C104.79 121.928 99.1776 130.639 82.8821 129.061C66.5866 127.483 64.5891 125.524 54.9559 126.498C45.3228 127.472 45.5496 120.588 49.9326 116.011C54.3157 111.434 72.0526 111.877 73.9295 105.554Z" fill="#F7F0F7"/>
<path d="M268.806 17.166C268.806 17.166 272.098 24.5476 283.85 22.0761C295.601 19.6046 311.099 28.1945 305.56 35.675C300.021 43.1554 322.631 39.5745 321.735 54.1436C320.838 68.7128 310.433 80.5065 289.173 72.7148C267.913 64.9231 256.827 26.6567 256.827 26.6567L268.806 17.166Z" fill="#30262A"/>
<path d="M249.543 37.9841C241.066 40.6973 224.478 45.384 224.478 45.384C223.746 44.7323 225.297 17 225.297 17L216.078 17.4284C216.078 17.4284 207.198 51.2351 216.356 58.0492C225.758 65.0427 247.995 55.6033 247.995 55.6033C247.995 55.6033 255.002 36.2303 249.543 37.9841Z" fill="#EA9A81"/>
<path d="M223.373 51.8979C223.405 51.897 223.437 51.8887 223.466 51.8734C223.494 51.8581 223.519 51.8364 223.538 51.81C224.888 49.7779 224.687 45.5342 224.679 45.3548C224.675 45.303 224.65 45.2549 224.612 45.2202C224.573 45.1855 224.523 45.1669 224.471 45.168C224.418 45.1709 224.368 45.1943 224.333 45.2334C224.297 45.2724 224.278 45.3239 224.28 45.3767C224.28 45.417 224.482 49.668 223.205 51.6013C223.177 51.6453 223.166 51.6985 223.177 51.7497C223.187 51.801 223.217 51.8462 223.26 51.8759C223.295 51.8934 223.334 51.901 223.373 51.8979Z" fill="#E47E6A"/>
<path d="M298.718 103.276C297.924 106.509 284.625 109.731 268.597 106.074C252.568 102.416 242.569 100.856 241.066 96.4109C241.066 96.4109 255.433 90.7136 271.461 94.3678C287.49 98.022 299.508 100.043 298.718 103.276Z" fill="#30262A"/>
<path d="M240.06 59.7529C231.92 54.6268 233.61 42.7635 233.61 42.7635C241.24 40.2875 249.018 38.2917 256.897 36.7879C261.408 35.9567 263.194 35.6895 265.462 35.6895C294.596 35.6895 298.646 101.49 298.755 102.743C268.049 95.4197 241.066 96.4266 241.066 96.4266C238.246 72.9234 239.797 60.9209 240.06 59.7529Z" fill="#2584F4"/>
<path d="M244.933 58.6386C244.933 58.6386 236.233 48.3498 233.591 42.7623C240.191 39.7344 247.109 37.4538 254.215 35.9629L244.933 58.6386Z" fill="#2584F4"/>
<path d="M257.142 36.1716C257.142 36.1716 281.563 33.3303 294.189 41.8506L278.428 54.1423L257.142 36.1716Z" fill="#2584F4"/>
<path d="M278.548 53.8282C280.088 55.9153 284.969 55.0511 289.451 51.8986C293.932 48.746 296.318 44.4987 294.781 42.4116C293.245 40.3245 288.357 41.1887 283.875 44.3412C279.393 47.4938 277.008 51.7411 278.548 53.8282Z" fill="#30262A"/>
<path d="M315.753 104.88C309.972 90.8416 300.551 74.1232 288.313 59.9751C285.481 56.698 284.347 55.4861 282.408 53.8201C280.85 52.4763 281.618 48.229 284.062 45.567C286.363 43.0662 290.801 42.0117 291.723 42.5939C293.314 43.6155 295.382 45.8893 298.587 49.4775C309.775 61.9926 317.684 76.1187 326.721 99.9222L315.753 104.88Z" fill="#EA9A81"/>
<path d="M329.374 103.424C328.234 101.416 326.857 99.5519 325.273 97.873C325.273 97.873 316.382 100.132 316.126 100.993C315.544 102.974 315.307 107.107 314.765 109.099C314.531 109.96 313.946 112.911 314.798 113.226C315.53 113.5 317.147 111.336 317.787 110.22C319.862 115.653 325.437 122.614 321.958 110.897H321.976C322.445 112.047 325.225 119.355 326.586 118.107C327.793 117.008 325.95 111.435 325.203 109.535L325.254 109.506C326.191 111.369 328.942 116.744 329.747 115.364C330.757 113.614 328.225 107.895 328.225 107.895C328.225 107.895 330.292 113.105 331.712 111.216C332.678 109.927 330.644 105.881 329.78 104.098C329.672 103.857 329.536 103.631 329.374 103.424Z" fill="#EA9A81"/>
<path d="M254.285 40.812C257.64 42.3462 263.538 38.5273 266.04 35.6859C266.04 35.6859 262.828 35.1074 262.297 34.0126C261.533 32.4418 260.223 27.832 260.223 27.832V26.7885L257.508 17.2246L256.831 26.6567L256.663 28.9561V29.0733L256.491 31.4715V31.5191L256.433 32.3173L256.319 33.9357C256.22 35.2502 255.818 35.642 254.23 35.9642C254.215 35.9642 251.428 39.5049 254.285 40.812Z" fill="#EA9A81"/>
<path d="M268.048 207.623C268.048 207.623 267.942 211.596 265.121 212.716C262.3 213.836 254.123 214.836 257.178 217.399C258.931 218.864 267.192 217.915 269.526 217.915C271.86 217.915 274.048 218.886 275.779 217.399C277.688 215.762 275.779 207.619 275.779 207.619C275.779 207.619 273.766 208.619 271.959 208.571C269.35 208.513 268.048 207.623 268.048 207.623Z" fill="#30262A"/>
<path d="M315.409 207.623C315.409 207.623 315.307 211.595 312.482 212.716C309.658 213.836 301.488 214.836 304.543 217.399C306.296 218.863 314.557 217.915 316.887 217.915C319.218 217.915 321.409 218.885 323.144 217.395C325.05 215.762 323.144 207.615 323.144 207.615C323.144 207.615 321.131 208.615 319.32 208.571C316.712 208.509 315.409 207.623 315.409 207.623Z" fill="#30262A"/>
<path d="M249.378 98.6566C248.756 98.6672 248.163 98.9245 247.73 99.3722C247.297 99.8198 247.06 100.421 247.069 101.044C247.135 106.646 247.761 122.262 252.122 147.241C256.146 170.272 260.903 193.482 263.222 204.606C263.654 206.562 264.726 208.319 266.268 209.596C267.81 210.874 269.735 211.599 271.736 211.658L273.971 211.742C278.475 211.907 282.13 208.246 281.801 203.852L276.148 128.578C276.148 128.578 285.521 102.428 279.236 100.832C270.342 98.5614 255.14 98.5614 249.378 98.6566Z" fill="#1ECF9A"/>
<path d="M257.229 98.627L308.307 206.081C310.275 210.475 330.116 212.925 325.367 201.27L297.02 104.786C296.596 103.618 285.712 101.776 284.581 101.45C278.438 99.6888 257.229 98.627 257.229 98.627Z" fill="#1ECF9A"/>
<path d="M277.026 140.529C277.058 140.53 277.089 140.523 277.118 140.51C277.15 140.498 277.179 140.48 277.204 140.457C277.228 140.434 277.248 140.406 277.262 140.375C277.276 140.344 277.283 140.31 277.283 140.276C277.284 140.242 277.277 140.208 277.264 140.177L270.43 122.602C267.949 116.348 264.521 112.716 262.085 110.79C259.432 108.681 257.391 108.066 257.303 108.04C257.237 108.02 257.167 108.028 257.107 108.061C257.047 108.093 257.002 108.148 256.983 108.214C256.963 108.279 256.971 108.35 257.003 108.41C257.036 108.47 257.091 108.515 257.156 108.534C257.241 108.56 265.297 111.061 269.962 122.792L276.796 140.367C276.815 140.414 276.847 140.453 276.888 140.482C276.928 140.51 276.977 140.527 277.026 140.529Z" fill="#020202"/>
<path d="M242.222 23.4197L219.513 19.5824C218.956 19.4875 218.46 19.1754 218.134 18.7147C217.807 18.254 217.677 17.6824 217.771 17.1255L218.185 14.665C218.23 14.3893 218.33 14.1253 218.478 13.8882C218.626 13.651 218.819 13.4455 219.046 13.2832C219.274 13.1209 219.531 13.0052 219.803 12.9426C220.075 12.88 220.357 12.8718 220.632 12.9185L243.341 16.7484C243.897 16.8442 244.393 17.1565 244.719 17.617C245.045 18.0774 245.176 18.6485 245.083 19.2053L244.669 21.6658C244.625 21.9422 244.526 22.207 244.378 22.4449C244.231 22.6829 244.038 22.8893 243.81 23.0523C243.583 23.2153 243.325 23.3317 243.053 23.3947C242.78 23.4578 242.498 23.4663 242.222 23.4197Z" fill="#1ECF9A"/>
<path d="M227.734 23.3682L205.819 19.6665C205.458 19.6053 205.113 19.4735 204.803 19.2788C204.494 19.0841 204.225 18.8303 204.014 18.5317C203.802 18.2332 203.651 17.8958 203.57 17.5389C203.488 17.182 203.478 16.8125 203.54 16.4516L204.462 10.9594C204.583 10.2306 204.989 9.58012 205.591 9.15096C206.192 8.72181 206.938 8.54914 207.666 8.67094L229.582 12.3764C230.309 12.5 230.958 12.9077 231.385 13.5098C231.813 14.1119 231.984 14.8593 231.861 15.5875L230.939 21.0798C230.879 21.4409 230.749 21.7866 230.555 22.0971C230.362 22.4076 230.109 22.6769 229.811 22.8894C229.513 23.102 229.177 23.2537 228.82 23.3359C228.464 23.418 228.095 23.429 227.734 23.3682Z" fill="#2584F4"/>
<path d="M209.62 21.8741L174.863 16.0157C174.267 15.9127 173.736 15.5775 173.385 15.0835C173.035 14.5896 172.894 13.9769 172.994 13.3794L174.6 3.83016C174.649 3.53447 174.756 3.25133 174.914 2.99697C175.072 2.74261 175.279 2.52202 175.523 2.34786C175.767 2.1737 176.042 2.0494 176.334 1.98206C176.626 1.91472 176.928 1.90569 177.223 1.95547L211.98 7.81388C212.275 7.86399 212.558 7.97185 212.812 8.1313C213.065 8.29075 213.285 8.49867 213.458 8.74317C213.632 8.98766 213.755 9.26395 213.821 9.55622C213.888 9.84849 213.896 10.151 213.846 10.4465L212.244 19.9994C212.143 20.5957 211.811 21.1278 211.319 21.4792C210.827 21.8306 210.216 21.9726 209.62 21.8741Z" fill="#1ECF9A"/>
<path d="M172.749 16.7486L171.022 16.4556C170.565 16.3777 170.157 16.1215 169.889 15.7432C169.621 15.3649 169.514 14.8955 169.591 14.4382L171.786 1.44712C171.862 0.989251 172.117 0.580419 172.495 0.31056C172.872 0.0407022 173.341 -0.0680803 173.799 0.00814051L175.525 0.301062C175.982 0.37898 176.39 0.635234 176.658 1.01353C176.926 1.39182 177.033 1.8612 176.956 2.31855L174.761 15.3096C174.685 15.7675 174.43 16.1763 174.052 16.4461C173.675 16.716 173.206 16.8248 172.749 16.7486Z" fill="#2584F4"/>
<path d="M220.786 8.72156C220.786 8.72156 218.441 7.72196 217.549 9.87859C216.411 12.6247 217.618 17.1394 218.361 15.4075C218.792 14.3531 219.109 13.2558 219.308 12.1341C219.308 12.1341 218.463 17.5971 219.799 17.3664C221.134 17.1357 221.866 12.6906 221.866 12.6906C221.866 12.6906 221.5 17.9083 222.707 17.2822C223.915 16.656 224.467 13.5401 224.467 13.5401C224.467 13.5401 223.929 17.7582 225.297 16.9966C226.666 16.235 226.395 13.1117 226.607 11.7643C226.79 10.4901 226.029 9.95915 224.778 9.87127C224.778 9.87127 223.596 9.06208 222.773 9.20854C222.458 9.26712 222.202 8.93392 221.983 8.87534C221.588 8.7948 221.188 8.7434 220.786 8.72156Z" fill="#EA9A81"/>
<path d="M256.468 31.4714C258.568 30.7574 260.222 28.4141 260.222 28.4141H259.926L256.633 29.0731L256.468 31.4714Z" fill="#30262A"/>
<path d="M268.806 17.166C268.806 17.166 268.198 18.6489 268.659 21.926C269.329 26.7043 263.537 27.8869 262.312 26.3857C262.162 26.2026 263.556 18.4146 263.556 18.4146L265.469 17.653L268.806 17.166Z" fill="#30262A"/>
<path d="M247.629 17.4249C248.518 11.4457 253.362 7.15072 258.448 7.8281C263.533 8.50548 266.939 13.9062 266.05 19.8855C265.161 25.8647 260.317 30.1633 255.228 29.4823C250.139 28.8012 246.733 23.4042 247.629 17.4249Z" fill="#EA9A81"/>
<path d="M254.42 9.85683C254.624 10.223 252.349 15.6017 262.981 18.3772C273.613 21.1526 268.966 7.75879 261.02 6.41502C249.543 4.46709 246.751 11.6327 247.483 14.441C248.215 17.2494 254.42 9.85683 254.42 9.85683Z" fill="#30262A"/>
<path d="M262.048 16.4434C262.048 16.4434 265.813 21.4816 263.603 25.8205C263.603 25.8205 266.566 23.4918 266.771 22.5032C266.976 21.5146 266.83 17.8164 266.83 17.8164L262.048 16.4434Z" fill="#30262A"/>
<path d="M264.569 21.3539C263.383 22.1668 261.909 22.0862 261.276 21.1379C260.643 20.1896 261.089 18.7945 262.275 17.9853C263.46 17.1761 264.935 17.275 265.568 18.205C266.201 19.135 265.751 20.5447 264.569 21.3539Z" fill="#EA9A81"/>
<path d="M255.927 18.6404C255.897 18.6288 255.871 18.6106 255.849 18.5871C255.828 18.5636 255.812 18.5355 255.803 18.5049C255.797 18.4785 255.796 18.4511 255.801 18.4244C255.806 18.3977 255.816 18.3722 255.83 18.3494C255.845 18.3266 255.864 18.3069 255.886 18.2915C255.909 18.2761 255.934 18.2652 255.96 18.2596C256.44 18.1171 256.953 18.1311 257.425 18.2996C257.896 18.4681 258.302 18.7824 258.583 19.197C258.599 19.2184 258.611 19.2428 258.617 19.2688C258.623 19.2948 258.624 19.3217 258.62 19.3481C258.615 19.3745 258.606 19.3996 258.591 19.4221C258.577 19.4446 258.558 19.4639 258.536 19.4789C258.489 19.506 258.434 19.5164 258.38 19.5085C258.326 19.5005 258.277 19.4746 258.239 19.435C257.61 18.9468 256.841 18.6724 256.044 18.6514C256.005 18.6595 255.964 18.6557 255.927 18.6404Z" fill="#080435"/>
<path d="M249.218 18.2462C249.185 18.2465 249.153 18.2394 249.124 18.2255C249.095 18.2115 249.069 18.191 249.049 18.1657C249.033 18.1447 249.02 18.1205 249.014 18.0945C249.007 18.0686 249.005 18.0416 249.009 18.0151C249.014 17.9886 249.023 17.9632 249.038 17.9406C249.052 17.918 249.071 17.8987 249.093 17.8837C249.491 17.5735 249.978 17.3978 250.482 17.382C250.986 17.3662 251.483 17.5111 251.899 17.7959C251.922 17.8094 251.942 17.8274 251.958 17.8489C251.974 17.8704 251.986 17.8949 251.992 17.9209C251.998 17.9469 251.999 17.9739 251.994 18.0002C251.99 18.0266 251.98 18.0517 251.965 18.0741C251.931 18.1165 251.883 18.1461 251.83 18.1581C251.777 18.1701 251.722 18.1637 251.673 18.14C250.908 17.9168 250.092 17.9412 249.342 18.2096C249.305 18.2343 249.262 18.2471 249.218 18.2462Z" fill="#080435"/>
<path d="M251.175 20.4084C251.317 20.8697 251.145 21.3237 250.809 21.4189C250.604 21.4428 250.398 21.3881 250.233 21.2657C250.067 21.1433 249.954 20.9625 249.916 20.7599C249.831 20.5767 249.822 20.3673 249.89 20.1773C249.959 19.9873 250.1 19.8321 250.282 19.7456C250.487 19.7219 250.694 19.7771 250.859 19.9002C251.025 20.0234 251.138 20.205 251.175 20.4084Z" fill="#080435"/>
<path d="M251.145 23.5469C251.145 23.5469 251.511 26.4468 253.768 26.5969C256.19 26.7617 256.761 24.2352 256.761 24.2352C256.761 24.2352 253.512 24.8577 251.145 23.5469Z" fill="white"/>
<path d="M258.459 21.4791C258.478 21.4785 258.497 21.4731 258.513 21.4635C258.53 21.454 258.544 21.4405 258.554 21.4242C258.561 21.412 258.566 21.3985 258.567 21.3844C258.569 21.3704 258.568 21.3562 258.565 21.3425C258.561 21.3289 258.554 21.3161 258.546 21.305C258.537 21.2939 258.526 21.2846 258.514 21.2778C257.694 20.8087 256.729 20.66 255.806 20.8603C255.792 20.8637 255.78 20.8699 255.768 20.8784C255.757 20.8869 255.747 20.8977 255.74 20.91C255.733 20.9223 255.728 20.9359 255.726 20.95C255.725 20.9641 255.726 20.9785 255.729 20.9922C255.733 21.0057 255.74 21.0183 255.748 21.0293C255.757 21.0403 255.768 21.0494 255.78 21.0562C255.792 21.063 255.806 21.0674 255.82 21.0689C255.834 21.0705 255.848 21.0693 255.861 21.0654C256.735 20.8812 257.646 21.0232 258.422 21.4645C258.433 21.4713 258.446 21.4763 258.459 21.4791Z" fill="#020202"/>
<path d="M337.178 529.996H223.812L90.719 419.561C90.4008 419.296 90.033 419.096 89.6371 418.974C89.2412 418.851 88.8249 418.809 88.4125 418.849C88.0001 418.889 87.5996 419.01 87.2344 419.206C86.8692 419.402 86.5464 419.668 86.2848 419.99L60.1294 452.006C59.7585 452.463 59.2664 452.807 58.7094 452.997C58.1526 453.187 57.5533 453.216 56.9806 453.081C56.4077 452.947 55.8845 452.653 55.4708 452.234C55.0571 451.815 54.7697 451.288 54.6414 450.713L37.6252 374.953L37.3618 373.767L27.7653 331.063C27.6613 330.603 27.6622 330.126 27.7681 329.666C27.8739 329.207 28.0819 328.778 28.3765 328.41C28.6712 328.042 29.0449 327.746 29.4699 327.542C29.8949 327.339 30.3602 327.235 30.8312 327.236L155.067 327.72C155.66 327.72 156.241 327.89 156.742 328.208C157.243 328.526 157.643 328.98 157.896 329.517C158.149 330.055 158.244 330.653 158.171 331.242C158.098 331.831 157.858 332.387 157.481 332.846L136.042 359.073C135.517 359.713 135.268 360.534 135.347 361.358C135.427 362.181 135.829 362.94 136.466 363.467L337.178 529.996Z" fill="#94F0D4"/>
</g>
<defs>
<clipPath id="clip0_773_4513">
<rect width="766" height="530" fill="white" transform="matrix(-1 0 0 1 766 0)"/>
</clipPath>
</defs>
</svg>
