<svg width="420" height="414" viewBox="0 0 420 414" fill="none" xmlns="http://www.w3.org/2000/svg">
<g clip-path="url(#clip0_773_6097)">
<path d="M400.957 413.999H17.8322C17.4834 413.999 17.138 413.93 16.8157 413.796C16.4934 413.662 16.2005 413.467 15.9538 413.219C15.7072 412.972 15.5115 412.679 15.378 412.356C15.2445 412.034 15.1758 411.688 15.1758 411.338C15.1755 410.989 15.2439 410.643 15.3773 410.32C15.5106 409.997 15.7063 409.703 15.953 409.456C16.1997 409.209 16.4926 409.012 16.8151 408.879C17.1375 408.745 17.4832 408.676 17.8322 408.676H400.957C401.306 408.676 401.652 408.745 401.975 408.879C402.297 409.012 402.59 409.209 402.837 409.456C403.083 409.703 403.279 409.997 403.412 410.32C403.546 410.643 403.614 410.989 403.614 411.338C403.614 411.688 403.545 412.034 403.412 412.356C403.278 412.679 403.082 412.972 402.836 413.219C402.589 413.467 402.296 413.662 401.974 413.796C401.652 413.93 401.306 413.999 400.957 413.999Z" fill="#003C99"/>
<path d="M19.2678 126.373C19.2873 126.13 19.2994 125.872 19.2994 125.616C19.2994 123.054 18.2827 120.596 16.4731 118.783C14.6634 116.971 12.209 115.953 9.6497 115.953C8.38248 115.953 7.12767 116.203 5.95691 116.689C4.78616 117.174 3.72238 117.886 2.82633 118.783C1.93027 119.681 1.21948 120.746 0.734539 121.918C0.249596 123.091 0 124.347 0 125.616C0 125.872 0.0121348 126.122 0.0315605 126.373H19.2678Z" fill="#80B2FF"/>
<path d="M50.971 126.373C50.9904 126.13 51.0025 125.872 51.0025 125.616C51.0025 123.054 49.9859 120.596 48.1762 118.783C46.3665 116.971 43.9121 115.953 41.3528 115.953C38.7936 115.953 36.3391 116.971 34.5295 118.783C32.7198 120.596 31.7031 123.054 31.7031 125.616C31.7031 125.872 31.7153 126.122 31.7347 126.373H50.971Z" fill="#80B2FF"/>
<path d="M59.1795 126.374C59.2076 126.123 59.2222 125.871 59.2232 125.618C59.2226 123.807 58.5045 122.071 57.2266 120.79C55.9487 119.509 54.2154 118.788 52.4072 118.785C50.5976 118.785 48.8621 119.505 47.5825 120.786C46.3029 122.068 45.584 123.806 45.584 125.618C45.5838 125.871 45.5984 126.123 45.6277 126.374H59.1795Z" fill="#80B2FF"/>
<path d="M39.8689 126.373C39.945 125.775 39.9831 125.173 39.983 124.571C39.983 120.816 38.4936 117.215 35.8424 114.561C33.1912 111.906 29.5954 110.414 25.846 110.414C22.0977 110.415 18.503 111.906 15.852 114.56C13.2011 117.213 11.7109 120.813 11.709 124.566C11.7089 125.169 11.747 125.77 11.8231 126.368L39.8689 126.373Z" fill="#80B2FF"/>
<path d="M257.038 15.9571C257.058 15.714 257.07 15.4562 257.07 15.2009C257.07 12.6378 256.053 10.1797 254.244 8.36705C252.434 6.55444 249.98 5.5358 247.42 5.53516C244.861 5.5358 242.406 6.55444 240.597 8.36705C238.787 10.1797 237.771 12.6378 237.771 15.2009C237.771 15.4441 237.771 15.7067 237.802 15.9571H257.038Z" fill="#80B2FF"/>
<path d="M288.741 15.9571C288.76 15.714 288.772 15.4562 288.772 15.2009C288.772 12.6378 287.755 10.1797 285.946 8.36705C284.136 6.55444 281.682 5.5358 279.122 5.53516C276.563 5.5358 274.108 6.55444 272.299 8.36705C270.489 10.1797 269.473 12.6378 269.473 15.2009C269.473 15.4441 269.485 15.7067 269.504 15.9571H288.741Z" fill="#80B2FF"/>
<path d="M277.641 15.9588C277.717 15.3612 277.754 14.7593 277.753 14.157C277.753 10.4027 276.264 6.80222 273.613 4.14734C270.963 1.49246 267.367 0.000644837 263.619 0C259.869 0 256.273 1.49153 253.622 4.14648C250.971 6.80142 249.481 10.4023 249.481 14.157C249.482 14.7593 249.519 15.3611 249.593 15.9588H277.641Z" fill="#80B2FF"/>
<path d="M206.342 126.918H202.867C202.803 126.922 202.739 126.914 202.679 126.893C202.618 126.871 202.563 126.838 202.516 126.794C202.469 126.75 202.432 126.697 202.406 126.639C202.381 126.58 202.368 126.516 202.368 126.452C202.368 126.388 202.381 126.325 202.406 126.266C202.432 126.207 202.469 126.154 202.516 126.11C202.563 126.067 202.618 126.033 202.679 126.012C202.739 125.99 202.803 125.982 202.867 125.986H206.342C206.406 125.982 206.47 125.99 206.531 126.012C206.591 126.033 206.646 126.067 206.693 126.11C206.74 126.154 206.778 126.207 206.803 126.266C206.829 126.325 206.842 126.388 206.842 126.452C206.842 126.516 206.829 126.58 206.803 126.639C206.778 126.697 206.74 126.75 206.693 126.794C206.646 126.838 206.591 126.871 206.531 126.893C206.47 126.914 206.406 126.922 206.342 126.918ZM199.39 126.918H195.915C195.851 126.922 195.787 126.914 195.727 126.893C195.666 126.871 195.611 126.838 195.564 126.794C195.517 126.75 195.48 126.697 195.454 126.639C195.429 126.58 195.416 126.516 195.416 126.452C195.416 126.388 195.429 126.325 195.454 126.266C195.48 126.207 195.517 126.154 195.564 126.11C195.611 126.067 195.666 126.033 195.727 126.012C195.787 125.99 195.851 125.982 195.915 125.986H199.393C199.456 125.982 199.521 125.99 199.581 126.012C199.641 126.033 199.697 126.067 199.744 126.11C199.791 126.154 199.828 126.207 199.854 126.266C199.879 126.325 199.892 126.388 199.892 126.452C199.892 126.516 199.879 126.58 199.854 126.639C199.828 126.697 199.791 126.75 199.744 126.794C199.697 126.838 199.641 126.871 199.581 126.893C199.521 126.914 199.456 126.922 199.393 126.918H199.39ZM192.436 126.918H188.961C188.897 126.922 188.833 126.914 188.773 126.893C188.712 126.871 188.657 126.838 188.61 126.794C188.563 126.75 188.526 126.697 188.5 126.639C188.474 126.58 188.461 126.516 188.461 126.452C188.461 126.388 188.474 126.325 188.5 126.266C188.526 126.207 188.563 126.154 188.61 126.11C188.657 126.067 188.712 126.033 188.773 126.012C188.833 125.99 188.897 125.982 188.961 125.986H192.436C192.5 125.982 192.564 125.99 192.624 126.012C192.685 126.033 192.74 126.067 192.787 126.11C192.834 126.154 192.871 126.207 192.897 126.266C192.922 126.325 192.936 126.388 192.936 126.452C192.936 126.516 192.922 126.58 192.897 126.639C192.871 126.697 192.834 126.75 192.787 126.794C192.74 126.838 192.685 126.871 192.624 126.893C192.564 126.914 192.5 126.922 192.436 126.918ZM185.484 126.918H182.007C181.943 126.922 181.879 126.914 181.818 126.893C181.758 126.871 181.702 126.838 181.655 126.794C181.609 126.75 181.571 126.697 181.546 126.639C181.52 126.58 181.507 126.516 181.507 126.452C181.507 126.388 181.52 126.325 181.546 126.266C181.571 126.207 181.609 126.154 181.655 126.11C181.702 126.067 181.758 126.033 181.818 126.012C181.879 125.99 181.943 125.982 182.007 125.986H185.474C185.538 125.982 185.602 125.99 185.663 126.012C185.723 126.033 185.778 126.067 185.825 126.11C185.872 126.154 185.91 126.207 185.935 126.266C185.961 126.325 185.974 126.388 185.974 126.452C185.974 126.516 185.961 126.58 185.935 126.639C185.91 126.697 185.872 126.75 185.825 126.794C185.778 126.838 185.723 126.871 185.663 126.893C185.602 126.914 185.538 126.922 185.474 126.918H185.484ZM178.529 126.918H175.052C174.935 126.909 174.825 126.857 174.744 126.77C174.664 126.684 174.62 126.57 174.62 126.452C174.62 126.334 174.664 126.221 174.744 126.134C174.825 126.048 174.935 125.995 175.052 125.986H178.529C178.593 125.982 178.657 125.99 178.718 126.012C178.778 126.033 178.834 126.067 178.881 126.11C178.927 126.154 178.965 126.207 178.99 126.266C179.016 126.325 179.029 126.388 179.029 126.452C179.029 126.516 179.016 126.58 178.99 126.639C178.965 126.697 178.927 126.75 178.881 126.794C178.834 126.838 178.778 126.871 178.718 126.893C178.657 126.914 178.593 126.922 178.529 126.918ZM171.577 126.918H168.1C168.036 126.922 167.972 126.914 167.912 126.893C167.851 126.871 167.796 126.838 167.749 126.794C167.702 126.75 167.665 126.697 167.639 126.639C167.614 126.58 167.6 126.516 167.6 126.452C167.6 126.388 167.614 126.325 167.639 126.266C167.665 126.207 167.702 126.154 167.749 126.11C167.796 126.067 167.851 126.033 167.912 126.012C167.972 125.99 168.036 125.982 168.1 125.986H171.577C171.695 125.995 171.805 126.048 171.885 126.134C171.965 126.221 172.01 126.334 172.01 126.452C172.01 126.57 171.965 126.684 171.885 126.77C171.805 126.857 171.695 126.909 171.577 126.918ZM164.623 126.918H161.146C161.028 126.909 160.918 126.857 160.838 126.77C160.758 126.684 160.713 126.57 160.713 126.452C160.713 126.334 160.758 126.221 160.838 126.134C160.918 126.048 161.028 125.995 161.146 125.986H164.623C164.687 125.982 164.751 125.99 164.812 126.012C164.872 126.033 164.927 126.067 164.974 126.11C165.021 126.154 165.059 126.207 165.084 126.266C165.11 126.325 165.123 126.388 165.123 126.452C165.123 126.516 165.11 126.58 165.084 126.639C165.059 126.697 165.021 126.75 164.974 126.794C164.927 126.838 164.872 126.871 164.812 126.893C164.751 126.914 164.687 126.922 164.623 126.918ZM157.671 126.918H154.194C154.13 126.922 154.066 126.914 154.005 126.893C153.945 126.871 153.89 126.838 153.843 126.794C153.796 126.75 153.758 126.697 153.733 126.639C153.707 126.58 153.694 126.516 153.694 126.452C153.694 126.388 153.707 126.325 153.733 126.266C153.758 126.207 153.796 126.154 153.843 126.11C153.89 126.067 153.945 126.033 154.005 126.012C154.066 125.99 154.13 125.982 154.194 125.986H157.671C157.789 125.995 157.899 126.048 157.979 126.134C158.059 126.221 158.104 126.334 158.104 126.452C158.104 126.57 158.059 126.684 157.979 126.77C157.899 126.857 157.789 126.909 157.671 126.918ZM150.717 126.918H147.24C147.122 126.909 147.012 126.857 146.932 126.77C146.852 126.684 146.807 126.57 146.807 126.452C146.807 126.334 146.852 126.221 146.932 126.134C147.012 126.048 147.122 125.995 147.24 125.986H150.717C150.781 125.982 150.845 125.99 150.905 126.012C150.966 126.033 151.021 126.067 151.068 126.11C151.115 126.154 151.152 126.207 151.178 126.266C151.203 126.325 151.217 126.388 151.217 126.452C151.217 126.516 151.203 126.58 151.178 126.639C151.152 126.697 151.115 126.75 151.068 126.794C151.021 126.838 150.966 126.871 150.905 126.893C150.845 126.914 150.781 126.922 150.717 126.918ZM143.765 126.918H140.288C140.224 126.922 140.16 126.914 140.099 126.893C140.039 126.871 139.983 126.838 139.936 126.794C139.889 126.75 139.852 126.697 139.826 126.639C139.801 126.58 139.788 126.516 139.788 126.452C139.788 126.388 139.801 126.325 139.826 126.266C139.852 126.207 139.889 126.154 139.936 126.11C139.983 126.067 140.039 126.033 140.099 126.012C140.16 125.99 140.224 125.982 140.288 125.986H143.765C143.882 125.995 143.992 126.048 144.072 126.134C144.153 126.221 144.197 126.334 144.197 126.452C144.197 126.57 144.153 126.684 144.072 126.77C143.992 126.857 143.882 126.909 143.765 126.918ZM136.81 126.918H133.333C133.216 126.909 133.106 126.857 133.025 126.77C132.945 126.684 132.901 126.57 132.901 126.452C132.901 126.334 132.945 126.221 133.025 126.134C133.106 126.048 133.216 125.995 133.333 125.986H136.81C136.874 125.982 136.938 125.99 136.999 126.012C137.059 126.033 137.115 126.067 137.162 126.11C137.208 126.154 137.246 126.207 137.271 126.266C137.297 126.325 137.31 126.388 137.31 126.452C137.31 126.516 137.297 126.58 137.271 126.639C137.246 126.697 137.208 126.75 137.162 126.794C137.115 126.838 137.059 126.871 136.999 126.893C136.938 126.914 136.874 126.922 136.81 126.918ZM129.858 126.918H126.381C126.317 126.922 126.253 126.914 126.193 126.893C126.132 126.871 126.077 126.838 126.03 126.794C125.983 126.75 125.946 126.697 125.92 126.639C125.895 126.58 125.881 126.516 125.881 126.452C125.881 126.388 125.895 126.325 125.92 126.266C125.946 126.207 125.983 126.154 126.03 126.11C126.077 126.067 126.132 126.033 126.193 126.012C126.253 125.99 126.317 125.982 126.381 125.986H129.868C129.986 125.995 130.096 126.048 130.176 126.134C130.256 126.221 130.301 126.334 130.301 126.452C130.301 126.57 130.256 126.684 130.176 126.77C130.096 126.857 129.986 126.909 129.868 126.918H129.858ZM122.904 126.918H119.427C119.309 126.909 119.199 126.857 119.119 126.77C119.039 126.684 118.994 126.57 118.994 126.452C118.994 126.334 119.039 126.221 119.119 126.134C119.199 126.048 119.309 125.995 119.427 125.986H122.904C122.968 125.982 123.032 125.99 123.092 126.012C123.153 126.033 123.208 126.067 123.255 126.11C123.302 126.154 123.339 126.207 123.365 126.266C123.391 126.325 123.404 126.388 123.404 126.452C123.404 126.516 123.391 126.58 123.365 126.639C123.339 126.697 123.302 126.75 123.255 126.794C123.208 126.838 123.153 126.871 123.092 126.893C123.032 126.914 122.968 126.922 122.904 126.918ZM115.95 126.918H112.475C112.411 126.922 112.347 126.914 112.286 126.893C112.226 126.871 112.171 126.838 112.124 126.794C112.077 126.75 112.039 126.697 112.014 126.639C111.988 126.58 111.975 126.516 111.975 126.452C111.975 126.388 111.988 126.325 112.014 126.266C112.039 126.207 112.077 126.154 112.124 126.11C112.171 126.067 112.226 126.033 112.286 126.012C112.347 125.99 112.411 125.982 112.475 125.986H115.95C116.014 125.982 116.078 125.99 116.138 126.012C116.199 126.033 116.254 126.067 116.301 126.11C116.348 126.154 116.385 126.207 116.411 126.266C116.436 126.325 116.449 126.388 116.449 126.452C116.449 126.516 116.436 126.58 116.411 126.639C116.385 126.697 116.348 126.75 116.301 126.794C116.254 126.838 116.199 126.871 116.138 126.893C116.078 126.914 116.014 126.922 115.95 126.918ZM108.998 126.918H105.52C105.457 126.922 105.392 126.914 105.332 126.893C105.272 126.871 105.216 126.838 105.169 126.794C105.122 126.75 105.085 126.697 105.059 126.639C105.034 126.58 105.021 126.516 105.021 126.452C105.021 126.388 105.034 126.325 105.059 126.266C105.085 126.207 105.122 126.154 105.169 126.11C105.216 126.067 105.272 126.033 105.332 126.012C105.392 125.99 105.457 125.982 105.52 125.986H108.998C109.062 125.982 109.126 125.99 109.186 126.012C109.247 126.033 109.302 126.067 109.349 126.11C109.396 126.154 109.433 126.207 109.459 126.266C109.484 126.325 109.497 126.388 109.497 126.452C109.497 126.516 109.484 126.58 109.459 126.639C109.433 126.697 109.396 126.75 109.349 126.794C109.302 126.838 109.247 126.871 109.186 126.893C109.126 126.914 109.062 126.922 108.998 126.918ZM102.043 126.918H98.5685C98.5046 126.922 98.4404 126.914 98.38 126.893C98.3196 126.871 98.2642 126.838 98.2173 126.794C98.1704 126.75 98.133 126.697 98.1074 126.639C98.0819 126.58 98.0687 126.516 98.0687 126.452C98.0687 126.388 98.0819 126.325 98.1074 126.266C98.133 126.207 98.1704 126.154 98.2173 126.11C98.2642 126.067 98.3196 126.033 98.38 126.012C98.4404 125.99 98.5046 125.982 98.5685 125.986H102.043C102.107 125.982 102.171 125.99 102.232 126.012C102.292 126.033 102.348 126.067 102.394 126.11C102.441 126.154 102.479 126.207 102.504 126.266C102.53 126.325 102.543 126.388 102.543 126.452C102.543 126.516 102.53 126.58 102.504 126.639C102.479 126.697 102.441 126.75 102.394 126.794C102.348 126.838 102.292 126.871 102.232 126.893C102.171 126.914 102.107 126.922 102.043 126.918ZM95.0913 126.918H91.6141C91.5502 126.922 91.4861 126.914 91.4256 126.893C91.3652 126.871 91.3098 126.838 91.2629 126.794C91.216 126.75 91.1786 126.697 91.153 126.639C91.1275 126.58 91.1143 126.516 91.1143 126.452C91.1143 126.388 91.1275 126.325 91.153 126.266C91.1786 126.207 91.216 126.154 91.2629 126.11C91.3098 126.067 91.3652 126.033 91.4256 126.012C91.4861 125.99 91.5502 125.982 91.6141 125.986H95.0913C95.1552 125.982 95.2193 125.99 95.2798 126.012C95.3402 126.033 95.3956 126.067 95.4425 126.11C95.4894 126.154 95.5268 126.207 95.5524 126.266C95.5779 126.325 95.5911 126.388 95.5911 126.452C95.5911 126.516 95.5779 126.58 95.5524 126.639C95.5268 126.697 95.4894 126.75 95.4425 126.794C95.3956 126.838 95.3402 126.871 95.2798 126.893C95.2193 126.914 95.1552 126.922 95.0913 126.918ZM88.1369 126.918H84.6621C84.5983 126.922 84.5341 126.914 84.4737 126.893C84.4133 126.871 84.3579 126.838 84.311 126.794C84.2641 126.75 84.2267 126.697 84.2011 126.639C84.1755 126.58 84.1623 126.516 84.1623 126.452C84.1623 126.388 84.1755 126.325 84.2011 126.266C84.2267 126.207 84.2641 126.154 84.311 126.11C84.3579 126.067 84.4133 126.033 84.4737 126.012C84.5341 125.99 84.5983 125.982 84.6621 125.986H88.1369C88.2008 125.982 88.265 125.99 88.3254 126.012C88.3858 126.033 88.4412 126.067 88.4881 126.11C88.535 126.154 88.5724 126.207 88.598 126.266C88.6235 126.325 88.6368 126.388 88.6368 126.452C88.6368 126.516 88.6235 126.58 88.598 126.639C88.5724 126.697 88.535 126.75 88.4881 126.794C88.4412 126.838 88.3858 126.871 88.3254 126.893C88.265 126.914 88.2008 126.922 88.1369 126.918ZM81.1849 126.918H80.6167C79.526 126.922 78.4699 126.535 77.6398 125.826C77.5462 125.745 77.4883 125.63 77.4788 125.507C77.4692 125.384 77.5088 125.261 77.5888 125.167C77.6699 125.074 77.7846 125.016 77.9078 125.007C78.031 124.998 78.1529 125.038 78.2468 125.118C78.9083 125.681 79.7487 125.989 80.6167 125.986H81.1849C81.2488 125.982 81.313 125.99 81.3734 126.012C81.4338 126.033 81.4892 126.067 81.5361 126.11C81.583 126.154 81.6204 126.207 81.646 126.266C81.6716 126.325 81.6848 126.388 81.6848 126.452C81.6848 126.516 81.6716 126.58 81.646 126.639C81.6204 126.697 81.583 126.75 81.5361 126.794C81.4892 126.838 81.4338 126.871 81.3734 126.893C81.313 126.914 81.2488 126.922 81.1849 126.918ZM209.637 126.093C209.54 126.093 209.444 126.063 209.365 126.006C209.286 125.949 209.226 125.868 209.195 125.775C209.164 125.683 209.163 125.583 209.192 125.489C209.22 125.396 209.278 125.314 209.356 125.255C209.767 124.952 210.101 124.557 210.333 124.102C210.565 123.647 210.688 123.144 210.691 122.633C210.691 122.509 210.74 122.391 210.828 122.303C210.915 122.216 211.034 122.166 211.157 122.166C211.218 122.167 211.279 122.179 211.335 122.203C211.392 122.227 211.443 122.261 211.486 122.305C211.529 122.348 211.563 122.4 211.586 122.457C211.61 122.514 211.621 122.574 211.621 122.636C211.619 123.29 211.464 123.935 211.169 124.519C210.874 125.103 210.447 125.609 209.921 125.999C209.84 126.06 209.741 126.093 209.64 126.093H209.637ZM76.6151 122.864C76.5522 122.864 76.4899 122.852 76.432 122.827C76.3742 122.802 76.3219 122.766 76.2783 122.721C76.2348 122.675 76.2008 122.621 76.1786 122.563C76.1563 122.504 76.1462 122.441 76.1488 122.378V118.906C76.1488 118.782 76.198 118.663 76.2854 118.575C76.3728 118.488 76.4914 118.439 76.6151 118.439C76.7387 118.439 76.8573 118.488 76.9447 118.575C77.0322 118.663 77.0813 118.782 77.0813 118.906V122.378C77.0839 122.441 77.0738 122.504 77.0515 122.563C77.0293 122.621 76.9953 122.675 76.9518 122.721C76.9082 122.766 76.8559 122.802 76.7981 122.827C76.7402 122.852 76.678 122.864 76.6151 122.864ZM211.16 119.63C211.036 119.63 210.917 119.581 210.83 119.493C210.743 119.406 210.693 119.287 210.693 119.163V115.671C210.689 115.608 210.697 115.543 210.719 115.483C210.74 115.422 210.773 115.367 210.817 115.32C210.861 115.273 210.914 115.235 210.972 115.21C211.031 115.184 211.094 115.171 211.158 115.171C211.223 115.171 211.286 115.184 211.345 115.21C211.403 115.235 211.456 115.273 211.5 115.32C211.543 115.367 211.577 115.422 211.598 115.483C211.62 115.543 211.628 115.608 211.623 115.671V119.151C211.624 119.212 211.612 119.273 211.589 119.33C211.566 119.386 211.532 119.438 211.488 119.481C211.445 119.525 211.394 119.559 211.338 119.582C211.281 119.606 211.221 119.618 211.16 119.618V119.63ZM76.6151 115.89C76.4914 115.89 76.3728 115.841 76.2854 115.754C76.198 115.666 76.1488 115.547 76.1488 115.423V111.941C76.1488 111.818 76.198 111.699 76.2854 111.611C76.3728 111.524 76.4914 111.475 76.6151 111.475C76.7387 111.475 76.8573 111.524 76.9447 111.611C77.0322 111.699 77.0813 111.818 77.0813 111.941V115.423C77.0813 115.547 77.0322 115.666 76.9447 115.754C76.8573 115.841 76.7387 115.89 76.6151 115.89ZM211.16 112.651C211.036 112.651 210.917 112.602 210.83 112.515C210.743 112.427 210.693 112.308 210.693 112.185V108.707C210.689 108.643 210.697 108.579 210.719 108.519C210.74 108.458 210.773 108.403 210.817 108.356C210.861 108.309 210.914 108.271 210.972 108.246C211.031 108.22 211.094 108.207 211.158 108.207C211.223 108.207 211.286 108.22 211.345 108.246C211.403 108.271 211.456 108.309 211.5 108.356C211.543 108.403 211.577 108.458 211.598 108.519C211.62 108.579 211.628 108.643 211.623 108.707V112.189C211.623 112.312 211.574 112.43 211.487 112.516C211.4 112.603 211.282 112.651 211.16 112.651ZM76.6151 108.926C76.4914 108.926 76.3728 108.877 76.2854 108.789C76.198 108.702 76.1488 108.583 76.1488 108.459V104.98C76.1488 104.856 76.198 104.737 76.2854 104.649C76.3728 104.562 76.4914 104.513 76.6151 104.513C76.7387 104.513 76.8573 104.562 76.9447 104.649C77.0322 104.737 77.0813 104.856 77.0813 104.98V108.459C77.0813 108.583 77.0322 108.702 76.9447 108.789C76.8573 108.877 76.7387 108.926 76.6151 108.926ZM211.16 105.692C211.036 105.692 210.917 105.643 210.83 105.555C210.743 105.468 210.693 105.349 210.693 105.225V101.746C210.689 101.682 210.697 101.617 210.719 101.557C210.74 101.496 210.773 101.441 210.817 101.394C210.861 101.347 210.914 101.309 210.972 101.284C211.031 101.258 211.094 101.245 211.158 101.245C211.223 101.245 211.286 101.258 211.345 101.284C211.403 101.309 211.456 101.347 211.5 101.394C211.543 101.441 211.577 101.496 211.598 101.557C211.62 101.617 211.628 101.682 211.623 101.746V105.225C211.624 105.286 211.612 105.347 211.589 105.404C211.566 105.46 211.532 105.512 211.488 105.555C211.445 105.599 211.394 105.633 211.338 105.656C211.281 105.68 211.221 105.692 211.16 105.692ZM76.6151 101.964C76.4914 101.964 76.3728 101.915 76.2854 101.828C76.198 101.74 76.1488 101.621 76.1488 101.498V98.0154C76.1488 97.8916 76.198 97.7728 76.2854 97.6853C76.3728 97.5977 76.4914 97.5485 76.6151 97.5485C76.7387 97.5485 76.8573 97.5977 76.9447 97.6853C77.0322 97.7728 77.0813 97.8916 77.0813 98.0154V101.498C77.0813 101.621 77.0322 101.74 76.9447 101.828C76.8573 101.915 76.7387 101.964 76.6151 101.964ZM211.16 98.7303C211.036 98.7303 210.917 98.6811 210.83 98.5936C210.743 98.506 210.693 98.3873 210.693 98.2634V94.7813C210.689 94.7174 210.697 94.6531 210.719 94.5926C210.74 94.5321 210.773 94.4766 210.817 94.4297C210.861 94.3827 210.914 94.3453 210.972 94.3196C211.031 94.294 211.094 94.2808 211.158 94.2808C211.223 94.2808 211.286 94.294 211.345 94.3196C211.403 94.3453 211.456 94.3827 211.5 94.4297C211.543 94.4766 211.577 94.5321 211.598 94.5926C211.62 94.6531 211.628 94.7174 211.623 94.7813V98.2634C211.624 98.3246 211.612 98.3853 211.589 98.4419C211.566 98.4986 211.532 98.55 211.488 98.5934C211.445 98.6368 211.394 98.6712 211.338 98.6947C211.281 98.7182 211.221 98.7303 211.16 98.7303ZM76.6151 95.0002C76.4914 95.0002 76.3728 94.951 76.2854 94.8635C76.198 94.7759 76.1488 94.6571 76.1488 94.5333V91.0537C76.1488 90.9298 76.198 90.8111 76.2854 90.7235C76.3728 90.636 76.4914 90.5868 76.6151 90.5868C76.7387 90.5868 76.8573 90.636 76.9447 90.7235C77.0322 90.8111 77.0813 90.9298 77.0813 91.0537V94.5333C77.0813 94.6571 77.0322 94.7759 76.9447 94.8635C76.8573 94.951 76.7387 95.0002 76.6151 95.0002ZM211.16 91.7661C211.036 91.7661 210.917 91.7169 210.83 91.6294C210.743 91.5418 210.693 91.4231 210.693 91.2993V87.8172C210.702 87.6995 210.755 87.5894 210.841 87.509C210.927 87.4286 211.041 87.384 211.158 87.384C211.276 87.384 211.39 87.4286 211.476 87.509C211.562 87.5894 211.615 87.6995 211.623 87.8172V91.2993C211.624 91.3605 211.612 91.4211 211.589 91.4777C211.566 91.5344 211.532 91.5858 211.488 91.6292C211.445 91.6726 211.394 91.7071 211.338 91.7305C211.281 91.754 211.221 91.7661 211.16 91.7661ZM76.6151 88.0384C76.4914 88.0384 76.3728 87.9892 76.2854 87.9017C76.198 87.8141 76.1488 87.6954 76.1488 87.5716V84.0895C76.1488 83.9656 76.198 83.8469 76.2854 83.7593C76.3728 83.6718 76.4914 83.6226 76.6151 83.6226C76.7387 83.6226 76.8573 83.6718 76.9447 83.7593C77.0322 83.8469 77.0813 83.9656 77.0813 84.0895V87.5716C77.0813 87.6954 77.0322 87.8141 76.9447 87.9017C76.8573 87.9892 76.7387 88.0384 76.6151 88.0384ZM211.16 84.8019C211.099 84.8023 211.038 84.7905 210.981 84.7673C210.925 84.7441 210.874 84.7099 210.83 84.6668C210.787 84.6236 210.752 84.5723 210.729 84.5158C210.706 84.4593 210.693 84.3987 210.693 84.3375V80.8554C210.689 80.7914 210.697 80.7272 210.719 80.6667C210.74 80.6062 210.773 80.5507 210.817 80.5037C210.861 80.4568 210.914 80.4193 210.972 80.3937C211.031 80.3681 211.094 80.3548 211.158 80.3548C211.223 80.3548 211.286 80.3681 211.345 80.3937C211.403 80.4193 211.456 80.4568 211.5 80.5037C211.543 80.5507 211.577 80.6062 211.598 80.6667C211.62 80.7272 211.628 80.7914 211.623 80.8554V84.3375C211.624 84.3986 211.612 84.4591 211.589 84.5156C211.566 84.5721 211.531 84.6234 211.488 84.6666C211.445 84.7098 211.394 84.744 211.338 84.7672C211.281 84.7905 211.221 84.8023 211.16 84.8019ZM76.6151 81.0742C76.4914 81.0742 76.3728 81.0251 76.2854 80.9375C76.198 80.8499 76.1488 80.7312 76.1488 80.6074V77.1277C76.1495 77.0043 76.1989 76.8862 76.2862 76.7991C76.3736 76.7121 76.4918 76.6633 76.6151 76.6633C76.7383 76.6633 76.8565 76.7121 76.9439 76.7991C77.0312 76.8862 77.0806 77.0043 77.0813 77.1277V80.6074C77.0813 80.7312 77.0322 80.8499 76.9447 80.9375C76.8573 81.0251 76.7387 81.0742 76.6151 81.0742ZM211.16 77.8402C211.036 77.8402 210.917 77.791 210.83 77.7034C210.743 77.6159 210.693 77.4971 210.693 77.3733V73.8912C210.694 73.7678 210.744 73.6497 210.831 73.5626C210.918 73.4756 211.036 73.4268 211.16 73.4268C211.283 73.4268 211.401 73.4757 211.488 73.5628C211.575 73.6499 211.623 73.768 211.623 73.8912V77.3733C211.624 77.4345 211.612 77.4951 211.589 77.5518C211.566 77.6084 211.532 77.6599 211.488 77.7033C211.445 77.7467 211.394 77.7811 211.338 77.8046C211.281 77.8281 211.221 77.8402 211.16 77.8402ZM76.6151 74.1125C76.4914 74.1125 76.3728 74.0633 76.2854 73.9757C76.198 73.8882 76.1488 73.7694 76.1488 73.6456V70.1635C76.1488 70.0397 76.198 69.9209 76.2854 69.8334C76.3728 69.7458 76.4914 69.6966 76.6151 69.6966C76.7387 69.6966 76.8573 69.7458 76.9447 69.8334C77.0322 69.9209 77.0813 70.0397 77.0813 70.1635V73.6456C77.0813 73.7694 77.0322 73.8882 76.9447 73.9757C76.8573 74.0633 76.7387 74.1125 76.6151 74.1125ZM211.16 70.876C211.099 70.8763 211.038 70.8645 210.981 70.8413C210.925 70.8181 210.874 70.784 210.83 70.7408C210.787 70.6976 210.752 70.6463 210.729 70.5898C210.706 70.5333 210.693 70.4727 210.693 70.4115V66.9367C210.693 66.8129 210.743 66.6942 210.83 66.6066C210.917 66.519 211.036 66.4699 211.16 66.4699C211.221 66.4699 211.281 66.4819 211.338 66.5054C211.394 66.5289 211.445 66.5634 211.488 66.6067C211.532 66.6501 211.566 66.7016 211.589 66.7582C211.612 66.8149 211.624 66.8755 211.623 66.9367V70.4188C211.622 70.5409 211.573 70.6576 211.486 70.7432C211.399 70.8289 211.282 70.8766 211.16 70.876ZM76.6151 67.1483C76.4935 67.1483 76.3767 67.1008 76.2896 67.0159C76.2025 66.9309 76.152 66.8153 76.1488 66.6936V63.2017C76.1488 63.0779 76.198 62.9592 76.2854 62.8716C76.3728 62.7841 76.4914 62.7349 76.6151 62.7349C76.7387 62.7349 76.8573 62.7841 76.9447 62.8716C77.0322 62.9592 77.0813 63.0779 77.0813 63.2017V66.6936C77.0781 66.8153 77.0276 66.9309 76.9405 67.0159C76.8534 67.1008 76.7366 67.1483 76.6151 67.1483ZM211.16 63.9142C211.036 63.9142 210.917 63.865 210.83 63.7775C210.743 63.6899 210.693 63.5712 210.693 63.4473V59.9652C210.693 59.904 210.706 59.8435 210.729 59.7869C210.752 59.7304 210.787 59.6791 210.83 59.636C210.874 59.5928 210.925 59.5586 210.981 59.5355C211.038 59.5123 211.099 59.5005 211.16 59.5008C211.221 59.5005 211.281 59.5123 211.338 59.5355C211.394 59.5587 211.445 59.5929 211.488 59.6361C211.531 59.6793 211.566 59.7306 211.589 59.7871C211.612 59.8436 211.624 59.9042 211.623 59.9652V63.4473C211.624 63.5085 211.612 63.5692 211.589 63.6258C211.566 63.6824 211.532 63.7339 211.488 63.7773C211.445 63.8207 211.394 63.8551 211.338 63.8786C211.281 63.9021 211.221 63.9142 211.16 63.9142ZM76.6151 60.1865C76.4914 60.1865 76.3728 60.1373 76.2854 60.0498C76.198 59.9622 76.1488 59.8435 76.1488 59.7196V56.2375C76.1487 56.1119 76.1972 55.991 76.2841 55.9004C76.3711 55.8097 76.4897 55.7562 76.6151 55.7512C76.6757 55.7503 76.736 55.7614 76.7924 55.7839C76.8487 55.8064 76.9001 55.8399 76.9434 55.8824C76.9868 55.9249 77.0213 55.9756 77.045 56.0315C77.0686 56.0875 77.081 56.1476 77.0813 56.2084V59.7075C77.0829 59.7698 77.072 59.8318 77.0493 59.8899C77.0266 59.9479 76.9925 60.0009 76.9491 60.0455C76.9056 60.0902 76.8537 60.1256 76.7963 60.1499C76.739 60.1741 76.6773 60.1865 76.6151 60.1865ZM211.16 56.95C211.098 56.9503 211.037 56.9384 210.98 56.9149C210.923 56.8914 210.872 56.8568 210.828 56.8131C210.785 56.7695 210.751 56.7176 210.728 56.6605C210.704 56.6034 210.693 56.5423 210.693 56.4807V56.2375C210.69 55.7639 210.585 55.2964 210.386 54.8671C210.186 54.4378 209.896 54.0568 209.535 53.75C209.489 53.7101 209.45 53.6614 209.422 53.6066C209.395 53.5517 209.378 53.492 209.373 53.4307C209.369 53.3694 209.377 53.3078 209.396 53.2495C209.415 53.1912 209.446 53.1373 209.487 53.091C209.567 52.9978 209.682 52.9404 209.804 52.9313C209.927 52.9222 210.049 52.9621 210.142 53.0424C210.604 53.437 210.975 53.9268 211.231 54.4782C211.487 55.0295 211.62 55.6296 211.623 56.2375V56.4807C211.624 56.5422 211.613 56.6033 211.59 56.6603C211.567 56.7174 211.533 56.7693 211.49 56.813C211.447 56.8567 211.395 56.8913 211.339 56.9149C211.282 56.9384 211.221 56.9503 211.16 56.95ZM78.1473 53.6965C78.0749 53.6967 78.0035 53.6801 77.9386 53.648C77.8738 53.616 77.8172 53.5693 77.7733 53.5117C77.6996 53.4129 77.668 53.2889 77.6853 53.1668C77.7026 53.0447 77.7674 52.9344 77.8656 52.86C78.6583 52.2626 79.6246 51.9415 80.6167 51.9457H81.4399C81.5631 51.9457 81.6814 51.9946 81.7687 52.0816C81.8561 52.1686 81.9055 52.2868 81.9061 52.4102C81.9061 52.534 81.857 52.6527 81.7696 52.7403C81.6821 52.8278 81.5636 52.877 81.4399 52.877H80.6167C79.8282 52.8744 79.0606 53.1306 78.4314 53.6065C78.3491 53.667 78.2493 53.6986 78.1473 53.6965ZM206.6 52.877H203.122C202.999 52.877 202.88 52.8278 202.793 52.7403C202.705 52.6527 202.656 52.534 202.656 52.4102C202.657 52.2868 202.706 52.1686 202.794 52.0816C202.881 51.9946 202.999 51.9457 203.122 51.9457H206.6C206.723 51.9457 206.841 51.9946 206.928 52.0816C207.016 52.1686 207.065 52.2868 207.066 52.4102C207.066 52.534 207.017 52.6527 206.929 52.7403C206.842 52.8278 206.723 52.877 206.6 52.877ZM199.648 52.877H196.158C196.097 52.877 196.036 52.865 195.98 52.8415C195.923 52.818 195.872 52.7836 195.829 52.7403C195.785 52.6969 195.751 52.6455 195.727 52.5888C195.704 52.5322 195.692 52.4715 195.692 52.4102C195.693 52.2868 195.742 52.1686 195.829 52.0816C195.917 51.9946 196.035 51.9457 196.158 51.9457H199.635C199.759 51.9457 199.877 51.9946 199.964 52.0816C200.052 52.1686 200.101 52.2868 200.102 52.4102C200.102 52.5323 200.054 52.6496 199.969 52.7369C199.883 52.8242 199.767 52.8745 199.645 52.877H199.648ZM192.693 52.877H189.216C189.092 52.877 188.974 52.8278 188.886 52.7403C188.799 52.6527 188.75 52.534 188.75 52.4102C188.75 52.2868 188.8 52.1686 188.887 52.0816C188.975 51.9946 189.093 51.9457 189.216 51.9457H192.691C192.814 51.9457 192.932 51.9946 193.02 52.0816C193.107 52.1686 193.156 52.2868 193.157 52.4102C193.157 52.534 193.108 52.6527 193.02 52.7403C192.933 52.8278 192.814 52.877 192.691 52.877H192.693ZM185.741 52.877H182.262C182.138 52.877 182.019 52.8278 181.932 52.7403C181.844 52.6527 181.795 52.534 181.795 52.4102C181.796 52.2868 181.845 52.1686 181.933 52.0816C182.02 51.9946 182.138 51.9457 182.262 51.9457H185.739C185.862 51.9464 185.979 51.9955 186.066 52.0825C186.153 52.1694 186.202 52.2872 186.203 52.4102C186.203 52.5336 186.154 52.6519 186.067 52.7394C185.98 52.8269 185.862 52.8764 185.739 52.877H185.741ZM178.787 52.877H175.31C175.186 52.877 175.067 52.8278 174.98 52.7403C174.893 52.6527 174.843 52.534 174.843 52.4102C174.844 52.2868 174.893 52.1686 174.981 52.0816C175.068 51.9946 175.186 51.9457 175.31 51.9457H178.784C178.908 51.9457 179.026 51.9946 179.113 52.0816C179.201 52.1686 179.25 52.2868 179.251 52.4102C179.251 52.534 179.201 52.6527 179.114 52.7403C179.027 52.8278 178.908 52.877 178.784 52.877H178.787ZM171.835 52.877H168.355C168.232 52.877 168.113 52.8278 168.026 52.7403C167.938 52.6527 167.889 52.534 167.889 52.4102C167.89 52.2868 167.939 52.1686 168.026 52.0816C168.114 51.9946 168.232 51.9457 168.355 51.9457H171.832C171.956 51.9457 172.074 51.9946 172.161 52.0816C172.249 52.1686 172.298 52.2868 172.299 52.4102C172.299 52.534 172.25 52.6527 172.162 52.7403C172.075 52.8278 171.956 52.877 171.832 52.877H171.835ZM164.88 52.877H161.403C161.282 52.8739 161.166 52.8233 161.081 52.7361C160.997 52.6488 160.949 52.5319 160.949 52.4102C160.95 52.2868 160.999 52.1686 161.087 52.0816C161.174 51.9946 161.292 51.9457 161.415 51.9457H164.89C165.013 51.9457 165.132 51.9946 165.219 52.0816C165.306 52.1686 165.356 52.2868 165.356 52.4102C165.356 52.4725 165.344 52.5342 165.32 52.5917C165.296 52.6491 165.26 52.7011 165.216 52.7447C165.171 52.7882 165.118 52.8223 165.06 52.845C165.002 52.8678 164.94 52.8787 164.878 52.877H164.88ZM157.928 52.877H154.449C154.325 52.877 154.207 52.8278 154.119 52.7403C154.032 52.6527 153.983 52.534 153.983 52.4102C153.983 52.2868 154.033 52.1686 154.12 52.0816C154.207 51.9946 154.326 51.9457 154.449 51.9457H157.926C157.987 51.9457 158.047 51.9577 158.104 51.9811C158.16 52.0044 158.211 52.0386 158.254 52.0817C158.297 52.1249 158.331 52.1761 158.355 52.2324C158.378 52.2888 158.39 52.3492 158.39 52.4102C158.39 52.4714 158.378 52.532 158.355 52.5886C158.332 52.6453 158.298 52.6968 158.255 52.7401C158.212 52.7835 158.161 52.818 158.104 52.8414C158.048 52.8649 157.987 52.877 157.926 52.877H157.928ZM150.974 52.877H147.494C147.371 52.8764 147.253 52.8269 147.166 52.7394C147.079 52.6519 147.031 52.5336 147.031 52.4102C147.031 52.2872 147.08 52.1694 147.167 52.0825C147.254 51.9955 147.372 51.9464 147.494 51.9457H150.972C151.095 51.9457 151.213 51.9946 151.3 52.0816C151.388 52.1686 151.437 52.2868 151.438 52.4102C151.438 52.534 151.389 52.6527 151.301 52.7403C151.214 52.8278 151.095 52.877 150.972 52.877H150.974ZM144.022 52.877H140.552C140.489 52.8797 140.427 52.8695 140.368 52.8472C140.309 52.825 140.255 52.791 140.21 52.7474C140.165 52.7037 140.128 52.6514 140.104 52.5934C140.079 52.5355 140.067 52.4731 140.067 52.4102C140.067 52.3474 140.08 52.2853 140.105 52.2276C140.129 52.17 140.165 52.1179 140.211 52.0745C140.256 52.0312 140.31 51.9974 140.368 51.9753C140.427 51.9532 140.49 51.9431 140.552 51.9457H144.029C144.152 51.9457 144.27 51.9947 144.357 52.0817C144.444 52.1688 144.493 52.287 144.493 52.4102C144.494 52.4722 144.481 52.5336 144.458 52.5909C144.434 52.6482 144.399 52.7001 144.355 52.7436C144.311 52.7872 144.258 52.8214 144.201 52.8443C144.143 52.8672 144.082 52.8783 144.02 52.877H144.022ZM137.068 52.877H133.588C133.527 52.877 133.467 52.8649 133.41 52.8414C133.354 52.818 133.302 52.7835 133.259 52.7401C133.216 52.6968 133.182 52.6453 133.159 52.5886C133.136 52.532 133.124 52.4714 133.124 52.4102C133.124 52.287 133.173 52.1688 133.26 52.0817C133.347 51.9947 133.465 51.9457 133.588 51.9457H137.065C137.189 51.9457 137.307 51.9946 137.394 52.0816C137.481 52.1686 137.531 52.2868 137.532 52.4102C137.532 52.534 137.482 52.6527 137.395 52.7403C137.308 52.8278 137.189 52.877 137.065 52.877H137.068ZM130.116 52.877H126.636C126.513 52.877 126.394 52.8278 126.306 52.7403C126.219 52.6527 126.17 52.534 126.17 52.4102C126.171 52.2868 126.22 52.1686 126.307 52.0816C126.395 51.9946 126.513 51.9457 126.636 51.9457H130.111C130.234 51.9457 130.352 51.9947 130.439 52.0817C130.526 52.1688 130.575 52.287 130.575 52.4102C130.575 52.4714 130.563 52.532 130.54 52.5886C130.517 52.6453 130.483 52.6968 130.44 52.7401C130.397 52.7835 130.345 52.818 130.289 52.8414C130.233 52.8649 130.172 52.877 130.111 52.877H130.116ZM123.161 52.877H119.682C119.621 52.877 119.56 52.8649 119.504 52.8414C119.447 52.818 119.396 52.7835 119.353 52.7401C119.31 52.6968 119.276 52.6453 119.253 52.5886C119.229 52.532 119.218 52.4714 119.218 52.4102C119.218 52.287 119.267 52.1688 119.354 52.0817C119.441 51.9947 119.559 51.9457 119.682 51.9457H123.159C123.282 51.9457 123.4 51.9946 123.488 52.0816C123.575 52.1686 123.625 52.2868 123.625 52.4102C123.625 52.534 123.576 52.6527 123.489 52.7403C123.401 52.8278 123.283 52.877 123.159 52.877H123.161ZM116.209 52.877H112.73C112.606 52.877 112.488 52.8278 112.4 52.7403C112.313 52.6527 112.264 52.534 112.264 52.4102C112.264 52.2868 112.314 52.1686 112.401 52.0816C112.488 51.9946 112.607 51.9457 112.73 51.9457H116.207C116.33 51.9464 116.447 51.9955 116.534 52.0825C116.621 52.1694 116.67 52.2872 116.671 52.4102C116.671 52.5336 116.622 52.6519 116.535 52.7394C116.448 52.8269 116.33 52.8764 116.207 52.877H116.209ZM109.255 52.877H105.775C105.714 52.877 105.654 52.8649 105.597 52.8414C105.541 52.818 105.49 52.7835 105.447 52.7401C105.404 52.6968 105.369 52.6453 105.346 52.5886C105.323 52.532 105.311 52.4714 105.312 52.4102C105.312 52.287 105.36 52.1688 105.447 52.0817C105.534 51.9947 105.652 51.9457 105.775 51.9457H109.253C109.375 51.947 109.492 51.9964 109.578 52.0833C109.665 52.1702 109.713 52.2876 109.714 52.4102C109.714 52.5331 109.666 52.6512 109.579 52.7386C109.493 52.826 109.375 52.8758 109.253 52.877H109.255ZM102.303 52.877H98.8235C98.6998 52.877 98.5812 52.8278 98.4938 52.7403C98.4064 52.6527 98.3572 52.534 98.3572 52.4102C98.3579 52.2868 98.4073 52.1686 98.4946 52.0816C98.582 51.9946 98.7002 51.9457 98.8235 51.9457H102.301C102.423 51.9464 102.541 51.9955 102.628 52.0825C102.715 52.1694 102.764 52.2872 102.764 52.4102C102.764 52.5336 102.716 52.6519 102.629 52.7394C102.542 52.8269 102.424 52.8764 102.301 52.877H102.303ZM95.3487 52.877H91.8691C91.7454 52.877 91.6268 52.8278 91.5394 52.7403C91.452 52.6527 91.4029 52.534 91.4029 52.4102C91.4035 52.2868 91.4529 52.1686 91.5403 52.0816C91.6276 51.9946 91.7458 51.9457 91.8691 51.9457H95.3463C95.4695 51.9457 95.5877 51.9946 95.6751 52.0816C95.7624 52.1686 95.8118 52.2868 95.8125 52.4102C95.8125 52.534 95.7634 52.6527 95.6759 52.7403C95.5885 52.8278 95.4699 52.877 95.3463 52.877H95.3487ZM88.3943 52.877H84.9171C84.7951 52.8745 84.679 52.8242 84.5937 52.7369C84.5084 52.6496 84.4606 52.5323 84.4606 52.4102C84.4612 52.2868 84.5106 52.1686 84.598 52.0816C84.6854 51.9946 84.8036 51.9457 84.9268 51.9457H88.3919C88.5151 51.9457 88.6333 51.9946 88.7207 52.0816C88.808 52.1686 88.8574 52.2868 88.8581 52.4102C88.8581 52.4715 88.846 52.5322 88.8226 52.5888C88.7992 52.6455 88.7648 52.6969 88.7215 52.7403C88.6782 52.7836 88.6268 52.818 88.5703 52.8415C88.5137 52.865 88.4531 52.877 88.3919 52.877H88.3943Z" fill="#C0DAFF"/>
<path d="M216.001 115.625H92.4051C91.1559 115.624 89.9581 115.127 89.0748 114.242C88.1915 113.358 87.695 112.158 87.6943 110.907V40.6744C87.6943 39.4233 88.1906 38.2234 89.0741 37.3387C89.9575 36.454 91.1557 35.957 92.4051 35.957H216.001C217.25 35.957 218.449 36.454 219.333 37.3386C220.217 38.2232 220.713 39.423 220.714 40.6744V110.907C220.713 112.159 220.217 113.358 219.333 114.243C218.449 115.128 217.25 115.625 216.001 115.625Z" fill="#66A2FF"/>
<path d="M220.715 51H87.6855V64.7484H220.715V51Z" fill="#0046B3"/>
<path d="M118.156 100.34H98.5972C98.0023 100.343 97.4329 100.582 97.0134 101.004C96.5939 101.427 96.3584 101.998 96.3584 102.594C96.3584 103.192 96.5956 103.765 97.0177 104.188C97.4398 104.611 98.0124 104.848 98.6093 104.848H118.169C118.766 104.848 119.338 104.611 119.76 104.188C120.182 103.765 120.42 103.192 120.42 102.594C120.42 102.297 120.361 102.003 120.247 101.729C120.133 101.454 119.966 101.205 119.756 100.996C119.546 100.786 119.296 100.621 119.022 100.508C118.747 100.395 118.453 100.338 118.156 100.34Z" fill="#D1F5FF"/>
<path d="M148.235 100.34H128.676C128.079 100.34 127.506 100.577 127.084 101C126.662 101.423 126.425 101.996 126.425 102.594C126.425 103.192 126.662 103.765 127.084 104.188C127.506 104.611 128.079 104.848 128.676 104.848H148.235C148.832 104.848 149.405 104.611 149.827 104.188C150.249 103.765 150.486 103.192 150.486 102.594C150.486 101.996 150.249 101.423 149.827 101C149.405 100.577 148.832 100.34 148.235 100.34Z" fill="#D1F5FF"/>
<path d="M178.313 100.34H158.764C158.167 100.34 157.594 100.577 157.172 101C156.75 101.423 156.513 101.996 156.513 102.594C156.513 103.192 156.75 103.765 157.172 104.188C157.594 104.611 158.167 104.848 158.764 104.848H178.323C178.92 104.848 179.492 104.611 179.915 104.188C180.337 103.765 180.574 103.192 180.574 102.594C180.574 102.297 180.515 102.003 180.402 101.729C180.288 101.455 180.121 101.206 179.911 100.997C179.701 100.787 179.452 100.621 179.178 100.509C178.903 100.396 178.61 100.339 178.313 100.34Z" fill="#D1F5FF"/>
<path d="M208.394 100.34H188.832C188.235 100.34 187.662 100.577 187.24 101C186.818 101.423 186.581 101.996 186.581 102.594C186.581 103.192 186.818 103.765 187.24 104.188C187.662 104.611 188.235 104.848 188.832 104.848H208.394C208.991 104.848 209.563 104.611 209.985 104.188C210.407 103.765 210.645 103.192 210.645 102.594C210.645 101.996 210.407 101.423 209.985 101C209.563 100.577 208.991 100.34 208.394 100.34Z" fill="#D1F5FF"/>
<path d="M97.6964 40C97.3698 39.9997 97.0463 40.0639 96.7445 40.1889C96.4427 40.3139 96.1685 40.4973 95.9375 40.7286C95.7066 40.9599 95.5234 41.2345 95.3986 41.5367C95.2737 41.839 95.2096 42.1629 95.21 42.49V43.3629C95.21 43.6898 95.2743 44.0135 95.3993 44.3155C95.5243 44.6174 95.7075 44.8918 95.9384 45.1228C96.1693 45.3538 96.4434 45.537 96.7451 45.6618C97.0468 45.7867 97.37 45.8508 97.6964 45.8505C98.0227 45.8505 98.3457 45.7862 98.647 45.6612C98.9484 45.5361 99.2223 45.3529 99.4529 45.1219C99.6836 44.8909 99.8666 44.6167 99.9914 44.3149C100.116 44.0131 100.18 43.6896 100.18 43.3629V42.49C100.181 42.1631 100.117 41.8394 99.9921 41.5373C99.8674 41.2352 99.6845 40.9607 99.4538 40.7294C99.2231 40.4982 98.9491 40.3148 98.6476 40.1896C98.3461 40.0644 98.0229 40 97.6964 40Z" fill="#D1F5FF"/>
<path d="M103.049 42.9219C103.049 43.6958 103.356 44.438 103.902 44.9852C104.449 45.5324 105.19 45.8398 105.963 45.8398H116.317C117.089 45.8398 117.831 45.5324 118.377 44.9852C118.923 44.438 119.23 43.6958 119.23 42.9219C119.23 42.148 118.923 41.4058 118.377 40.8586C117.831 40.3113 117.089 40.0039 116.317 40.0039H105.97C105.587 40.003 105.207 40.0777 104.853 40.2239C104.498 40.3701 104.176 40.5849 103.905 40.856C103.634 41.127 103.418 41.449 103.271 41.8035C103.124 42.158 103.049 42.5381 103.049 42.9219Z" fill="#D1F5FF"/>
<path d="M115.063 72.1445H101.691C99.5478 72.1445 97.8105 73.8842 97.8105 76.0303V87.5757C97.8105 89.7217 99.5478 91.4614 101.691 91.4614H115.063C117.206 91.4614 118.943 89.7217 118.943 87.5757V76.0303C118.943 73.8842 117.206 72.1445 115.063 72.1445Z" fill="#FF9F34"/>
<path d="M361.518 99.4034C363.041 93.4135 363.356 87.1795 362.443 81.0664L364.328 80.7844L368.048 80.2275H368.096C367.101 73.48 364.791 66.9943 361.297 61.1392L356.397 64.0572C353.24 58.748 349.057 54.1228 344.093 50.4522L347.493 45.8491C342.027 41.7742 335.812 38.8192 329.204 37.1536L327.798 42.7099C321.816 41.1829 315.591 40.8679 309.486 41.7834L308.637 36.125C301.901 37.1299 295.427 39.4427 289.578 42.9336L292.491 47.8406C287.186 51.0023 282.564 55.1909 278.893 60.1617L274.297 56.7574C270.231 62.2308 267.285 68.4539 265.626 75.07L271.174 76.4779C269.649 82.4667 269.335 88.7003 270.249 94.8125L266.25 95.4106L264.618 95.6684H264.599C265.602 102.413 267.912 108.896 271.398 114.754L276.298 111.836C279.463 117.149 283.653 121.778 288.623 125.453L285.224 130.057C290.681 134.124 296.886 137.072 303.484 138.73L304.89 133.174C310.877 134.703 317.109 135.021 323.22 134.108L323.874 138.506L324.068 139.766C330.797 138.76 337.264 136.447 343.107 132.957L340.194 128.048C345.498 124.874 350.124 120.682 353.806 115.712L358.403 119.117C362.456 113.643 365.397 107.426 367.059 100.819L361.518 99.4034ZM310.13 112.505C305.28 111.277 300.902 108.636 297.551 104.916C294.2 101.196 292.025 96.5651 291.302 91.6078C290.579 86.6505 291.341 81.5899 293.49 77.0659C295.639 72.5418 299.08 68.7576 303.377 66.1918C307.674 63.626 312.634 62.3937 317.63 62.6509C322.626 62.908 327.434 64.6431 331.446 67.6366C335.457 70.6301 338.492 74.7476 340.167 79.4684C341.842 84.1893 342.081 89.3014 340.854 94.1583C340.04 97.3834 338.599 100.416 336.615 103.084C334.63 105.751 332.14 108.001 329.287 109.705C326.434 111.408 323.274 112.533 319.987 113.013C316.7 113.494 313.35 113.321 310.13 112.505V112.505Z" stroke="#B3D1FF" stroke-width="4" stroke-linejoin="round"/>
<path d="M383.319 150.212C381.298 147.663 378.789 145.545 375.94 143.979L376.425 143.099L377.377 141.36V141.336C374.236 139.605 370.786 138.509 367.223 138.109L366.892 141.103C363.664 140.737 360.395 141.018 357.277 141.932L356.434 139.038C352.985 140.032 349.766 141.7 346.964 143.945L348.841 146.304C346.297 148.328 344.182 150.841 342.62 153.694L339.981 152.247C338.252 155.392 337.155 158.846 336.751 162.414L339.735 162.752C339.37 165.985 339.651 169.258 340.563 172.381L337.671 173.225C338.666 176.678 340.331 179.901 342.571 182.708L344.929 180.828C346.952 183.379 349.465 185.498 352.318 187.061L351.294 188.93L350.883 189.696C354.024 191.424 357.472 192.521 361.033 192.926L361.373 189.937C364.604 190.301 367.876 190.016 370.996 189.101L371.839 191.994C375.287 191.005 378.506 189.34 381.309 187.097L379.432 184.736C381.974 182.707 384.087 180.191 385.645 177.334L387.695 178.462L388.285 178.781C390.008 175.635 391.099 172.182 391.497 168.617L388.516 168.279C388.877 165.041 388.596 161.763 387.688 158.635L390.58 157.791C389.578 154.345 387.913 151.129 385.677 148.325L383.319 150.212ZM372.431 175.953C370.372 177.597 367.872 178.593 365.248 178.814C362.623 179.035 359.992 178.473 357.687 177.197C355.382 175.921 353.507 173.989 352.298 171.646C351.09 169.302 350.602 166.653 350.897 164.032C351.192 161.411 352.257 158.937 353.956 156.922C355.656 154.907 357.913 153.442 360.444 152.712C362.975 151.982 365.665 152.02 368.174 152.821C370.684 153.622 372.899 155.15 374.541 157.212C375.631 158.582 376.442 160.152 376.926 161.835C377.41 163.518 377.558 165.28 377.362 167.02C377.166 168.76 376.63 170.445 375.784 171.978C374.938 173.51 373.798 174.861 372.431 175.953V175.953Z" stroke="#B3D1FF" stroke-width="4" stroke-linejoin="round"/>
<path d="M170.596 287.781C168.264 284.841 165.37 282.396 162.082 280.591L162.636 279.575L163.736 277.566V277.542C160.11 275.543 156.128 274.277 152.015 273.816L151.639 277.274C147.917 276.851 144.148 277.173 140.551 278.223L139.58 274.881C135.601 276.029 131.887 277.954 128.653 280.545L130.819 283.268C127.882 285.603 125.441 288.503 123.639 291.796L120.594 290.125C118.603 293.758 117.339 297.745 116.874 301.863L120.317 302.252C119.896 305.983 120.221 309.761 121.274 313.364L117.938 314.337C119.084 318.322 121.006 322.041 123.593 325.279L126.312 323.108C128.644 326.049 131.54 328.494 134.828 330.298L133.646 332.455L133.172 333.34H133.16C136.788 335.333 140.769 336.598 144.881 337.063L145.272 333.615C149.001 334.032 152.776 333.701 156.376 332.642L157.347 335.983C161.326 334.839 165.04 332.917 168.274 330.33L166.106 327.604C169.046 325.266 171.491 322.365 173.298 319.069L175.663 320.37L176.343 320.74C178.331 317.109 179.59 313.124 180.051 309.009L176.591 308.642C177.008 304.905 176.683 301.122 175.637 297.51L178.973 296.538C177.819 292.561 175.898 288.85 173.318 285.615L170.596 287.781ZM158.035 317.489C155.659 319.387 152.774 320.537 149.745 320.794C146.716 321.051 143.68 320.402 141.019 318.931C138.358 317.459 136.193 315.23 134.797 312.526C133.401 309.822 132.838 306.764 133.177 303.74C133.517 300.715 134.745 297.859 136.705 295.533C138.666 293.207 141.271 291.515 144.192 290.672C147.112 289.828 150.217 289.871 153.113 290.795C156.01 291.719 158.567 293.482 160.463 295.862C161.722 297.441 162.657 299.254 163.217 301.195C163.776 303.137 163.948 305.17 163.722 307.179C163.497 309.187 162.878 311.131 161.902 312.9C160.927 314.669 159.612 316.228 158.035 317.489V317.489Z" stroke="#003880" stroke-width="4" stroke-miterlimit="10"/>
<path d="M316.133 87.4473C313.44 71.4496 288.838 64.2301 289.321 74.6691L176.555 75.3305C168.744 75.3767 162.406 82.4138 162.406 91.0559L162.163 388.048C162.163 397.001 168.598 404.321 176.56 404.389L291.676 405.378C292.39 406.881 293.726 408.248 295.834 409.388C309.036 409.67 315.368 403.141 317.687 395.771C318.467 393.701 318.856 391.503 318.834 389.291C318.372 385.415 316.969 91.1969 316.133 87.4473Z" fill="#66A2FF"/>
<path d="M294.61 409.438L162.474 408.585C154.218 408.531 147.56 401.013 147.574 391.806L148.079 86.3716C148.079 77.4888 154.648 70.2717 162.734 70.2474L292.315 69.8243C300.466 69.7975 307.127 77.0025 307.2 85.9266L309.536 392.779C309.606 402.019 302.924 409.492 294.61 409.438Z" fill="white"/>
<path d="M296.443 407.215C295.89 407.289 295.331 407.324 294.773 407.32L162.678 406.318C155.595 406.264 149.809 399.675 149.809 391.633L150.265 86.5387C150.265 78.7842 155.979 72.4547 162.928 72.4352L292.488 71.8711C292.692 71.8711 292.896 71.8711 293.097 71.8711C294.734 71.9589 296.337 72.3747 297.81 73.0939C299.284 73.8132 300.599 74.8212 301.676 76.0584C304.033 78.7422 305.328 82.1964 305.318 85.7703L307.637 392.924C307.7 400.205 302.897 406.347 296.443 407.215Z" fill="black"/>
<path d="M300.785 87.3125L303.012 393.397L154.201 392.504L154.58 87.3125H300.785Z" fill="#0050CC"/>
<path d="M249.008 241.335H209.171C207.549 241.33 205.994 240.683 204.846 239.536C203.698 238.388 203.05 236.832 203.042 235.208C203.047 233.582 203.694 232.023 204.843 230.874C205.991 229.724 207.547 229.075 209.171 229.07H249.008C250.632 229.075 252.188 229.723 253.337 230.873C254.485 232.023 255.132 233.581 255.137 235.208C255.13 236.832 254.481 238.388 253.333 239.536C252.185 240.684 250.63 241.331 249.008 241.335Z" fill="#FF9F34"/>
<path d="M279.317 183.496H176.308C172.923 183.496 170.179 186.244 170.179 189.634C170.179 193.023 172.923 195.771 176.308 195.771H279.317C282.702 195.771 285.446 193.023 285.446 189.634C285.446 186.244 282.702 183.496 279.317 183.496Z" fill="white"/>
<path d="M279.314 215.541H176.305C174.681 215.535 173.125 214.887 171.977 213.737C170.828 212.587 170.181 211.029 170.176 209.403C170.181 207.777 170.828 206.219 171.977 205.069C173.125 203.919 174.681 203.271 176.305 203.266H279.314C280.938 203.271 282.494 203.919 283.642 205.069C284.79 206.219 285.438 207.777 285.443 209.403C285.438 211.029 284.79 212.587 283.642 213.737C282.494 214.887 280.938 215.535 279.314 215.541Z" fill="white"/>
<path d="M195.541 209.947C195.541 210.374 195.414 210.792 195.177 211.148C194.94 211.503 194.603 211.78 194.208 211.944C193.814 212.108 193.38 212.151 192.961 212.067C192.542 211.984 192.158 211.778 191.856 211.475C191.554 211.173 191.348 210.788 191.265 210.369C191.182 209.949 191.225 209.515 191.388 209.12C191.551 208.725 191.828 208.387 192.183 208.149C192.538 207.912 192.955 207.785 193.382 207.785C193.955 207.785 194.504 208.013 194.909 208.418C195.314 208.824 195.541 209.374 195.541 209.947Z" fill="#80B2FF"/>
<path d="M202.9 210.406C203.148 209.239 202.403 208.091 201.237 207.842C200.071 207.594 198.925 208.339 198.677 209.507C198.429 210.674 199.173 211.822 200.339 212.071C201.505 212.319 202.651 211.574 202.9 210.406Z" fill="#80B2FF"/>
<path d="M209.707 211.478C210.55 210.634 210.55 209.265 209.707 208.421C208.864 207.576 207.497 207.576 206.654 208.421C205.811 209.265 205.811 210.634 206.654 211.478C207.497 212.322 208.864 212.322 209.707 211.478Z" fill="#80B2FF"/>
<path d="M217.105 211.474C217.948 210.63 217.948 209.261 217.105 208.417C216.262 207.573 214.895 207.573 214.052 208.417C213.209 209.261 213.209 210.63 214.052 211.474C214.895 212.318 216.262 212.318 217.105 211.474Z" fill="#80B2FF"/>
<path d="M223.802 211.944C224.903 211.488 225.426 210.223 224.97 209.12C224.514 208.017 223.251 207.493 222.15 207.95C221.048 208.407 220.525 209.672 220.981 210.775C221.438 211.878 222.7 212.401 223.802 211.944Z" fill="#80B2FF"/>
<path d="M232.47 210.436C232.744 209.274 232.025 208.11 230.865 207.836C229.705 207.561 228.542 208.281 228.268 209.443C227.994 210.605 228.713 211.769 229.873 212.043C231.034 212.318 232.196 211.598 232.47 210.436Z" fill="#80B2FF"/>
<path d="M239.298 211.474C240.141 210.63 240.141 209.261 239.298 208.417C238.455 207.573 237.088 207.573 236.245 208.417C235.402 209.261 235.402 210.63 236.245 211.474C237.088 212.318 238.455 212.318 239.298 211.474Z" fill="#80B2FF"/>
<path d="M246.695 211.474C247.538 210.63 247.538 209.261 246.695 208.417C245.852 207.573 244.486 207.573 243.643 208.417C242.8 209.261 242.8 210.63 243.643 211.474C244.486 212.318 245.852 212.318 246.695 211.474Z" fill="#80B2FF"/>
<path d="M253.394 211.944C254.495 211.488 255.018 210.223 254.562 209.12C254.106 208.017 252.843 207.493 251.741 207.95C250.64 208.407 250.117 209.671 250.573 210.774C251.029 211.877 252.292 212.401 253.394 211.944Z" fill="#80B2FF"/>
<path d="M244.591 159.377C253.839 150.117 253.839 135.102 244.591 125.842C235.343 116.581 220.35 116.581 211.103 125.842C201.855 135.102 201.855 150.117 211.103 159.377C220.35 168.638 235.343 168.638 244.591 159.377Z" fill="white"/>
<path d="M227.879 141.659C228.999 141.65 230.102 141.389 231.107 140.896C232.112 140.402 232.994 139.689 233.687 138.809C234.738 137.496 235.304 135.86 235.288 134.177C235.288 132.201 234.504 130.306 233.109 128.909C231.713 127.512 229.821 126.727 227.848 126.727C225.874 126.727 223.982 127.512 222.587 128.909C221.191 130.306 220.408 132.201 220.408 134.177C220.392 135.86 220.958 137.497 222.01 138.809C222.711 139.696 223.603 140.413 224.619 140.906C225.636 141.4 226.75 141.657 227.879 141.659Z" fill="#005CEA"/>
<path d="M241.004 154.987C241.004 159.707 214.68 159.707 214.68 154.987V149.486C215.719 141.965 238.855 141.649 240.999 149.486L241.004 154.987Z" fill="#005CEA"/>
<path d="M181.414 208.27V207.942C181.414 207.302 181.16 206.687 180.707 206.235C180.255 205.782 179.642 205.527 179.002 205.527C178.363 205.527 177.75 205.782 177.297 206.235C176.845 206.687 176.591 207.302 176.591 207.942V208.27H176.225V212.623C176.225 213.377 181.795 213.377 181.795 212.623V208.27H181.414ZM177.461 207.942C177.461 207.108 177.975 206.349 179.012 206.349C180.049 206.349 180.581 207.059 180.581 207.942V208.27H177.461V207.942ZM179.403 210.464V211.721C179.402 211.774 179.389 211.826 179.368 211.874C179.346 211.922 179.314 211.966 179.275 212.002C179.237 212.038 179.191 212.066 179.141 212.084C179.091 212.102 179.038 212.11 178.985 212.107C178.934 212.109 178.883 212.101 178.835 212.082C178.788 212.063 178.744 212.035 178.708 211.999C178.672 211.962 178.643 211.919 178.625 211.871C178.606 211.823 178.597 211.772 178.599 211.721V210.464C178.482 210.402 178.384 210.309 178.316 210.195C178.247 210.082 178.211 209.952 178.211 209.819C178.209 209.684 178.243 209.551 178.309 209.433C178.374 209.315 178.469 209.216 178.585 209.146C178.7 209.077 178.832 209.038 178.967 209.035C179.101 209.032 179.235 209.064 179.353 209.128C179.472 209.192 179.572 209.286 179.643 209.401C179.714 209.515 179.754 209.646 179.759 209.781C179.765 209.916 179.734 210.05 179.672 210.17C179.609 210.29 179.517 210.391 179.403 210.464Z" fill="#4D4D4D"/>
<path d="M179.01 189.19C179.244 189.186 179.475 189.131 179.685 189.027C179.895 188.923 180.079 188.773 180.224 188.589C180.446 188.314 180.566 187.97 180.564 187.616C180.564 187.199 180.398 186.799 180.104 186.504C179.809 186.209 179.41 186.043 178.993 186.043C178.576 186.043 178.177 186.209 177.882 186.504C177.587 186.799 177.422 187.199 177.422 187.616C177.42 187.97 177.54 188.314 177.762 188.589C177.91 188.778 178.1 188.93 178.316 189.034C178.533 189.138 178.77 189.191 179.01 189.19Z" fill="#4D4D4D"/>
<path d="M181.777 192.001C181.777 192.997 176.192 192.997 176.192 192.001L176.222 190.841C176.442 189.253 181.321 189.187 181.777 190.841V192.001Z" fill="#4D4D4D"/>
<path d="M215.098 191.437H192.516C192.039 191.436 191.583 191.246 191.246 190.909C190.91 190.572 190.72 190.115 190.719 189.638C190.719 189.161 190.909 188.703 191.246 188.365C191.582 188.028 192.039 187.837 192.516 187.836H215.098C215.575 187.837 216.032 188.027 216.369 188.365C216.706 188.703 216.896 189.16 216.897 189.638C216.895 190.115 216.705 190.572 216.368 190.909C216.031 191.246 215.574 191.436 215.098 191.437Z" fill="#80B2FF"/>
<path d="M244.863 191.437H222.281C221.804 191.437 221.347 191.247 221.01 190.91C220.673 190.572 220.483 190.115 220.481 189.638C220.483 189.16 220.673 188.703 221.01 188.365C221.347 188.027 221.804 187.837 222.281 187.836H244.863C245.34 187.837 245.797 188.027 246.134 188.365C246.471 188.703 246.661 189.16 246.662 189.638C246.661 190.115 246.471 190.572 246.134 190.91C245.797 191.247 245.34 191.437 244.863 191.437Z" fill="#80B2FF"/>
<path d="M197.452 304.652V349.37C197.452 354.338 258.169 354.338 258.169 349.37V304.652H197.452Z" fill="white"/>
<path d="M235.104 323.256C236.055 319.221 233.559 315.178 229.53 314.226C225.501 313.274 221.464 315.773 220.513 319.808C219.562 323.842 222.057 327.885 226.086 328.838C230.116 329.79 234.153 327.291 235.104 323.256Z" fill="#005CEA"/>
<path d="M224.738 323.855H230.884V341.074C230.884 341.89 230.56 342.672 229.984 343.249C229.408 343.826 228.627 344.15 227.812 344.15C226.998 344.15 226.216 343.826 225.64 343.249C225.064 342.672 224.741 341.89 224.741 341.074V323.855H224.738Z" fill="#005CEA"/>
<path d="M252.847 301.468H246.704V298.455C246.647 293.475 244.632 288.717 241.095 285.215C237.558 281.713 232.785 279.749 227.811 279.749C222.837 279.749 218.064 281.713 214.527 285.215C210.99 288.717 208.975 293.475 208.918 298.455V301.468H202.772V298.455C202.772 295.163 203.42 291.902 204.678 288.861C205.937 285.819 207.781 283.055 210.106 280.726C212.431 278.398 215.191 276.551 218.228 275.291C221.266 274.031 224.522 273.383 227.81 273.383C231.098 273.383 234.353 274.031 237.391 275.291C240.429 276.551 243.189 278.398 245.514 280.726C247.839 283.055 249.683 285.819 250.941 288.861C252.199 291.902 252.847 295.163 252.847 298.455V301.468Z" fill="white"/>
<path d="M349.553 217.457C333.898 234.235 308.922 248.003 282.192 253.868C282.192 255.656 282.141 265.56 281.949 311.211C281.677 372.106 339.551 401.867 348.536 406.434C357.243 402.422 415.845 372.707 416.117 311.812C416.321 266.16 416.36 256.256 416.375 254.469C389.686 248.366 365.057 234.381 349.553 217.457Z" fill="white"/>
<path d="M349.412 224.055C333.274 238.888 310.918 250.53 286.335 256.882L286.092 311.2C285.98 336.053 295.841 358.539 315.398 378.03C328.25 390.838 341.761 398.78 348.616 402.347L349.553 401.86V224.181L349.412 224.055Z" fill="#80B2FF"/>
<path d="M349.553 224.184V401.868C356.682 398.152 369.639 390.476 382.049 378.327C401.779 359.013 411.839 336.617 411.95 311.764L412.193 257.446C387.744 250.895 365.545 239.099 349.553 224.184Z" fill="#4D93FF"/>
<path d="M398.809 278.625C380.095 281.516 354.616 298.611 338.532 319.165C336.276 309.473 326.148 300.624 320.854 298.691L304.809 314.844C314.827 319.365 325.776 332.177 327.228 345.293L343.254 347.781C350.012 334.407 367.468 302.433 402.194 285.237C401.531 282.625 399.079 278.999 398.809 278.625Z" fill="#0046B3"/>
<path d="M93.9299 181.112L91.1083 192.475L90.596 194.598C90.0278 197.273 72.3262 196.14 73.5791 193.001L74.6354 190.688L80.0891 178.715L93.9299 181.112Z" fill="#F7A58E"/>
<path d="M104.282 164.262C104.461 176.58 98.7526 186.596 89.8168 186.552C80.8809 186.509 72.2341 178.917 71.9209 164.104C71.7217 154.666 79.2492 147.048 88.1899 147.082C97.1305 147.116 104.143 154.822 104.282 164.262Z" fill="#F7A58E"/>
<path d="M88.4528 143.703C88.4528 143.703 106.259 144.583 107.74 158.086C109.717 169.938 100.839 161.225 97.2137 169.179C93.0591 178.291 97.2914 184.958 102.689 186.767C97.8912 193.476 70.4549 193.235 63.3961 181.466C58.5591 166.701 65.4018 144.52 88.4528 143.703Z" fill="black"/>
<path d="M100.939 168.696C100.994 169.351 100.853 170.007 100.535 170.582C100.218 171.157 99.7365 171.625 99.1531 171.926C98.5696 172.228 97.91 172.349 97.2579 172.274C96.6057 172.2 95.9902 171.933 95.4893 171.508C94.9885 171.083 94.6248 170.519 94.4443 169.887C94.2638 169.255 94.2746 168.584 94.4753 167.958C94.6761 167.332 95.0578 166.78 95.572 166.372C96.0863 165.963 96.71 165.717 97.3643 165.663C98.2395 165.592 99.1073 165.871 99.7774 166.44C100.447 167.008 100.865 167.819 100.939 168.696Z" fill="#F7A58E"/>
<path d="M98.2119 397.882C99.0472 396.997 102.983 396.984 103.343 398.293C103.702 399.601 103.008 400.537 104.671 402.611C103.714 402.889 100.322 402.915 99.2852 402.611C98.2484 402.307 97.3766 398.755 98.2119 397.882Z" fill="white"/>
<path d="M91.7061 402.344H101.3C102.196 361.687 102.028 317.429 101.703 284.096C101.587 272.159 101.256 266.121 99.0952 258.955C94.7244 244.482 74.1987 248.94 72.7418 262.056C72.1348 269.334 71.6904 283.534 85.1257 331.785C79.3101 353.033 89.46 378.504 91.7061 402.344Z" fill="#00050D"/>
<path d="M106.674 402.965C105.261 402.89 101.961 401.528 101.332 400.587C100.414 401.613 98.5055 401.897 96.1987 401.559C93.4767 401.153 93.1173 399.886 91.165 400.054C90.3418 402.347 88.3361 407.493 90.2714 408.684H110.443C112.252 407.031 112.203 403.517 106.674 402.965Z" fill="white"/>
<path d="M49.365 398.899C50.0643 398.155 53.3739 398.145 53.675 399.245C53.9761 400.344 53.3958 401.132 54.792 402.875C53.9883 403.118 51.1497 403.118 50.2658 402.875C49.382 402.632 48.6632 399.643 49.365 398.899Z" fill="white"/>
<path d="M80.9836 261.687C79.0216 246.698 52.3939 248.237 50.631 261.324C49.9924 268.376 48.0377 278.968 53.0422 331.278C42.4868 351.239 45.4686 379.881 42.3144 400.966C41.9672 404.176 51.0414 404.946 51.748 402.087C61.4171 362.967 74.9325 319.078 79.9565 286.533C81.7704 274.735 81.9549 269.111 80.9836 261.687Z" fill="#00050D"/>
<path d="M56.5042 402.345C55.091 402.27 53.0076 400.429 52.3762 399.488C51.4584 400.514 49.7052 401.898 47.4033 401.553C44.6812 401.147 44.3219 399.88 42.3671 400.048C41.544 402.341 39.5383 407.486 41.4736 408.677H61.0959C62.9074 407.031 62.0332 402.897 56.5042 402.345Z" fill="white"/>
<path d="M125.891 182.352L120.925 183.453C121.037 186.072 120.723 190.262 120.925 194.865L129.278 193.763C128.005 189.116 126.779 185.043 125.891 182.352Z" fill="#F7A58E"/>
<path d="M120.925 194.863C120.738 204.011 120.496 207.928 120.42 211.532L95.6308 195.615C88.0863 193.319 79.2792 208.288 88.8318 215.041C88.8318 215.041 121.838 233.704 129.261 228.327C133.278 225.409 132.236 204.558 129.283 193.762L120.925 194.863Z" fill="white"/>
<path d="M128.134 177.485C125.84 174.791 120.801 175.73 120.42 175.803L120.906 183.258C121.02 186.937 125.577 187.064 127.435 183.89C127.44 183.9 130.123 180.138 128.134 177.485Z" fill="#F7A58E"/>
<path d="M122.858 176.508C121.185 168.389 119.497 169.478 119.497 169.478C119.497 169.478 119.769 172.345 120.524 177.408C121.09 180.277 123.069 178.551 122.858 176.508Z" fill="#F7A58E"/>
<path d="M101.492 217.005C103.174 208.803 104.078 200.713 95.6372 195.607C90.6326 192.587 74.5458 190.432 67.0232 192.932C59.4496 196.324 61.0813 211.118 59.6633 234.476C54.4402 246.148 52.165 249.968 50.623 261.324C50.623 261.324 53.4179 269.881 73.1034 269.893C82.0416 269.893 95.2001 269.1 101.195 264.543C100.598 256.791 97.3636 249.331 96.016 238.367C96.016 238.367 101.37 217.941 101.492 217.005Z" fill="white"/>
<path d="M62.9801 194.581C53.7407 201.645 44.7296 212.752 40.4706 218.654C36.2115 224.555 25.1729 248.259 25.1729 248.259L32.2001 253.443L51.1935 227.529L74.3926 208.473C82.4422 200.244 71.979 187.702 62.9801 194.581Z" fill="white"/>
<path d="M22.2373 254.271L26.7902 244.855C27.8586 247.686 33.0695 250.268 34.5605 250.205C34.5605 250.205 29.6676 257.257 28.4705 258.456C27.2734 259.654 22.3369 257.634 22.2373 254.271Z" fill="#F7A58E"/>
<path d="M29.6259 256.893C29.6089 256.964 29.6259 257.058 29.6114 257.136C29.3831 260.562 26.7509 262.184 26.0395 262.569C25.9854 262.607 25.9229 262.631 25.8573 262.639C28.3317 262.153 29.0723 265.462 27.8121 266.228C24.1697 268.696 18.9831 265.302 18.546 263.242C18.1089 261.183 22.2466 254.245 22.2466 254.245C24.3616 252.521 29.7765 252.786 29.6259 256.893Z" fill="#F7A58E"/>
<path d="M29.6115 257.13C29.4634 261.001 25.9692 262.594 25.9158 262.609C23.8761 262.553 23.1501 262.429 21.2051 262.434C22.475 261.813 25.0902 260.162 24.0704 256.96C26.0664 255.43 29.0652 256.765 29.6115 257.13Z" fill="#E6856A"/>
<path d="M29.6631 256.684C30.1997 259.881 29.9739 264.436 29.2139 266.439C29.2139 266.439 27.2568 266.544 27.4413 262.843C27.4874 261.87 27.349 259.787 26.3972 259.091C23.4688 257.146 22.9977 255.373 24.071 253.914C25.5036 251.969 29.5514 253.943 29.6631 256.684Z" fill="#F7A58E"/>
<path d="M20.5981 265.42C22.1886 266.524 26.3942 268.664 27.0596 268.137C27.7249 267.609 24.3594 264.022 22.1861 263.548C20.0129 263.074 19.7822 264.856 20.5981 265.42Z" fill="#F7A58E"/>
</g>
<defs>
<clipPath id="clip0_773_6097">
<rect width="420" height="414" fill="white"/>
</clipPath>
</defs>
</svg>
