<svg width="524" height="348" viewBox="0 0 524 348" fill="none" xmlns="http://www.w3.org/2000/svg">
<g filter="url(#filter0_dd_773_19481)">
<rect x="10" y="8" width="504" height="328" fill="white"/>
</g>
<path d="M114.784 180.34C133.452 172.89 142.541 151.727 135.086 133.072C127.631 114.417 106.454 105.333 87.7857 112.784C69.1177 120.234 60.0281 141.397 67.4834 160.052C74.9387 178.707 96.1158 187.791 114.784 180.34Z" fill="#86BBF9"/>
<path d="M131.543 151.585C134.293 134.892 122.981 119.131 106.277 116.383C89.5723 113.634 73.8009 124.938 71.0504 141.632C68.3 158.325 79.612 174.086 96.3166 176.834C113.021 179.583 128.793 168.278 131.543 151.585Z" fill="white"/>
<path d="M119.03 164.323C128.835 154.526 128.835 138.64 119.03 128.843C109.226 119.045 93.3301 119.045 83.5258 128.843C73.7214 138.64 73.7214 154.526 83.5257 164.323C93.3301 174.121 109.226 174.121 119.03 164.323Z" fill="#86BBF9"/>
<path d="M112.334 148.378C113.331 142.265 109.181 136.502 103.064 135.506C96.9471 134.509 91.18 138.656 90.1827 144.769C89.1854 150.882 93.3356 156.645 99.4524 157.641C105.569 158.638 111.336 154.491 112.334 148.378Z" fill="white"/>
<path d="M103.544 152.075C106.584 150.824 108.034 147.347 106.782 144.309C105.53 141.271 102.051 139.822 99.0107 141.073C95.9705 142.324 94.5207 145.801 95.7725 148.839C97.0244 151.877 100.504 153.326 103.544 152.075Z" fill="#86BBF9"/>
<path d="M56.3174 174.301L51 177.31L55.5488 178.721L60.8661 175.711L56.3174 174.301Z" fill="#9DF1D8"/>
<path d="M59.7404 180.334L54.416 183.344L55.548 178.721L60.8653 175.712L59.7404 180.334Z" fill="#9DF1D8"/>
<path d="M57.4698 177.639C56.9947 176.808 62.1304 173.002 70.1379 168.471C78.1454 163.939 89.8213 159.316 89.8213 159.316C89.8213 159.316 79.8573 166.955 71.8498 171.48C63.8423 176.005 57.952 178.463 57.4698 177.639Z" fill="#9DF1D8"/>
<path d="M55.5488 178.728C58.3438 176.989 61.1387 175.314 63.9896 173.652C66.8404 171.99 69.6773 170.37 72.5211 168.729C75.365 167.088 78.2438 165.517 81.1225 163.946C84.0013 162.375 86.8941 160.818 89.8218 159.316C87.0268 161.062 84.2319 162.731 81.3811 164.4C78.5302 166.069 75.6934 167.675 72.8495 169.288C70.0057 170.901 67.1269 172.5 64.2411 174.071C61.3553 175.642 58.4695 177.227 55.5488 178.728Z" fill="#86BBF9"/>
<path d="M75.7465 120.653L71.0859 116.701L71.3235 121.449L75.9841 125.409L75.7465 120.653Z" fill="#9DF1D8"/>
<path d="M71.2485 125.939L66.5879 121.987L71.3253 121.449L75.9859 125.408L71.2485 125.939Z" fill="#9DF1D8"/>
<path d="M73.0083 122.881C73.6231 122.183 78.9615 125.674 85.9768 131.617C92.9921 137.559 101.349 146.936 101.349 146.936C101.349 146.936 90.7422 140.219 83.7338 134.263C76.7255 128.307 72.3864 123.614 73.0083 122.881Z" fill="#9DF1D8"/>
<path d="M71.3223 121.456C73.9146 123.474 76.458 125.548 79.0084 127.629C81.5587 129.71 84.0462 131.818 86.5687 133.913C89.0911 136.008 91.5576 138.179 94.0242 140.344C96.4907 142.509 98.9503 144.68 101.361 146.908C98.7686 144.897 96.2252 142.823 93.6748 140.735C91.1244 138.647 88.6439 136.546 86.1215 134.451C83.599 132.356 81.1325 130.191 78.666 128.02C76.1994 125.848 73.7329 123.684 71.3223 121.456Z" fill="#86BBF9"/>
<path d="M391.087 110.486H158.562C151.354 110.486 145.51 116.326 145.51 123.53V256.975C145.51 264.178 151.354 270.018 158.562 270.018H391.087C398.296 270.018 404.14 264.178 404.14 256.975V123.53C404.14 116.326 398.296 110.486 391.087 110.486Z" fill="#86BBF9"/>
<path d="M159.269 267.226C156.363 267.226 153.576 266.073 151.521 264.019C149.467 261.966 148.312 259.181 148.312 256.277V123.754C148.312 120.976 149.417 118.312 151.382 116.348C153.348 114.384 156.014 113.28 158.794 113.28H390.871C393.651 113.28 396.317 114.384 398.283 116.348C400.248 118.312 401.352 120.976 401.352 123.754V256.277C401.352 259.181 400.198 261.966 398.143 264.019C396.089 266.073 393.302 267.226 390.396 267.226H159.269Z" fill="white"/>
<path d="M158.239 113.28H390.869C393.649 113.28 396.314 114.384 398.28 116.348C400.246 118.312 401.35 120.976 401.35 123.754V132.189H147.758V123.754C147.758 120.976 148.862 118.312 150.828 116.348C152.793 114.384 155.459 113.28 158.239 113.28Z" fill="#9DF1D8"/>
<path d="M162.013 125.15C163.349 125.15 164.431 124.069 164.431 122.734C164.431 121.4 163.349 120.318 162.013 120.318C160.678 120.318 159.596 121.4 159.596 122.734C159.596 124.069 160.678 125.15 162.013 125.15Z" fill="#D5ECF0"/>
<path d="M176.423 125.15C177.759 125.15 178.841 124.069 178.841 122.734C178.841 121.4 177.759 120.318 176.423 120.318C175.088 120.318 174.006 121.4 174.006 122.734C174.006 124.069 175.088 125.15 176.423 125.15Z" fill="#D5ECF0"/>
<path d="M193.238 122.734C193.238 123.212 193.096 123.679 192.83 124.077C192.565 124.474 192.187 124.784 191.745 124.966C191.303 125.149 190.817 125.197 190.348 125.104C189.879 125.011 189.449 124.781 189.11 124.443C188.772 124.105 188.542 123.674 188.449 123.206C188.356 122.737 188.403 122.251 188.586 121.81C188.769 121.368 189.079 120.991 189.477 120.726C189.874 120.46 190.342 120.318 190.82 120.318C191.461 120.318 192.076 120.573 192.529 121.026C192.983 121.479 193.238 122.094 193.238 122.734Z" fill="#D5ECF0"/>
<path d="M161.379 241.886H305.668" stroke="#86BBF9" stroke-width="3" stroke-linecap="round" stroke-linejoin="round"/>
<path d="M161.379 250.202H274.092" stroke="#86BBF9" stroke-width="3" stroke-linecap="round" stroke-linejoin="round"/>
<path d="M161.379 258.518H231.56" stroke="#86BBF9" stroke-width="3" stroke-linecap="round" stroke-linejoin="round"/>
<path d="M325.955 241.886H339.294" stroke="#86BBF9" stroke-width="3" stroke-linecap="round" stroke-linejoin="round"/>
<path d="M325.955 250.202H339.294" stroke="#86BBF9" stroke-width="3" stroke-linecap="round" stroke-linejoin="round"/>
<path d="M325.955 258.518H339.294" stroke="#86BBF9" stroke-width="3" stroke-linecap="round" stroke-linejoin="round"/>
<path d="M350.439 241.886H363.778" stroke="#86BBF9" stroke-width="3" stroke-linecap="round" stroke-linejoin="round"/>
<path d="M350.439 250.202H363.778" stroke="#86BBF9" stroke-width="3" stroke-linecap="round" stroke-linejoin="round"/>
<path d="M350.439 258.518H363.778" stroke="#86BBF9" stroke-width="3" stroke-linecap="round" stroke-linejoin="round"/>
<path d="M374.93 241.886H388.269" stroke="#86BBF9" stroke-width="3" stroke-linecap="round" stroke-linejoin="round"/>
<path d="M374.93 250.202H388.269" stroke="#86BBF9" stroke-width="3" stroke-linecap="round" stroke-linejoin="round"/>
<path d="M374.93 258.518H388.269" stroke="#86BBF9" stroke-width="3" stroke-linecap="round" stroke-linejoin="round"/>
<path d="M387.291 136.846V168.854" stroke="#86BBF9" stroke-width="0.79" stroke-miterlimit="10"/>
<path d="M387.291 146.782V161.348" stroke="#86BBF9" stroke-width="6.32" stroke-miterlimit="10"/>
<path d="M380.182 142.264V174.272" stroke="#86BBF9" stroke-width="0.79" stroke-miterlimit="10"/>
<path d="M380.182 157.159V166.767" stroke="#86BBF9" stroke-width="6.32" stroke-miterlimit="10"/>
<path d="M373.066 145.078V177.086" stroke="#86BBF9" stroke-width="0.79" stroke-miterlimit="10"/>
<path d="M373.066 161.39V176.409" stroke="#86BBF9" stroke-width="6.32" stroke-miterlimit="10"/>
<path d="M365.947 143.494V175.509" stroke="#86BBF9" stroke-width="0.79" stroke-miterlimit="10"/>
<path d="M365.947 148.172V167.996" stroke="#86BBF9" stroke-width="6.32" stroke-miterlimit="10"/>
<path d="M358.836 154.449V178.455" stroke="#86BBF9" stroke-width="0.79" stroke-miterlimit="10"/>
<path d="M358.836 160.643V171.235" stroke="#86BBF9" stroke-width="6.32" stroke-miterlimit="10"/>
<path d="M351.719 157.898V186.457" stroke="#86BBF9" stroke-width="0.79" stroke-miterlimit="10"/>
<path d="M351.719 165.405V182.394" stroke="#86BBF9" stroke-width="6.32" stroke-miterlimit="10"/>
<path d="M344.598 152.851V177.716" stroke="#86BBF9" stroke-width="0.79" stroke-miterlimit="10"/>
<path d="M344.598 158.674V172.793" stroke="#86BBF9" stroke-width="6.32" stroke-miterlimit="10"/>
<path d="M337.488 142.879V172.667" stroke="#86BBF9" stroke-width="0.79" stroke-miterlimit="10"/>
<path d="M337.488 148.661V167.375" stroke="#86BBF9" stroke-width="6.32" stroke-miterlimit="10"/>
<path d="M330.373 156.97V180.606" stroke="#86BBF9" stroke-width="0.79" stroke-miterlimit="10"/>
<path d="M330.373 162.633V174.077" stroke="#86BBF9" stroke-width="6.32" stroke-miterlimit="10"/>
<path d="M323.254 166.641V190.402" stroke="#86BBF9" stroke-width="0.79" stroke-miterlimit="10"/>
<path d="M323.254 174.154V182.89" stroke="#86BBF9" stroke-width="6.32" stroke-miterlimit="10"/>
<path d="M316.141 160.489V184.74" stroke="#86BBF9" stroke-width="0.79" stroke-miterlimit="10"/>
<path d="M316.141 167.996V177.15" stroke="#86BBF9" stroke-width="6.32" stroke-miterlimit="10"/>
<path d="M309.025 166.641V196.065" stroke="#86BBF9" stroke-width="0.79" stroke-miterlimit="10"/>
<path d="M309.025 174.154V191.143" stroke="#86BBF9" stroke-width="6.32" stroke-miterlimit="10"/>
<path d="M301.906 166.641V187.016" stroke="#86BBF9" stroke-width="0.79" stroke-miterlimit="10"/>
<path d="M301.906 174.154V182.443" stroke="#86BBF9" stroke-width="6.32" stroke-miterlimit="10"/>
<path d="M294.791 163.443V184.74" stroke="#86BBF9" stroke-width="0.79" stroke-miterlimit="10"/>
<path d="M294.791 170.949V177.15" stroke="#86BBF9" stroke-width="6.32" stroke-miterlimit="10"/>
<path d="M287.682 166.641V207.391" stroke="#86BBF9" stroke-width="0.79" stroke-miterlimit="10"/>
<path d="M287.682 174.154V202.958" stroke="#86BBF9" stroke-width="6.32" stroke-miterlimit="10"/>
<path d="M280.562 178.093V210.101" stroke="#86BBF9" stroke-width="0.79" stroke-miterlimit="10"/>
<path d="M280.562 185.599V202.594" stroke="#86BBF9" stroke-width="6.32" stroke-miterlimit="10"/>
<path d="M273.447 179.446V215.889" stroke="#86BBF9" stroke-width="0.79" stroke-miterlimit="10"/>
<path d="M273.447 186.339V208.376" stroke="#86BBF9" stroke-width="6.32" stroke-miterlimit="10"/>
<path d="M266.328 200.374V229.924" stroke="#86BBF9" stroke-width="0.79" stroke-miterlimit="10"/>
<path d="M266.328 205.422V222.411" stroke="#86BBF9" stroke-width="6.32" stroke-miterlimit="10"/>
<path d="M259.213 171.906V203.915" stroke="#86BBF9" stroke-width="0.79" stroke-miterlimit="10"/>
<path d="M259.213 179.412V200.346" stroke="#86BBF9" stroke-width="6.32" stroke-miterlimit="10"/>
<path d="M252.104 174.524V206.533" stroke="#86BBF9" stroke-width="0.79" stroke-miterlimit="10"/>
<path d="M252.104 186.584V199.02" stroke="#86BBF9" stroke-width="6.32" stroke-miterlimit="10"/>
<path d="M244.982 186.584V218.599" stroke="#86BBF9" stroke-width="0.79" stroke-miterlimit="10"/>
<path d="M244.982 200.255V211.085" stroke="#86BBF9" stroke-width="6.32" stroke-miterlimit="10"/>
<path d="M237.865 194.097V226.105" stroke="#86BBF9" stroke-width="0.79" stroke-miterlimit="10"/>
<path d="M237.865 210.101V218.598" stroke="#86BBF9" stroke-width="6.32" stroke-miterlimit="10"/>
<path d="M230.754 189.662V221.67" stroke="#86BBF9" stroke-width="0.79" stroke-miterlimit="10"/>
<path d="M230.754 203.823V214.164" stroke="#86BBF9" stroke-width="6.32" stroke-miterlimit="10"/>
<path d="M223.635 186.584V218.599" stroke="#86BBF9" stroke-width="0.79" stroke-miterlimit="10"/>
<path d="M223.635 198.16V211.085" stroke="#86BBF9" stroke-width="6.32" stroke-miterlimit="10"/>
<path d="M216.521 194.474V226.482" stroke="#86BBF9" stroke-width="0.79" stroke-miterlimit="10"/>
<path d="M216.521 199.033V218.976" stroke="#86BBF9" stroke-width="6.32" stroke-miterlimit="10"/>
<path d="M209.408 181.157V213.173" stroke="#86BBF9" stroke-width="0.79" stroke-miterlimit="10"/>
<path d="M209.408 188.671V207.999" stroke="#86BBF9" stroke-width="6.32" stroke-miterlimit="10"/>
<path d="M202.287 167.989V200.005" stroke="#86BBF9" stroke-width="0.79" stroke-miterlimit="10"/>
<path d="M202.287 175.502V195.074" stroke="#86BBF9" stroke-width="6.32" stroke-miterlimit="10"/>
<path d="M195.174 173.407V205.423" stroke="#86BBF9" stroke-width="0.79" stroke-miterlimit="10"/>
<path d="M195.174 178.826V197.91" stroke="#86BBF9" stroke-width="6.32" stroke-miterlimit="10"/>
<path d="M188.061 166.767V198.775" stroke="#86BBF9" stroke-width="0.79" stroke-miterlimit="10"/>
<path d="M188.061 174.273V179.566" stroke="#86BBF9" stroke-width="6.32" stroke-miterlimit="10"/>
<path d="M180.941 159.498V191.513" stroke="#86BBF9" stroke-width="0.79" stroke-miterlimit="10"/>
<path d="M180.941 167.012V175.51" stroke="#86BBF9" stroke-width="6.32" stroke-miterlimit="10"/>
<path d="M173.83 174.95V212.936" stroke="#86BBF9" stroke-width="0.79" stroke-miterlimit="10"/>
<path d="M173.83 178.889V205.423" stroke="#86BBF9" stroke-width="6.32" stroke-miterlimit="10"/>
<path d="M166.717 196.68V228.695" stroke="#86BBF9" stroke-width="0.79" stroke-miterlimit="10"/>
<path d="M166.717 188.56V202.965" stroke="#86BBF9" stroke-width="6.32" stroke-miterlimit="10"/>
<path d="M159.596 194.467V226.482" stroke="#86BBF9" stroke-width="0.79" stroke-miterlimit="10"/>
<path d="M159.596 200.255V218.968" stroke="#86BBF9" stroke-width="6.32" stroke-miterlimit="10"/>
<path d="M463.919 212.293L454.465 226.817H437.129C437.305 223.772 438.257 220.823 439.893 218.248C441.529 215.673 443.796 213.558 446.479 212.104C449.161 210.649 452.171 209.903 455.223 209.937C458.275 209.97 461.268 210.781 463.919 212.293Z" fill="#D5ECF0"/>
<path d="M473 227.858C472.997 231.126 472.092 234.329 470.386 237.117L456.475 227.558L465.677 213.411C467.949 215.074 469.796 217.248 471.069 219.759C472.341 222.269 473.003 225.044 473 227.858Z" fill="#86BBF9"/>
<path d="M469.194 238.869C466.954 241.747 463.889 243.875 460.409 244.967C456.928 246.059 453.196 246.065 449.712 244.983C446.228 243.901 443.157 241.783 440.909 238.912C438.66 236.04 437.342 232.552 437.129 228.912H454.716L469.194 238.869Z" fill="#9DF1D8"/>
<path d="M422.619 185.55H382.057C380.745 185.55 379.682 186.613 379.682 187.924V215.708C379.682 217.019 380.745 218.082 382.057 218.082H422.619C423.931 218.082 424.995 217.019 424.995 215.708V187.924C424.995 186.613 423.931 185.55 422.619 185.55Z" fill="white" stroke="#86BBF9" stroke-width="2.73" stroke-miterlimit="10"/>
<path d="M382.982 213.997C386.211 213.997 386.211 209.591 389.439 209.591C392.667 209.591 392.66 201.82 395.888 201.82C399.116 201.82 398.222 206.882 401.478 206.882C404.734 206.882 405.594 193.615 408.822 193.615C412.05 193.615 412.05 199.446 415.278 199.446C418.506 199.446 418.506 193.615 421.727 193.615" stroke="#86BBF9" stroke-width="2" stroke-linecap="round" stroke-linejoin="round"/>
<path d="M444.483 156.307H441.737C441.498 156.308 441.264 156.234 441.07 156.095C440.875 155.956 440.73 155.759 440.654 155.532C440.482 154.993 440.265 154.469 440.004 153.967C439.896 153.753 439.859 153.51 439.898 153.272C439.937 153.035 440.05 152.817 440.221 152.648L442.156 150.707C442.264 150.6 442.349 150.473 442.408 150.334C442.466 150.194 442.496 150.044 442.496 149.893C442.496 149.742 442.466 149.592 442.408 149.452C442.349 149.313 442.264 149.186 442.156 149.08L440.207 147.131C439.991 146.916 439.698 146.795 439.393 146.795C439.088 146.795 438.795 146.916 438.579 147.131L436.664 149.073C436.495 149.242 436.276 149.355 436.039 149.394C435.802 149.432 435.559 149.396 435.344 149.289C434.84 149.031 434.317 148.814 433.779 148.64C433.55 148.563 433.352 148.417 433.211 148.222C433.071 148.026 432.995 147.791 432.996 147.55V144.813C432.997 144.662 432.968 144.513 432.911 144.373C432.854 144.233 432.769 144.106 432.663 143.999C432.556 143.892 432.43 143.807 432.29 143.749C432.151 143.691 432.001 143.661 431.85 143.661H429.055C428.749 143.661 428.456 143.783 428.24 143.999C428.024 144.215 427.902 144.508 427.902 144.813V147.55C427.904 147.791 427.831 148.025 427.691 148.221C427.552 148.417 427.354 148.563 427.127 148.64C426.587 148.811 426.064 149.029 425.561 149.289C425.347 149.397 425.103 149.434 424.866 149.395C424.629 149.356 424.41 149.243 424.241 149.073L422.298 147.131C422.082 146.916 421.789 146.795 421.484 146.795C421.179 146.795 420.886 146.916 420.67 147.131L418.721 149.08C418.505 149.296 418.384 149.588 418.384 149.893C418.384 150.198 418.505 150.491 418.721 150.707L420.663 152.648C420.834 152.817 420.947 153.035 420.986 153.272C421.025 153.51 420.988 153.753 420.88 153.967C420.619 154.469 420.402 154.993 420.23 155.532C420.155 155.759 420.009 155.956 419.815 156.095C419.62 156.234 419.386 156.308 419.147 156.307H416.401C416.095 156.307 415.802 156.428 415.586 156.644C415.37 156.86 415.248 157.153 415.248 157.459V160.217C415.248 160.368 415.278 160.517 415.336 160.657C415.394 160.796 415.479 160.923 415.586 161.029C415.693 161.136 415.82 161.22 415.96 161.277C416.1 161.334 416.25 161.363 416.401 161.362H419.196C419.436 161.362 419.67 161.437 419.864 161.578C420.059 161.718 420.204 161.916 420.279 162.144C420.453 162.682 420.671 163.205 420.929 163.708C421.037 163.923 421.074 164.166 421.035 164.403C420.996 164.64 420.883 164.859 420.712 165.028L418.77 166.962C418.554 167.178 418.433 167.471 418.433 167.776C418.433 168.081 418.554 168.373 418.77 168.589L420.719 170.537C420.826 170.645 420.953 170.73 421.092 170.788C421.232 170.846 421.382 170.876 421.533 170.876C421.685 170.876 421.834 170.846 421.974 170.788C422.114 170.73 422.241 170.645 422.347 170.537L424.29 168.603C424.459 168.432 424.678 168.319 424.915 168.281C425.152 168.242 425.396 168.279 425.61 168.387C426.113 168.647 426.636 168.864 427.176 169.036C427.403 169.111 427.6 169.257 427.74 169.451C427.879 169.645 427.953 169.879 427.951 170.118V172.876C427.951 173.027 427.981 173.177 428.039 173.316C428.097 173.456 428.182 173.582 428.289 173.689C428.396 173.795 428.524 173.879 428.663 173.936C428.803 173.994 428.953 174.022 429.104 174.022H431.899C432.05 174.022 432.199 173.993 432.339 173.936C432.478 173.879 432.605 173.795 432.711 173.688C432.818 173.582 432.902 173.455 432.96 173.316C433.017 173.176 433.046 173.027 433.045 172.876V170.132C433.044 169.892 433.119 169.658 433.259 169.463C433.4 169.269 433.599 169.124 433.828 169.05C434.366 168.876 434.889 168.659 435.393 168.401C435.607 168.293 435.851 168.256 436.088 168.295C436.325 168.333 436.544 168.446 436.713 168.617L438.649 170.551C438.755 170.659 438.882 170.744 439.022 170.802C439.162 170.86 439.311 170.89 439.463 170.89C439.614 170.89 439.764 170.86 439.904 170.802C440.044 170.744 440.17 170.659 440.277 170.551L442.226 168.603C442.334 168.497 442.419 168.37 442.477 168.23C442.536 168.091 442.566 167.941 442.566 167.79C442.566 167.638 442.536 167.489 442.477 167.349C442.419 167.209 442.334 167.083 442.226 166.976L440.291 165.042C440.12 164.873 440.007 164.654 439.968 164.417C439.929 164.18 439.966 163.937 440.074 163.722C440.332 163.219 440.55 162.696 440.724 162.158C440.798 161.93 440.943 161.731 441.138 161.59C441.332 161.45 441.567 161.375 441.807 161.376H444.553C444.704 161.377 444.853 161.348 444.993 161.291C445.132 161.234 445.259 161.149 445.365 161.043C445.472 160.936 445.556 160.81 445.614 160.67C445.671 160.531 445.7 160.382 445.699 160.231V157.473C445.702 157.315 445.673 157.157 445.612 157.011C445.551 156.865 445.461 156.733 445.347 156.623C445.233 156.514 445.097 156.429 444.948 156.375C444.8 156.32 444.641 156.297 444.483 156.307ZM430.446 164.56C429.312 164.56 428.205 164.224 427.262 163.595C426.32 162.966 425.586 162.072 425.152 161.026C424.718 159.979 424.605 158.828 424.826 157.717C425.047 156.607 425.593 155.586 426.394 154.786C427.195 153.985 428.216 153.44 429.328 153.219C430.439 152.998 431.591 153.111 432.638 153.544C433.685 153.978 434.58 154.712 435.21 155.653C435.839 156.595 436.175 157.702 436.175 158.834C436.175 160.353 435.572 161.809 434.497 162.883C433.423 163.957 431.965 164.56 430.446 164.56Z" fill="#86BBF9"/>
<path d="M464.026 168.764H462.3C462.146 168.771 461.994 168.727 461.867 168.638C461.741 168.55 461.647 168.422 461.601 168.275C461.492 167.937 461.357 167.607 461.196 167.29C461.125 167.156 461.099 167.003 461.123 166.853C461.147 166.703 461.219 166.565 461.329 166.459L462.551 165.237C462.621 165.172 462.677 165.093 462.715 165.005C462.753 164.918 462.773 164.823 462.773 164.728C462.773 164.632 462.753 164.538 462.715 164.45C462.677 164.362 462.621 164.283 462.551 164.218L461.322 162.989C461.256 162.918 461.177 162.862 461.088 162.823C461 162.784 460.905 162.764 460.808 162.764C460.712 162.764 460.616 162.784 460.528 162.823C460.439 162.862 460.36 162.918 460.294 162.989L459.079 164.211C458.973 164.32 458.835 164.393 458.685 164.416C458.535 164.44 458.381 164.415 458.247 164.344C457.931 164.181 457.601 164.046 457.262 163.939C457.113 163.894 456.984 163.801 456.894 163.674C456.804 163.548 456.759 163.395 456.766 163.24V161.516C456.766 161.33 456.692 161.153 456.561 161.022C456.43 160.891 456.252 160.817 456.067 160.817H454.327C454.142 160.817 453.964 160.891 453.833 161.022C453.702 161.153 453.629 161.33 453.629 161.516V163.24C453.636 163.394 453.591 163.546 453.503 163.673C453.414 163.799 453.287 163.893 453.139 163.939C452.8 164.045 452.47 164.18 452.154 164.344C452.02 164.415 451.866 164.44 451.716 164.416C451.566 164.393 451.428 164.32 451.323 164.211L450.107 162.989C450.041 162.918 449.962 162.862 449.874 162.823C449.785 162.784 449.69 162.764 449.593 162.764C449.497 162.764 449.401 162.784 449.313 162.823C449.225 162.862 449.145 162.918 449.08 162.989L447.843 164.218C447.773 164.283 447.718 164.362 447.679 164.45C447.641 164.538 447.622 164.632 447.622 164.728C447.622 164.823 447.641 164.918 447.679 165.005C447.718 165.093 447.773 165.172 447.843 165.237L449.066 166.459C449.175 166.565 449.248 166.703 449.271 166.853C449.295 167.003 449.27 167.156 449.199 167.29C449.038 167.607 448.902 167.937 448.793 168.275C448.747 168.422 448.654 168.55 448.527 168.638C448.401 168.727 448.249 168.771 448.095 168.764H446.369C446.183 168.764 446.006 168.837 445.875 168.968C445.744 169.099 445.67 169.277 445.67 169.462V171.194C445.67 171.379 445.744 171.556 445.875 171.687C446.006 171.818 446.183 171.892 446.369 171.892H448.095C448.249 171.885 448.401 171.929 448.527 172.017C448.654 172.106 448.747 172.233 448.793 172.381C448.902 172.719 449.038 173.048 449.199 173.365C449.27 173.499 449.295 173.653 449.271 173.803C449.248 173.953 449.175 174.091 449.066 174.196L447.843 175.474C447.709 175.611 447.633 175.795 447.633 175.987C447.633 176.179 447.709 176.363 447.843 176.5L449.073 177.722C449.138 177.793 449.218 177.85 449.306 177.888C449.394 177.927 449.49 177.947 449.586 177.947C449.683 177.947 449.778 177.927 449.867 177.888C449.955 177.85 450.034 177.793 450.1 177.722L451.316 176.507C451.42 176.397 451.558 176.323 451.708 176.298C451.858 176.273 452.012 176.297 452.147 176.368C452.464 176.531 452.794 176.668 453.132 176.78C453.28 176.826 453.407 176.919 453.496 177.046C453.584 177.172 453.629 177.324 453.622 177.478V179.161C453.622 179.346 453.695 179.523 453.826 179.654C453.957 179.785 454.135 179.859 454.32 179.859H456.06C456.245 179.859 456.423 179.785 456.554 179.654C456.685 179.523 456.759 179.346 456.759 179.161V177.436C456.752 177.281 456.797 177.128 456.887 177.002C456.977 176.876 457.106 176.783 457.255 176.738C457.593 176.625 457.923 176.487 458.24 176.326C458.375 176.255 458.529 176.231 458.679 176.256C458.829 176.281 458.967 176.355 459.072 176.465L460.287 177.68C460.353 177.751 460.432 177.808 460.521 177.847C460.609 177.885 460.705 177.905 460.801 177.905C460.898 177.905 460.993 177.885 461.081 177.847C461.17 177.808 461.249 177.751 461.315 177.68L462.544 176.458C462.679 176.321 462.754 176.137 462.754 175.945C462.754 175.753 462.679 175.569 462.544 175.432L461.343 174.273C461.233 174.168 461.161 174.03 461.137 173.88C461.113 173.73 461.139 173.576 461.21 173.442C461.371 173.125 461.506 172.796 461.615 172.457C461.661 172.31 461.755 172.183 461.881 172.094C462.008 172.006 462.16 171.962 462.314 171.969H464.04C464.225 171.969 464.403 171.895 464.534 171.764C464.665 171.633 464.738 171.456 464.738 171.27V169.539C464.749 169.44 464.739 169.339 464.708 169.244C464.677 169.15 464.626 169.063 464.558 168.989C464.491 168.916 464.408 168.858 464.317 168.819C464.225 168.78 464.125 168.761 464.026 168.764ZM455.187 173.959C454.474 173.957 453.778 173.745 453.186 173.348C452.594 172.951 452.132 172.388 451.861 171.73C451.589 171.071 451.518 170.347 451.658 169.648C451.798 168.95 452.142 168.309 452.647 167.805C453.151 167.302 453.794 166.96 454.493 166.821C455.192 166.683 455.917 166.755 456.575 167.028C457.233 167.3 457.796 167.762 458.192 168.355C458.588 168.947 458.799 169.643 458.799 170.356C458.799 170.829 458.706 171.298 458.524 171.736C458.342 172.174 458.076 172.571 457.741 172.906C457.405 173.24 457.007 173.506 456.569 173.686C456.13 173.867 455.661 173.96 455.187 173.959Z" fill="#86BBF9"/>
<path d="M447.295 138.075H446.226C446.133 138.076 446.042 138.048 445.967 137.994C445.891 137.94 445.835 137.863 445.807 137.775C445.737 137.567 445.653 137.363 445.555 137.167C445.513 137.083 445.498 136.988 445.514 136.895C445.529 136.803 445.572 136.717 445.639 136.65L446.394 135.896C446.435 135.855 446.469 135.807 446.491 135.753C446.514 135.699 446.526 135.641 446.526 135.582C446.526 135.524 446.514 135.466 446.491 135.412C446.469 135.358 446.435 135.309 446.394 135.268L445.632 134.507C445.591 134.465 445.542 134.432 445.488 134.409C445.434 134.386 445.376 134.375 445.318 134.375C445.259 134.375 445.201 134.386 445.147 134.409C445.093 134.432 445.044 134.465 445.003 134.507L444.249 135.261C444.182 135.327 444.096 135.371 444.004 135.386C443.911 135.401 443.816 135.387 443.731 135.345C443.536 135.245 443.332 135.161 443.124 135.093C443.035 135.065 442.958 135.009 442.904 134.933C442.85 134.858 442.822 134.767 442.823 134.674V133.606C442.823 133.488 442.776 133.374 442.692 133.29C442.608 133.206 442.495 133.159 442.376 133.159H441.3C441.181 133.159 441.068 133.206 440.984 133.29C440.9 133.374 440.853 133.488 440.853 133.606V134.674C440.854 134.767 440.826 134.858 440.772 134.933C440.718 135.009 440.641 135.065 440.552 135.093C440.344 135.163 440.141 135.247 439.944 135.345C439.86 135.387 439.765 135.401 439.672 135.386C439.579 135.371 439.494 135.327 439.427 135.261L438.673 134.507C438.632 134.465 438.583 134.432 438.529 134.409C438.475 134.386 438.417 134.375 438.358 134.375C438.3 134.375 438.242 134.386 438.188 134.409C438.134 134.432 438.085 134.465 438.044 134.507L437.282 135.268C437.24 135.309 437.207 135.358 437.184 135.412C437.162 135.466 437.15 135.524 437.15 135.582C437.15 135.641 437.162 135.699 437.184 135.753C437.207 135.807 437.24 135.855 437.282 135.896L438.037 136.65C438.105 136.716 438.151 136.801 438.166 136.895C438.181 136.988 438.165 137.084 438.121 137.167C438.022 137.363 437.938 137.567 437.869 137.775C437.841 137.863 437.785 137.94 437.709 137.994C437.634 138.048 437.543 138.076 437.45 138.075H436.381C436.262 138.075 436.148 138.122 436.065 138.206C435.981 138.29 435.934 138.403 435.934 138.522V139.597C435.934 139.716 435.981 139.829 436.065 139.913C436.148 139.997 436.262 140.044 436.381 140.044H437.45C437.543 140.043 437.634 140.071 437.709 140.125C437.785 140.179 437.841 140.256 437.869 140.344C437.938 140.553 438.022 140.756 438.121 140.952C438.165 141.035 438.181 141.131 438.166 141.224C438.151 141.318 438.105 141.403 438.037 141.469L437.282 142.223C437.24 142.264 437.207 142.312 437.184 142.366C437.162 142.42 437.15 142.478 437.15 142.537C437.15 142.595 437.162 142.653 437.184 142.707C437.207 142.761 437.24 142.81 437.282 142.851L438.044 143.612C438.085 143.654 438.134 143.687 438.188 143.71C438.242 143.733 438.3 143.744 438.358 143.744C438.417 143.744 438.475 143.733 438.529 143.71C438.583 143.687 438.632 143.654 438.673 143.612L439.462 142.851C439.529 142.785 439.614 142.741 439.707 142.726C439.8 142.711 439.895 142.725 439.979 142.767C440.176 142.865 440.379 142.949 440.587 143.019C440.676 143.047 440.752 143.103 440.807 143.179C440.861 143.254 440.889 143.345 440.888 143.438V144.506C440.888 144.624 440.935 144.738 441.019 144.822C441.102 144.906 441.216 144.953 441.335 144.953H442.411C442.529 144.953 442.643 144.906 442.727 144.822C442.811 144.738 442.858 144.624 442.858 144.506V143.438C442.857 143.345 442.885 143.254 442.939 143.179C442.993 143.103 443.07 143.047 443.159 143.019C443.367 142.951 443.571 142.867 443.766 142.767C443.85 142.725 443.946 142.711 444.039 142.726C444.131 142.741 444.217 142.785 444.284 142.851L445.038 143.605C445.079 143.647 445.128 143.68 445.182 143.703C445.236 143.726 445.294 143.737 445.353 143.737C445.411 143.737 445.469 143.726 445.523 143.703C445.577 143.68 445.626 143.647 445.667 143.605L446.429 142.844C446.47 142.803 446.504 142.754 446.526 142.7C446.549 142.646 446.561 142.588 446.561 142.53C446.561 142.471 446.549 142.413 446.526 142.359C446.504 142.305 446.47 142.257 446.429 142.216L445.639 141.455C445.572 141.388 445.529 141.303 445.514 141.21C445.498 141.117 445.513 141.022 445.555 140.938C445.653 140.742 445.737 140.539 445.807 140.33C445.835 140.242 445.891 140.165 445.967 140.111C446.042 140.057 446.133 140.029 446.226 140.03H447.295C447.414 140.03 447.527 139.983 447.611 139.899C447.695 139.815 447.742 139.702 447.742 139.583V138.522C447.742 138.403 447.695 138.29 447.611 138.206C447.527 138.122 447.414 138.075 447.295 138.075ZM441.838 141.287C441.397 141.287 440.966 141.156 440.6 140.912C440.233 140.667 439.947 140.319 439.779 139.912C439.61 139.505 439.566 139.057 439.652 138.625C439.738 138.193 439.95 137.796 440.262 137.484C440.574 137.173 440.971 136.961 441.403 136.875C441.835 136.789 442.284 136.833 442.691 137.002C443.098 137.17 443.446 137.456 443.691 137.822C443.936 138.188 444.067 138.619 444.067 139.06C444.067 139.65 443.832 140.217 443.414 140.635C442.996 141.052 442.429 141.287 441.838 141.287Z" fill="#86BBF9"/>
<path d="M344.276 83.709H331.168V103.882H344.276V83.709Z" fill="#86BBF9"/>
<path d="M337.724 71L325.775 85.859H349.679L337.724 71Z" fill="#86BBF9"/>
<path d="M240.218 139.206H227.109V159.379H240.218V139.206Z" fill="#86BBF9"/>
<path d="M233.661 172.088L245.617 157.229H221.713L233.661 172.088Z" fill="#86BBF9"/>
<path d="M435.782 102.753C436.893 95.9121 432.245 89.4667 425.4 88.3564C418.555 87.246 412.105 91.8912 410.994 98.7316C409.883 105.572 414.531 112.017 421.376 113.128C428.221 114.238 434.671 109.593 435.782 102.753Z" stroke="#9DF1D8" stroke-width="8.58" stroke-miterlimit="10"/>
<path d="M417.099 111.597C415.187 110.499 413.599 108.916 412.495 107.009C411.391 105.101 410.81 102.936 410.811 100.732" stroke="#86BBF9" stroke-width="8.58" stroke-miterlimit="10"/>
<path d="M410.811 100.732C410.811 97.3984 412.136 94.2015 414.494 91.8444C416.853 89.4873 420.052 88.1631 423.388 88.1631" stroke="#D5ECF0" stroke-width="8.58" stroke-miterlimit="10"/>
<path d="M151.484 90.998H143.343C142.456 90.998 141.736 91.7171 141.736 92.604V100.739C141.736 101.626 142.456 102.345 143.343 102.345H151.484C152.371 102.345 153.091 101.626 153.091 100.739V92.604C153.091 91.7171 152.371 90.998 151.484 90.998Z" fill="#86BBF9"/>
<path d="M144.705 97.2619L145.991 98.7003L150.127 94.6504" stroke="white" stroke-width="2.22" stroke-linecap="round" stroke-linejoin="round"/>
<path d="M451.775 261.653H443.634C442.747 261.653 442.027 262.372 442.027 263.259V271.394C442.027 272.281 442.747 273 443.634 273H451.775C452.662 273 453.382 272.281 453.382 271.394V263.259C453.382 262.372 452.662 261.653 451.775 261.653Z" fill="#86BBF9"/>
<path d="M444.986 267.91L446.279 269.349L450.415 265.299" stroke="white" stroke-width="2.22" stroke-linecap="round" stroke-linejoin="round"/>
<path d="M100.866 194.885H88.7217C87.4019 194.885 86.332 195.954 86.332 197.273V209.409C86.332 210.728 87.4019 211.797 88.7217 211.797H100.866C102.185 211.797 103.255 210.728 103.255 209.409V197.273C103.255 195.954 102.185 194.885 100.866 194.885Z" fill="#86BBF9"/>
<path d="M90.748 204.222L92.6766 206.358L98.8394 200.325" stroke="white" stroke-width="3.31" stroke-linecap="round" stroke-linejoin="round"/>
<path d="M214.286 101.249H209.779V106.039H214.286V101.249Z" fill="#86BBF9"/>
<path d="M220.741 98.3574H216.234V106.038H220.741V98.3574Z" fill="#86BBF9"/>
<path d="M227.206 94.6855H222.699V106.039H227.206V94.6855Z" fill="#86BBF9"/>
<path d="M233.661 90.0215H229.154V106.04H233.661V90.0215Z" fill="#86BBF9"/>
<defs>
<filter id="filter0_dd_773_19481" x="0" y="0" width="524" height="348" filterUnits="userSpaceOnUse" color-interpolation-filters="sRGB">
<feFlood flood-opacity="0" result="BackgroundImageFix"/>
<feColorMatrix in="SourceAlpha" type="matrix" values="0 0 0 0 0 0 0 0 0 0 0 0 0 0 0 0 0 0 127 0" result="hardAlpha"/>
<feOffset dy="2"/>
<feGaussianBlur stdDeviation="5"/>
<feColorMatrix type="matrix" values="0 0 0 0 0 0 0 0 0 0 0 0 0 0 0 0 0 0 0.1 0"/>
<feBlend mode="normal" in2="BackgroundImageFix" result="effect1_dropShadow_773_19481"/>
<feColorMatrix in="SourceAlpha" type="matrix" values="0 0 0 0 0 0 0 0 0 0 0 0 0 0 0 0 0 0 127 0" result="hardAlpha"/>
<feOffset/>
<feGaussianBlur stdDeviation="1"/>
<feColorMatrix type="matrix" values="0 0 0 0 0 0 0 0 0 0 0 0 0 0 0 0 0 0 0.2 0"/>
<feBlend mode="normal" in2="effect1_dropShadow_773_19481" result="effect2_dropShadow_773_19481"/>
<feBlend mode="normal" in="SourceGraphic" in2="effect2_dropShadow_773_19481" result="shape"/>
</filter>
</defs>
</svg>
