<svg width="524" height="348" viewBox="0 0 524 348" fill="none" xmlns="http://www.w3.org/2000/svg">
<g filter="url(#filter0_dd_773_18894)">
<rect x="10" y="8" width="504" height="328" fill="white"/>
</g>
<path d="M116.082 292C116.082 292 83.6347 272.104 87.2867 232.143C90.6021 195.906 114.309 189.561 129.562 146C144.815 102.44 129.422 66.0234 171.041 53.3499C202.54 43.7567 235.222 88.497 302.444 86.8366C369.666 85.1762 402.141 63.5133 426.583 93.6793C448.052 120.172 414.612 143.183 417.232 178.145C418.69 197.628 432.479 208.238 436.49 238.186C438.325 251.838 435.559 277.605 422.432 292H137.275" fill="#D8E9FD"/>
<g clip-path="url(#clip0_773_18894)">
<path d="M308.922 107.495V113.153H204.312V107.495C204.329 104.208 205.638 101.06 207.956 98.7356C210.274 96.4113 213.413 95.0983 216.691 95.082H296.492C299.778 95.0874 302.928 96.3953 305.257 98.7205C307.585 101.046 308.903 104.2 308.922 107.495Z" fill="#86BBF9"/>
<path d="M297.511 108.548C299.972 108.548 301.967 106.548 301.967 104.08C301.967 101.612 299.972 99.6113 297.511 99.6113C295.05 99.6113 293.055 101.612 293.055 104.08C293.055 106.548 295.05 108.548 297.511 108.548Z" fill="#22386B"/>
<path d="M280.16 108.58C282.622 108.58 284.617 106.579 284.617 104.111C284.617 101.643 282.622 99.6426 280.16 99.6426C277.699 99.6426 275.704 101.643 275.704 104.111C275.704 106.579 277.699 108.58 280.16 108.58Z" fill="#63E8C0"/>
<path d="M261.829 108.58C264.29 108.58 266.286 106.579 266.286 104.111C266.286 101.643 264.29 99.6426 261.829 99.6426C259.368 99.6426 257.373 101.643 257.373 104.111C257.373 106.579 259.368 108.58 261.829 108.58Z" fill="#FDFFFF"/>
<path d="M308.919 113.162V257.489C308.974 260.849 307.705 264.095 305.387 266.522C303.069 268.949 299.89 270.361 296.54 270.45H266.832L244.715 288.2L246.397 270.45H216.709C213.358 270.364 210.177 268.953 207.858 266.525C205.54 264.098 204.272 260.85 204.33 257.489V113.162H308.919Z" fill="white"/>
<path d="M222.454 121.055L213.995 135.743H230.912L222.454 121.055Z" fill="#86BBF9"/>
<path d="M222.454 162.688L230.912 148H213.995L222.454 162.688Z" fill="#63E8C0"/>
<path d="M277.788 121.055H235.855V126.413H277.788V121.055Z" fill="#B6D6FB"/>
<path d="M300.853 129.723H235.855V135.743H300.853V129.723Z" fill="#B6D6FB"/>
<path d="M277.788 147.969H235.855V153.327H277.788V147.969Z" fill="#B6D6FB"/>
<path d="M300.853 156.637H235.855V162.657H300.853V156.637Z" fill="#B6D6FB"/>
<path d="M222.406 169.516L213.947 184.204H230.865L222.406 169.516Z" fill="#86BBF9"/>
<path d="M222.454 196.43L213.995 211.118H230.912L222.454 196.43Z" fill="#86BBF9"/>
<path d="M277.735 169.516H235.803V174.874H277.735V169.516Z" fill="#B6D6FB"/>
<path d="M300.801 178.184H235.803V184.204H300.801V178.184Z" fill="#B6D6FB"/>
<path d="M277.735 196.43H235.803V201.788H277.735V196.43Z" fill="#B6D6FB"/>
<path d="M300.801 205.098H235.803V211.118H300.801V205.098Z" fill="#B6D6FB"/>
<path d="M221.661 235.725L230.12 221.037H213.202L221.661 235.725Z" fill="#63E8C0"/>
<path d="M276.995 220.996H235.062V226.354H276.995V220.996Z" fill="#B6D6FB"/>
<path d="M300.06 229.676H235.062V235.696H300.06V229.676Z" fill="#B6D6FB"/>
<path d="M221.61 242.553L213.141 257.241H230.068L221.61 242.553Z" fill="#86BBF9"/>
<path d="M276.94 242.553H235.008V247.911H276.94V242.553Z" fill="#B6D6FB"/>
<path d="M300.006 251.221H235.008V257.241H300.006V251.221Z" fill="#B6D6FB"/>
</g>
<g clip-path="url(#clip1_773_18894)">
<path d="M360.914 135.17L348.375 129.625L322.387 184.106L306.516 160.809L290.891 192.741H217.83L171.705 238.808L163.088 230.205L212.779 180.568H283.281L304.777 136.634L320.517 159.729L337.227 124.691L325.18 119.36L352.202 105.826L360.914 135.17Z" fill="#86BBF9"/>
</g>
<defs>
<filter id="filter0_dd_773_18894" x="0" y="0" width="524" height="348" filterUnits="userSpaceOnUse" color-interpolation-filters="sRGB">
<feFlood flood-opacity="0" result="BackgroundImageFix"/>
<feColorMatrix in="SourceAlpha" type="matrix" values="0 0 0 0 0 0 0 0 0 0 0 0 0 0 0 0 0 0 127 0" result="hardAlpha"/>
<feOffset dy="2"/>
<feGaussianBlur stdDeviation="5"/>
<feColorMatrix type="matrix" values="0 0 0 0 0 0 0 0 0 0 0 0 0 0 0 0 0 0 0.1 0"/>
<feBlend mode="normal" in2="BackgroundImageFix" result="effect1_dropShadow_773_18894"/>
<feColorMatrix in="SourceAlpha" type="matrix" values="0 0 0 0 0 0 0 0 0 0 0 0 0 0 0 0 0 0 127 0" result="hardAlpha"/>
<feOffset/>
<feGaussianBlur stdDeviation="1"/>
<feColorMatrix type="matrix" values="0 0 0 0 0 0 0 0 0 0 0 0 0 0 0 0 0 0 0.2 0"/>
<feBlend mode="normal" in2="effect1_dropShadow_773_18894" result="effect2_dropShadow_773_18894"/>
<feBlend mode="normal" in="SourceGraphic" in2="effect2_dropShadow_773_18894" result="shape"/>
</filter>
<clipPath id="clip0_773_18894">
<rect width="104.62" height="193.14" fill="white" transform="translate(204.301 95.0605)"/>
</clipPath>
<clipPath id="clip1_773_18894">
<rect width="197.826" height="132.982" fill="white" transform="translate(163.088 105.826)"/>
</clipPath>
</defs>
</svg>
