<svg width="524" height="348" viewBox="0 0 524 348" fill="none" xmlns="http://www.w3.org/2000/svg">
<g filter="url(#filter0_dd_773_18846)">
<rect x="10" y="8" width="504" height="328" fill="white"/>
</g>
<path d="M390.328 96.0703C397.802 88.6145 397.802 76.5261 390.328 69.0703C382.853 61.6144 370.735 61.6144 363.26 69.0703C355.786 76.5261 355.786 88.6145 363.26 96.0703C370.735 103.526 382.853 103.526 390.328 96.0703Z" fill="#D8E9FD"/>
<path d="M378.759 91.1168V93.7579H375.382V91.2336C373.013 91.0921 370.699 90.443 369.267 89.5671L371.079 85.4752C372.758 86.4389 374.654 86.9627 376.591 86.9979C378.189 86.9979 378.763 86.6655 378.763 86.0996C378.763 84.0042 369.532 85.6953 369.532 79.4833C369.532 76.7883 371.489 74.5424 375.402 73.9855V71.3848H378.779V73.9293C380.542 74.0977 382.262 74.5514 383.622 75.3128L381.911 79.3822C380.263 78.549 378.711 78.1425 377.257 78.1425C375.609 78.1425 375.084 78.6209 375.084 79.1913C375.084 81.1901 384.315 79.526 384.315 85.6639C384.322 88.2354 382.46 90.4722 378.759 91.1168Z" fill="white"/>
<path d="M343.522 120.072C349.925 120.072 355.117 114.893 355.117 108.506C355.117 102.118 349.925 96.9395 343.522 96.9395C337.118 96.9395 331.927 102.118 331.927 108.506C331.927 114.893 337.118 120.072 343.522 120.072Z" fill="#D8E9FD"/>
<path d="M344.713 113.682V115.283H342.687V113.754C341.241 113.668 339.841 113.28 338.972 112.745L340.07 110.275C341.087 110.859 342.236 111.176 343.409 111.198C344.377 111.198 344.724 110.996 344.724 110.648C344.724 109.379 339.132 110.403 339.132 106.641C339.132 105.01 340.316 103.641 342.687 103.31V101.738H344.713V103.281C345.735 103.359 346.731 103.644 347.64 104.117L346.613 106.587C345.746 106.118 344.78 105.861 343.794 105.837C342.797 105.837 342.477 106.127 342.477 106.473C342.477 107.683 348.072 106.675 348.072 110.394C348.081 111.937 346.953 113.293 344.713 113.682Z" fill="white"/>
<path d="M383.194 117.945C384.31 113.143 381.313 108.348 376.5 107.234C371.686 106.12 366.879 109.11 365.762 113.911C364.645 118.713 367.642 123.508 372.456 124.622C377.27 125.736 382.077 122.747 383.194 117.945Z" fill="#D8E9FD"/>
<path d="M375.382 119.919V121.152H373.806V119.973C372.68 119.906 371.608 119.607 370.939 119.194L371.786 117.28C372.571 117.732 373.458 117.977 374.364 117.992C375.111 117.992 375.379 117.837 375.379 117.57C375.379 116.591 371.063 117.381 371.063 114.477C371.063 113.22 371.977 112.162 373.806 111.908V110.695H375.382V111.886C376.168 111.946 376.934 112.165 377.633 112.53L376.843 114.432C376.174 114.071 375.428 113.873 374.668 113.853C373.896 113.853 373.652 114.078 373.652 114.345C373.652 115.279 377.968 114.5 377.968 117.37C377.98 118.571 377.108 119.618 375.382 119.919Z" fill="white"/>
<path d="M338.449 77.0293H337.141V86.3832H338.449V77.0293Z" fill="#1ECF9A"/>
<path d="M342.484 81.0547H333.106V82.3595H342.484V81.0547Z" fill="#1ECF9A"/>
<path d="M350.123 52H348.157V66.05H350.123V52Z" fill="#1ECF9A"/>
<path d="M356.183 58.043H342.098V60.0036H356.183V58.043Z" fill="#1ECF9A"/>
<path d="M394.29 123.844H392.802V134.482H394.29V123.844Z" fill="#1ECF9A"/>
<path d="M398.875 128.422H388.21V129.906H398.875V128.422Z" fill="#1ECF9A"/>
<path opacity="0.4" d="M229.484 99.4014C236.265 92.6375 236.265 81.6711 229.484 74.9072C222.704 68.1434 211.71 68.1434 204.929 74.9072C198.148 81.6711 198.148 92.6375 204.929 99.4014C211.71 106.165 222.704 106.165 229.484 99.4014Z" fill="#E5E5FF"/>
<path d="M191.984 102.738V102.177C192.91 102.169 193.836 102.106 194.755 101.988L194.825 102.545C193.883 102.667 192.934 102.732 191.984 102.738ZM189.142 102.597C188.199 102.494 187.262 102.335 186.337 102.121L186.465 101.575C187.368 101.784 188.282 101.94 189.203 102.042L189.142 102.597ZM197.617 102.015L197.479 101.469C198.378 101.243 199.261 100.961 200.125 100.627L200.328 101.15C199.442 101.492 198.537 101.781 197.617 102.015ZM183.611 101.301C182.719 100.975 181.847 100.596 181.001 100.164L181.258 99.6637C182.083 100.085 182.934 100.455 183.804 100.773L183.611 101.301ZM202.921 99.9669L202.656 99.4728C203.473 99.0371 204.264 98.5534 205.024 98.0242L205.346 98.4734C204.569 99.0192 203.759 99.518 202.921 99.9669ZM178.547 98.7227C177.763 98.1925 177.011 97.6166 176.296 96.9979L176.663 96.5734C177.364 97.1777 178.102 97.7394 178.871 98.2555L178.547 98.7227ZM207.568 96.7306L207.199 96.3016C207.889 95.685 208.541 95.028 209.153 94.3343L209.572 94.7093C208.945 95.4223 208.276 96.0972 207.568 96.7306ZM174.247 95.0305C173.607 94.3302 173.01 93.5922 172.459 92.8206L172.909 92.4949C173.448 93.2476 174.03 93.9675 174.654 94.6509L174.247 95.0305ZM211.321 92.4635L210.855 92.1468C211.381 91.3833 211.859 90.5891 212.29 89.7685L212.787 90.029C212.348 90.8693 211.859 91.6823 211.321 92.4635ZM170.951 90.4063C170.496 89.5748 170.093 88.7168 169.742 87.837L170.275 87.6304C170.619 88.4882 171.013 89.3251 171.455 90.1368L170.951 90.4063ZM213.953 87.4395L213.427 87.2419C213.753 86.3797 214.027 85.4984 214.246 84.603L214.793 84.7378C214.568 85.6544 214.288 86.5567 213.953 87.4395ZM168.85 85.142C168.608 84.2258 168.423 83.2958 168.294 82.3572L168.85 82.2808C168.977 83.1967 169.159 84.1041 169.395 84.9983L168.85 85.142ZM215.304 81.9327L214.746 81.8653C214.855 80.9471 214.91 80.0232 214.91 79.0985C214.91 78.8222 214.91 78.5392 214.894 78.2608L215.457 78.2405C215.457 78.5258 215.473 78.8155 215.473 79.1007C215.473 80.0472 215.417 80.9929 215.304 81.9327ZM168.073 79.5297C168.073 79.3859 168.073 79.2422 168.073 79.0985C168.073 78.2967 168.114 77.4882 168.193 76.6932L168.753 76.7493C168.675 77.5299 168.636 78.3139 168.636 79.0985C168.636 79.24 168.636 79.3792 168.636 79.5184L168.073 79.5297ZM214.629 75.5029C214.485 74.5935 214.286 73.6935 214.034 72.8078L214.577 72.6551C214.835 73.566 215.038 74.4914 215.185 75.4265L214.629 75.5029ZM169.197 74.0139L168.647 73.8926C168.855 72.9678 169.119 72.0566 169.438 71.1639L169.969 71.3503C169.658 72.2218 169.4 73.1113 169.197 74.0139ZM213.116 70.1802C212.756 69.3288 212.347 68.4993 211.889 67.6963L212.377 67.4178C212.847 68.2407 213.267 69.0912 213.634 69.9646L213.116 70.1802ZM171.059 68.8013L170.554 68.5497C170.979 67.6988 171.454 66.8738 171.977 66.0793L172.448 66.3892C171.936 67.1643 171.472 67.9698 171.059 68.8013ZM210.371 65.3763C209.82 64.633 209.225 63.9235 208.588 63.2518L208.998 62.8655C209.649 63.5545 210.259 64.2811 210.824 65.0417L210.371 65.3763ZM174.123 64.1838L173.695 63.82C174.309 63.0974 174.965 62.4119 175.661 61.7673L176.043 62.1805C175.36 62.809 174.716 63.4779 174.114 64.1838H174.123ZM206.571 61.354C205.859 60.7619 205.111 60.2129 204.333 59.7101L204.639 59.2407C205.436 59.7549 206.202 60.3167 206.931 60.9228L206.571 61.354ZM178.189 60.4198L177.858 59.9706C178.625 59.4124 179.426 58.9017 180.256 58.4412L180.528 58.933C179.716 59.3809 178.932 59.8773 178.18 60.4198H178.189ZM201.915 58.3468C201.081 57.9418 200.224 57.5871 199.348 57.2846L199.531 56.7545C200.429 57.0634 201.307 57.4271 202.16 57.8438L201.915 58.3468ZM183.032 57.727L182.807 57.2082C183.688 56.8497 184.59 56.5445 185.509 56.2941L185.657 56.8354C184.762 57.079 183.882 57.3768 183.023 57.727H183.032ZM196.662 56.53C195.756 56.3367 194.838 56.1972 193.915 56.1122L193.967 55.553C194.912 55.6406 195.851 55.7839 196.779 55.982L196.662 56.53ZM188.37 56.2605L188.289 55.7057C189.228 55.5678 190.175 55.4861 191.124 55.4609L191.139 56.0224C190.212 56.0497 189.288 56.1315 188.37 56.2672V56.2605Z" fill="#1ECF9A"/>
<path d="M97.2621 223.502C95.0983 223.5 93.0237 222.641 91.4937 221.115C89.9636 219.589 89.103 217.519 89.1006 215.361C89.1053 213.204 89.967 211.137 91.4967 209.612C93.0265 208.087 95.0996 207.23 97.2621 207.227C99.4262 207.227 101.502 208.084 103.033 209.609C104.565 211.134 105.428 213.202 105.433 215.361C105.43 217.521 104.568 219.591 103.036 221.118C101.504 222.644 99.4273 223.502 97.2621 223.502ZM97.2621 208.343C95.3968 208.345 93.6086 209.085 92.2897 210.401C90.9707 211.717 90.2287 213.5 90.2263 215.361C90.2281 217.222 90.9699 219.006 92.289 220.322C93.6081 221.637 95.3967 222.377 97.2621 222.379C99.1291 222.38 100.92 221.641 102.241 220.325C103.562 219.009 104.305 217.223 104.307 215.361C104.303 213.5 103.559 211.717 102.238 210.402C100.917 209.088 99.1278 208.349 97.2621 208.349V208.343Z" fill="#1ECF9A"/>
<path d="M370.25 118.922H136.326V291.439H370.25V118.922Z" fill="white"/>
<path d="M370.815 291.999H135.763V118.359H370.815V291.999ZM136.888 290.876H369.689V119.482H136.888V290.876Z" fill="#1ECF9A"/>
<path d="M171.673 235.406H152.535V272.348H171.673V235.406Z" fill="#D8E9FD"/>
<path d="M202.069 216.984H182.932V272.349H202.069V216.984Z" fill="#D8E9FD"/>
<path d="M232.462 178.988H213.324V272.348H232.462V178.988Z" fill="#D8E9FD"/>
<path d="M262.856 205.965H243.719V272.35H262.856V205.965Z" fill="#D8E9FD"/>
<path d="M293.251 176.688H274.113V272.349H293.251V176.688Z" fill="#D8E9FD"/>
<path d="M323.647 181.684H304.51V272.348H323.647V181.684Z" fill="#D8E9FD"/>
<path d="M354.04 148.559H334.902V272.35H354.04V148.559Z" fill="#D8E9FD"/>
<path d="M158.305 257.69L157.796 256.688L189.76 240.467L222.723 195.68L252.902 227.192L283.927 196.242L314.018 199.889L344.216 165.303L345.065 166.042L314.475 201.075L284.337 197.423L252.884 228.797L222.836 197.423L190.51 241.347L158.305 257.69Z" fill="#1ECF9A"/>
<path d="M300.38 140.219H206.195V141.342H300.38V140.219Z" fill="#1ECF9A"/>
<path d="M268.59 152.57H237.988V153.693H268.59V152.57Z" fill="#1ECF9A"/>
<path d="M195.213 90.4043H86.5625V175.538H195.213V90.4043Z" fill="white"/>
<path d="M195.776 176.098H86V89.8418H195.776V176.098ZM87.1257 174.975H194.651V90.9647H87.1257V174.975Z" fill="#1ECF9A"/>
<path d="M125.827 104.352H101.322V118.193H125.827V104.352Z" fill="#1ECF9A"/>
<path d="M180.743 105.688H136.162V106.276H180.743V105.688Z" fill="#1ECF9A"/>
<path d="M180.743 110.979H136.162V111.567H180.743V110.979Z" fill="#D1D1FF"/>
<path d="M180.743 116.27H136.162V116.858H180.743V116.27Z" fill="#D1D1FF"/>
<path d="M117.957 145.809H112.84V161.624H117.957V145.809Z" fill="#D8E9FD"/>
<path d="M123.074 138.113H117.956V161.623H123.074V138.113Z" fill="#1ECF9A"/>
<path d="M137.048 135.453H131.931V161.525H137.048V135.453Z" fill="#D8E9FD"/>
<path d="M142.167 151.875H137.05V161.523H142.167V151.875Z" fill="#1ECF9A"/>
<path d="M156.142 143.547H151.024V161.601H156.142V143.547Z" fill="#D8E9FD"/>
<path d="M161.26 139.557H156.143V161.602H161.26V139.557Z" fill="#1ECF9A"/>
<path d="M175.237 148.895H170.119V161.485H175.237V148.895Z" fill="#D8E9FD"/>
<path d="M180.353 131.447H175.235V161.488H180.353V131.447Z" fill="#1ECF9A"/>
<path d="M180.352 161.781H101.571V130.072H102.161V161.191H180.352V161.781Z" fill="#1ECF9A"/>
<path d="M411.195 169.676V185.096L404.067 190.149H411.195H437.718V169.676H411.195Z" fill="white"/>
<path d="M437.999 190.429H403.183L410.914 184.949V169.395H437.999V190.429ZM404.948 189.868H437.436V169.956H411.477V185.239L404.948 189.868Z" fill="#1ECF9A"/>
<path d="M424.096 185.354L419.765 181.195L420.546 180.386L423.813 183.526L429.372 173.363L430.358 173.9L424.096 185.354Z" fill="#1ECF9A"/>
<defs>
<filter id="filter0_dd_773_18846" x="0" y="0" width="524" height="348" filterUnits="userSpaceOnUse" color-interpolation-filters="sRGB">
<feFlood flood-opacity="0" result="BackgroundImageFix"/>
<feColorMatrix in="SourceAlpha" type="matrix" values="0 0 0 0 0 0 0 0 0 0 0 0 0 0 0 0 0 0 127 0" result="hardAlpha"/>
<feOffset dy="2"/>
<feGaussianBlur stdDeviation="5"/>
<feColorMatrix type="matrix" values="0 0 0 0 0 0 0 0 0 0 0 0 0 0 0 0 0 0 0.1 0"/>
<feBlend mode="normal" in2="BackgroundImageFix" result="effect1_dropShadow_773_18846"/>
<feColorMatrix in="SourceAlpha" type="matrix" values="0 0 0 0 0 0 0 0 0 0 0 0 0 0 0 0 0 0 127 0" result="hardAlpha"/>
<feOffset/>
<feGaussianBlur stdDeviation="1"/>
<feColorMatrix type="matrix" values="0 0 0 0 0 0 0 0 0 0 0 0 0 0 0 0 0 0 0.2 0"/>
<feBlend mode="normal" in2="effect1_dropShadow_773_18846" result="effect2_dropShadow_773_18846"/>
<feBlend mode="normal" in="SourceGraphic" in2="effect2_dropShadow_773_18846" result="shape"/>
</filter>
</defs>
</svg>
