<svg width="524" height="348" viewBox="0 0 524 348" fill="none" xmlns="http://www.w3.org/2000/svg">
<g filter="url(#filter0_dd_773_20884)">
<rect x="10" y="8" width="504" height="328" fill="white"/>
</g>
<path d="M390.327 96.0703C397.802 88.6145 397.802 76.5261 390.327 69.0703C382.853 61.6144 370.734 61.6144 363.26 69.0703C355.785 76.5261 355.785 88.6145 363.26 96.0703C370.734 103.526 382.853 103.526 390.327 96.0703Z" fill="#D8E9FD"/>
<path d="M378.759 91.1168V93.7579H375.382V91.2336C373.013 91.0921 370.699 90.443 369.267 89.5671L371.079 85.4752C372.758 86.4389 374.654 86.9627 376.591 86.9979C378.189 86.9979 378.763 86.6655 378.763 86.0996C378.763 84.0042 369.532 85.6953 369.532 79.4833C369.532 76.7883 371.489 74.5424 375.402 73.9855V71.3848H378.779V73.9293C380.542 74.0977 382.262 74.5514 383.622 75.3128L381.911 79.3822C380.263 78.549 378.711 78.1425 377.257 78.1425C375.609 78.1425 375.084 78.6209 375.084 79.1913C375.084 81.1901 384.315 79.526 384.315 85.6639C384.322 88.2354 382.46 90.4722 378.759 91.1168Z" fill="white"/>
<path d="M343.522 120.072C349.925 120.072 355.117 114.893 355.117 108.506C355.117 102.118 349.925 96.9395 343.522 96.9395C337.118 96.9395 331.927 102.118 331.927 108.506C331.927 114.893 337.118 120.072 343.522 120.072Z" fill="#D8E9FD"/>
<path d="M344.713 113.682V115.283H342.687V113.754C341.241 113.668 339.841 113.28 338.972 112.745L340.07 110.275C341.087 110.859 342.236 111.176 343.409 111.198C344.377 111.198 344.724 110.996 344.724 110.648C344.724 109.379 339.132 110.403 339.132 106.641C339.132 105.01 340.316 103.641 342.687 103.31V101.738H344.713V103.281C345.735 103.359 346.731 103.644 347.64 104.117L346.613 106.587C345.746 106.118 344.78 105.861 343.794 105.837C342.797 105.837 342.477 106.127 342.477 106.473C342.477 107.683 348.072 106.675 348.072 110.394C348.081 111.937 346.953 113.293 344.713 113.682Z" fill="white"/>
<path d="M383.193 117.945C384.31 113.143 381.313 108.348 376.499 107.234C371.686 106.12 366.878 109.11 365.762 113.911C364.645 118.713 367.642 123.508 372.456 124.622C377.269 125.736 382.077 122.747 383.193 117.945Z" fill="#D8E9FD"/>
<path d="M375.381 119.919V121.152H373.805V119.973C372.68 119.906 371.608 119.607 370.939 119.194L371.786 117.28C372.571 117.732 373.458 117.977 374.364 117.992C375.111 117.992 375.379 117.837 375.379 117.57C375.379 116.591 371.063 117.381 371.063 114.477C371.063 113.22 371.977 112.162 373.805 111.908V110.695H375.381V111.886C376.168 111.946 376.934 112.165 377.633 112.53L376.843 114.432C376.173 114.071 375.428 113.873 374.668 113.853C373.895 113.853 373.652 114.078 373.652 114.345C373.652 115.279 377.968 114.5 377.968 117.37C377.979 118.571 377.108 119.618 375.381 119.919Z" fill="white"/>
<path d="M338.449 77.0293H337.141V86.3832H338.449V77.0293Z" fill="#1ECF9A"/>
<path d="M342.484 81.0547H333.106V82.3595H342.484V81.0547Z" fill="#1ECF9A"/>
<path d="M350.123 52H348.157V66.05H350.123V52Z" fill="#1ECF9A"/>
<path d="M356.183 58.043H342.098V60.0036H356.183V58.043Z" fill="#1ECF9A"/>
<path d="M394.29 123.845H392.802V134.483H394.29V123.845Z" fill="#1ECF9A"/>
<path d="M398.876 128.422H388.21V129.906H398.876V128.422Z" fill="#1ECF9A"/>
<path opacity="0.4" d="M229.484 99.4014C236.265 92.6375 236.265 81.6711 229.484 74.9072C222.703 68.1434 211.709 68.1434 204.929 74.9072C198.148 81.6711 198.148 92.6375 204.929 99.4014C211.709 106.165 222.703 106.165 229.484 99.4014Z" fill="#E5E5FF"/>
<path d="M191.983 102.738V102.177C192.91 102.169 193.835 102.106 194.755 101.988L194.825 102.545C193.882 102.667 192.933 102.732 191.983 102.738ZM189.142 102.597C188.198 102.494 187.261 102.335 186.337 102.121L186.465 101.575C187.367 101.784 188.282 101.94 189.203 102.042L189.142 102.597ZM197.616 102.015L197.479 101.469C198.377 101.243 199.261 100.961 200.124 100.627L200.327 101.15C199.442 101.492 198.536 101.781 197.616 102.015ZM183.61 101.301C182.718 100.975 181.847 100.596 181.001 100.164L181.257 99.6637C182.083 100.085 182.933 100.455 183.804 100.773L183.61 101.301ZM202.921 99.9669L202.655 99.4728C203.473 99.0371 204.264 98.5534 205.024 98.0242L205.346 98.4734C204.568 99.0192 203.758 99.518 202.921 99.9669ZM178.547 98.7227C177.763 98.1925 177.011 97.6166 176.295 96.9979L176.662 96.5734C177.364 97.1777 178.101 97.7394 178.871 98.2555L178.547 98.7227ZM207.568 96.7306L207.199 96.3016C207.888 95.685 208.541 95.028 209.153 94.3343L209.572 94.7093C208.945 95.4223 208.275 96.0972 207.568 96.7306ZM174.246 95.0305C173.607 94.3302 173.01 93.5922 172.459 92.8206L172.909 92.4949C173.447 93.2476 174.03 93.9675 174.654 94.6509L174.246 95.0305ZM211.321 92.4635L210.855 92.1468C211.38 91.3833 211.859 90.5891 212.289 89.7685L212.787 90.029C212.348 90.8693 211.858 91.6823 211.321 92.4635ZM170.95 90.4063C170.496 89.5748 170.092 88.7168 169.741 87.837L170.275 87.6304C170.618 88.4882 171.012 89.3251 171.454 90.1368L170.95 90.4063ZM213.953 87.4395L213.426 87.2419C213.753 86.3797 214.026 85.4984 214.246 84.603L214.793 84.7378C214.568 85.6544 214.287 86.5567 213.953 87.4395ZM168.85 85.142C168.608 84.2258 168.422 83.2958 168.293 82.3572L168.85 82.2808C168.977 83.1967 169.159 84.1041 169.394 84.9983L168.85 85.142ZM215.304 81.9327L214.745 81.8653C214.854 80.9471 214.909 80.0232 214.91 79.0985C214.91 78.8222 214.91 78.5392 214.894 78.2608L215.457 78.2405C215.457 78.5258 215.473 78.8155 215.473 79.1007C215.473 80.0472 215.416 80.9929 215.304 81.9327ZM168.073 79.5297C168.073 79.3859 168.073 79.2422 168.073 79.0985C168.073 78.2967 168.113 77.4882 168.192 76.6932L168.753 76.7493C168.674 77.5299 168.635 78.3139 168.636 79.0985C168.636 79.24 168.636 79.3792 168.636 79.5184L168.073 79.5297ZM214.628 75.5029C214.484 74.5935 214.286 73.6935 214.034 72.8078L214.577 72.6551C214.834 73.566 215.037 74.4914 215.184 75.4265L214.628 75.5029ZM169.196 74.0139L168.647 73.8926C168.854 72.9678 169.118 72.0566 169.437 71.1639L169.968 71.3503C169.658 72.2218 169.4 73.1113 169.196 74.0139ZM213.115 70.1802C212.756 69.3288 212.346 68.4993 211.888 67.6963L212.377 67.4178C212.847 68.2407 213.266 69.0912 213.633 69.9646L213.115 70.1802ZM171.058 68.8013L170.554 68.5497C170.978 67.6988 171.454 66.8738 171.977 66.0793L172.447 66.3892C171.935 67.1643 171.472 67.9698 171.058 68.8013ZM210.371 65.3763C209.82 64.633 209.224 63.9235 208.588 63.2518L208.997 62.8655C209.648 63.5545 210.258 64.2811 210.823 65.0417L210.371 65.3763ZM174.122 64.1838L173.695 63.82C174.308 63.0974 174.965 62.4119 175.66 61.7673L176.043 62.1805C175.36 62.809 174.716 63.4779 174.113 64.1838H174.122ZM206.57 61.354C205.858 60.7619 205.111 60.2129 204.332 59.7101L204.639 59.2407C205.436 59.7549 206.201 60.3167 206.931 60.9228L206.57 61.354ZM178.189 60.4198L177.858 59.9706C178.625 59.4124 179.426 58.9017 180.255 58.4412L180.528 58.933C179.716 59.3809 178.931 59.8773 178.18 60.4198H178.189ZM201.914 58.3468C201.081 57.9418 200.224 57.5871 199.348 57.2846L199.53 56.7545C200.428 57.0634 201.306 57.4271 202.16 57.8438L201.914 58.3468ZM183.031 57.727L182.806 57.2082C183.688 56.8497 184.59 56.5445 185.508 56.2941L185.657 56.8354C184.761 57.079 183.882 57.3768 183.022 57.727H183.031ZM196.662 56.53C195.755 56.3367 194.838 56.1972 193.915 56.1122L193.967 55.553C194.912 55.6406 195.851 55.7839 196.779 55.982L196.662 56.53ZM188.37 56.2605L188.289 55.7057C189.228 55.5678 190.174 55.4861 191.123 55.4609L191.139 56.0224C190.212 56.0497 189.287 56.1315 188.37 56.2672V56.2605Z" fill="#1ECF9A"/>
<path d="M97.2624 223.502C95.0985 223.5 93.024 222.641 91.4939 221.115C89.9638 219.589 89.1032 217.519 89.1008 215.361C89.1056 213.204 89.9672 211.137 91.497 209.612C93.0267 208.087 95.0999 207.23 97.2624 207.227C99.4264 207.227 101.502 208.084 103.034 209.609C104.565 211.134 105.428 213.202 105.433 215.361C105.43 217.521 104.568 219.591 103.036 221.118C101.504 222.644 99.4276 223.502 97.2624 223.502ZM97.2624 208.343C95.3971 208.345 93.6089 209.085 92.2899 210.401C90.971 211.717 90.2289 213.5 90.2266 215.361C90.2283 217.222 90.9702 219.006 92.2893 220.322C93.6083 221.637 95.3969 222.377 97.2624 222.379C99.1294 222.38 100.92 221.641 102.241 220.325C103.562 219.009 104.305 217.223 104.307 215.361C104.303 213.5 103.559 211.717 102.238 210.402C100.918 209.088 99.128 208.349 97.2624 208.349V208.343Z" fill="#1ECF9A"/>
<path d="M370.25 118.922H136.326V291.439H370.25V118.922Z" fill="white"/>
<path d="M370.815 291.999H135.763V118.359H370.815V291.999ZM136.889 290.876H369.689V119.482H136.889V290.876Z" fill="#1ECF9A"/>
<path d="M171.673 235.407H152.535V272.349H171.673V235.407Z" fill="#D8E9FD"/>
<path d="M202.069 216.984H182.932V272.349H202.069V216.984Z" fill="#D8E9FD"/>
<path d="M232.462 178.989H213.324V272.349H232.462V178.989Z" fill="#D8E9FD"/>
<path d="M262.856 205.964H243.719V272.349H262.856V205.964Z" fill="#D8E9FD"/>
<path d="M293.251 176.688H274.113V272.349H293.251V176.688Z" fill="#D8E9FD"/>
<path d="M323.647 181.684H304.51V272.348H323.647V181.684Z" fill="#D8E9FD"/>
<path d="M354.04 148.559H334.902V272.35H354.04V148.559Z" fill="#D8E9FD"/>
<path d="M158.305 257.69L157.796 256.688L189.76 240.467L222.723 195.68L252.902 227.192L283.927 196.242L314.018 199.889L344.216 165.303L345.065 166.042L314.475 201.075L284.337 197.423L252.884 228.797L222.836 197.423L190.51 241.347L158.305 257.69Z" fill="#1ECF9A"/>
<path d="M300.38 140.219H206.195V141.342H300.38V140.219Z" fill="#1ECF9A"/>
<path d="M268.59 152.57H237.989V153.693H268.59V152.57Z" fill="#1ECF9A"/>
<path d="M195.213 90.4043H86.5627V175.538H195.213V90.4043Z" fill="white"/>
<path d="M195.776 176.099H86V89.8428H195.776V176.099ZM87.1257 174.976H194.651V90.9657H87.1257V174.976Z" fill="#1ECF9A"/>
<path d="M125.827 104.351H101.323V118.192H125.827V104.351Z" fill="#1ECF9A"/>
<path d="M180.743 105.688H136.162V106.276H180.743V105.688Z" fill="#1ECF9A"/>
<path d="M180.743 110.979H136.162V111.567H180.743V110.979Z" fill="#D1D1FF"/>
<path d="M180.743 116.27H136.162V116.858H180.743V116.27Z" fill="#D1D1FF"/>
<path d="M117.957 145.809H112.84V161.624H117.957V145.809Z" fill="#D8E9FD"/>
<path d="M123.073 138.112H117.956V161.622H123.073V138.112Z" fill="#1ECF9A"/>
<path d="M137.048 135.453H131.93V161.525H137.048V135.453Z" fill="#D8E9FD"/>
<path d="M142.168 151.875H137.05V161.523H142.168V151.875Z" fill="#1ECF9A"/>
<path d="M156.142 143.547H151.025V161.601H156.142V143.547Z" fill="#D8E9FD"/>
<path d="M161.26 139.557H156.143V161.602H161.26V139.557Z" fill="#1ECF9A"/>
<path d="M175.237 148.895H170.119V161.485H175.237V148.895Z" fill="#D8E9FD"/>
<path d="M180.353 131.447H175.235V161.488H180.353V131.447Z" fill="#1ECF9A"/>
<path d="M180.352 161.781H101.571V130.072H102.161V161.191H180.352V161.781Z" fill="#1ECF9A"/>
<path d="M411.195 169.676V185.096L404.067 190.149H411.195H437.717V169.676H411.195Z" fill="white"/>
<path d="M437.999 190.429H403.183L410.914 184.949V169.395H437.999V190.429ZM404.948 189.868H437.436V169.956H411.477V185.239L404.948 189.868Z" fill="#1ECF9A"/>
<path d="M424.097 185.354L419.765 181.195L420.546 180.386L423.813 183.526L429.372 173.363L430.358 173.9L424.097 185.354Z" fill="#1ECF9A"/>
<defs>
<filter id="filter0_dd_773_20884" x="0" y="0" width="524" height="348" filterUnits="userSpaceOnUse" color-interpolation-filters="sRGB">
<feFlood flood-opacity="0" result="BackgroundImageFix"/>
<feColorMatrix in="SourceAlpha" type="matrix" values="0 0 0 0 0 0 0 0 0 0 0 0 0 0 0 0 0 0 127 0" result="hardAlpha"/>
<feOffset dy="2"/>
<feGaussianBlur stdDeviation="5"/>
<feColorMatrix type="matrix" values="0 0 0 0 0 0 0 0 0 0 0 0 0 0 0 0 0 0 0.1 0"/>
<feBlend mode="normal" in2="BackgroundImageFix" result="effect1_dropShadow_773_20884"/>
<feColorMatrix in="SourceAlpha" type="matrix" values="0 0 0 0 0 0 0 0 0 0 0 0 0 0 0 0 0 0 127 0" result="hardAlpha"/>
<feOffset/>
<feGaussianBlur stdDeviation="1"/>
<feColorMatrix type="matrix" values="0 0 0 0 0 0 0 0 0 0 0 0 0 0 0 0 0 0 0.2 0"/>
<feBlend mode="normal" in2="effect1_dropShadow_773_20884" result="effect2_dropShadow_773_20884"/>
<feBlend mode="normal" in="SourceGraphic" in2="effect2_dropShadow_773_20884" result="shape"/>
</filter>
</defs>
</svg>
