<svg width="701" height="515" viewBox="0 0 701 515" fill="none" xmlns="http://www.w3.org/2000/svg">
<g filter="url(#filter0_dd_773_14584)">
<rect x="10" y="8" width="681" height="495" fill="white"/>
</g>
<path d="M571.657 124.205C584.568 111.313 584.568 90.4099 571.657 77.5175C558.747 64.6251 537.815 64.6251 524.904 77.5175C511.994 90.41 511.994 111.313 524.904 124.205C537.815 137.098 558.747 137.098 571.657 124.205Z" fill="#D8E9FD"/>
<path d="M551.677 115.637V120.204H545.843V115.839C541.752 115.595 537.755 114.472 535.281 112.958L538.412 105.882C541.312 107.549 544.587 108.454 547.932 108.515C550.693 108.515 551.684 107.941 551.684 106.962C551.684 103.339 535.74 106.263 535.74 95.5213C535.74 90.8611 539.12 86.9777 545.878 86.0146V81.5176H551.712V85.9175C554.757 86.2088 557.728 86.9932 560.077 88.3097L557.121 95.3465C554.274 93.9058 551.595 93.2029 549.083 93.2029C546.236 93.2029 545.33 94.03 545.33 95.0164C545.33 98.4727 561.274 95.5951 561.274 106.208C561.286 110.655 558.07 114.523 551.677 115.637Z" fill="white"/>
<path d="M490.81 165.706C501.871 165.706 510.838 156.752 510.838 145.707C510.838 134.661 501.871 125.707 490.81 125.707C479.749 125.707 470.782 134.661 470.782 145.707C470.782 156.752 479.749 165.706 490.81 165.706Z" fill="#D8E9FD"/>
<path d="M492.868 154.658V157.427H489.368V154.782C486.871 154.635 484.453 153.963 482.951 153.039L484.849 148.767C486.606 149.777 488.59 150.326 490.616 150.363C492.289 150.363 492.887 150.013 492.887 149.411C492.887 147.217 483.228 148.988 483.228 142.483C483.228 139.664 485.273 137.295 489.368 136.724V134.006H492.868V136.674C494.634 136.809 496.354 137.3 497.924 138.118L496.15 142.39C494.653 141.58 492.984 141.135 491.281 141.093C489.559 141.093 489.006 141.594 489.006 142.192C489.006 144.285 498.67 142.542 498.67 148.973C498.686 151.641 496.737 153.986 492.868 154.658Z" fill="white"/>
<path d="M559.334 162.029C561.263 153.726 556.086 145.434 547.772 143.508C539.457 141.582 531.154 146.751 529.225 155.054C527.296 163.357 532.473 171.649 540.787 173.575C549.102 175.501 557.405 170.332 559.334 162.029Z" fill="#D8E9FD"/>
<path d="M545.844 165.443V167.575H543.122V165.537C541.177 165.42 539.326 164.904 538.171 164.189L539.633 160.88C540.989 161.661 542.521 162.085 544.086 162.111C545.377 162.111 545.84 161.843 545.84 161.381C545.84 159.688 538.385 161.055 538.385 156.034C538.385 153.859 539.964 152.03 543.122 151.591V149.494H545.844V151.552C547.202 151.657 548.526 152.036 549.733 152.667L548.368 155.956C547.212 155.331 545.925 154.988 544.611 154.954C543.277 154.954 542.857 155.343 542.857 155.805C542.857 157.42 550.312 156.073 550.312 161.036C550.332 163.113 548.827 164.923 545.844 165.443Z" fill="white"/>
<path d="M482.049 91.2812H479.79V107.456H482.049V91.2812Z" fill="#1ECF9A"/>
<path d="M489.019 98.2402H472.822V100.497H489.019V98.2402Z" fill="#1ECF9A"/>
<path d="M502.211 48H498.816V72.2948H502.211V48Z" fill="#1ECF9A"/>
<path d="M512.68 58.4512H488.351V61.8407H512.68V58.4512Z" fill="#1ECF9A"/>
<path d="M578.503 172.232H575.932V190.628H578.503V172.232Z" fill="#1ECF9A"/>
<path d="M586.424 180.146H568.002V182.714H586.424V180.146Z" fill="#1ECF9A"/>
<path d="M65.4527 344.555C61.7151 344.551 58.1318 343.067 55.489 340.428C52.8461 337.789 51.3596 334.21 51.3555 330.478C51.3637 326.748 52.8519 323.173 55.4942 320.537C58.1365 317.9 61.7175 316.417 65.4527 316.412C69.1906 316.413 72.7755 317.895 75.4212 320.531C78.0668 323.168 79.5572 326.745 79.5654 330.478C79.5603 334.213 78.0713 337.793 75.4253 340.432C72.7793 343.071 69.1926 344.554 65.4527 344.555V344.555ZM65.4527 318.342C62.2308 318.346 59.1421 319.626 56.8639 321.901C54.5857 324.176 53.304 327.261 53.2999 330.478C53.303 333.696 54.5844 336.781 56.8628 339.056C59.1412 341.331 62.2305 342.611 65.4527 342.614C68.6775 342.615 71.7708 341.337 74.0526 339.061C76.3344 336.786 77.6179 333.698 77.621 330.478C77.6138 327.26 76.3286 324.176 74.0474 321.903C71.7661 319.63 68.6752 318.354 65.4527 318.354V318.342Z" fill="#1ECF9A"/>
<path d="M536.979 163.719H132.927V462.029H536.979V163.719Z" fill="white"/>
<path d="M537.954 463H131.954V162.748H537.954V463ZM133.899 461.058H536.009V164.69H133.899V461.058Z" fill="#1ECF9A"/>
<path d="M193.981 365.141H160.926V429.019H193.981V365.141Z" fill="#D8E9FD"/>
<path d="M246.482 333.285H213.427V429.02H246.482V333.285Z" fill="#D8E9FD"/>
<path d="M298.979 267.586H265.923V429.021H298.979V267.586Z" fill="#D8E9FD"/>
<path d="M351.48 314.229H318.425V429.019H351.48V314.229Z" fill="#D8E9FD"/>
<path d="M403.98 263.605H370.924V429.021H403.98V263.605Z" fill="#D8E9FD"/>
<path d="M456.481 272.246H423.426V429.021H456.481V272.246Z" fill="#D8E9FD"/>
<path d="M508.978 214.965H475.923V429.02H508.978V214.965Z" fill="#D8E9FD"/>
<path d="M170.889 403.673L170.01 401.941L225.221 373.891L282.158 296.447L334.285 350.936L387.874 297.418L439.849 303.725L492.01 243.92L493.476 245.198L440.638 305.775L388.581 299.461L334.254 353.713L282.353 299.461L226.516 375.413L170.889 403.673Z" fill="#1ECF9A"/>
<path d="M416.295 200.545H253.611V202.487H416.295V200.545Z" fill="#1ECF9A"/>
<path d="M361.384 221.904H308.526V223.846H361.384V221.904Z" fill="#1ECF9A"/>
<path d="M234.644 114.406H46.9739V261.616H234.644V114.406Z" fill="white"/>
<path d="M235.614 262.587H46V113.436H235.614V262.587ZM47.9444 260.645H233.67V115.377H47.9444V260.645Z" fill="#1ECF9A"/>
<path d="M114.793 138.523H72.4668V162.457H114.793V138.523Z" fill="#1ECF9A"/>
<path d="M209.646 140.834H132.642V141.852H209.646V140.834Z" fill="#1ECF9A"/>
<path d="M209.646 149.982H132.642V151H209.646V149.982Z" fill="#D1D1FF"/>
<path d="M209.646 159.133H132.642V160.15H209.646V159.133Z" fill="#D1D1FF"/>
<path d="M101.198 210.211H92.3586V237.558H101.198V210.211Z" fill="#D8E9FD"/>
<path d="M110.035 196.902H101.196V237.554H110.035V196.902Z" fill="#1ECF9A"/>
<path d="M134.175 192.305H125.336V237.387H134.175V192.305Z" fill="#D8E9FD"/>
<path d="M143.017 220.701H134.178V237.384H143.017V220.701Z" fill="#1ECF9A"/>
<path d="M167.157 206.301H158.317V237.52H167.157V206.301Z" fill="#D8E9FD"/>
<path d="M175.995 199.4H167.155V237.52H175.995V199.4Z" fill="#1ECF9A"/>
<path d="M200.134 215.547H191.295V237.317H200.134V215.547Z" fill="#D8E9FD"/>
<path d="M208.972 185.377H200.132V237.322H208.972V185.377Z" fill="#1ECF9A"/>
<path d="M208.971 237.83H72.8953V183H73.9141V236.809H208.971V237.83Z" fill="#1ECF9A"/>
<path d="M607.704 251.48V278.144L595.391 286.882H607.704H653.515V251.48H607.704Z" fill="white"/>
<path d="M654.001 287.368H593.863L607.217 277.893V250.996H654.001V287.368ZM596.912 286.397H653.028V251.967H608.189V278.394L596.912 286.397Z" fill="#1ECF9A"/>
<path d="M629.985 278.591L622.503 271.399L623.852 270.001L629.495 275.43L639.097 257.857L640.8 258.786L629.985 278.591Z" fill="#1ECF9A"/>
<defs>
<filter id="filter0_dd_773_14584" x="0" y="0" width="701" height="515" filterUnits="userSpaceOnUse" color-interpolation-filters="sRGB">
<feFlood flood-opacity="0" result="BackgroundImageFix"/>
<feColorMatrix in="SourceAlpha" type="matrix" values="0 0 0 0 0 0 0 0 0 0 0 0 0 0 0 0 0 0 127 0" result="hardAlpha"/>
<feOffset dy="2"/>
<feGaussianBlur stdDeviation="5"/>
<feColorMatrix type="matrix" values="0 0 0 0 0 0 0 0 0 0 0 0 0 0 0 0 0 0 0.1 0"/>
<feBlend mode="normal" in2="BackgroundImageFix" result="effect1_dropShadow_773_14584"/>
<feColorMatrix in="SourceAlpha" type="matrix" values="0 0 0 0 0 0 0 0 0 0 0 0 0 0 0 0 0 0 127 0" result="hardAlpha"/>
<feOffset/>
<feGaussianBlur stdDeviation="1"/>
<feColorMatrix type="matrix" values="0 0 0 0 0 0 0 0 0 0 0 0 0 0 0 0 0 0 0.2 0"/>
<feBlend mode="normal" in2="effect1_dropShadow_773_14584" result="effect2_dropShadow_773_14584"/>
<feBlend mode="normal" in="SourceGraphic" in2="effect2_dropShadow_773_14584" result="shape"/>
</filter>
</defs>
</svg>
