<svg width="524" height="348" viewBox="0 0 524 348" fill="none" xmlns="http://www.w3.org/2000/svg">
<g filter="url(#filter0_dd_773_18674)">
<rect x="10" y="8" width="504" height="328" fill="white"/>
</g>
<g clip-path="url(#clip0_773_18674)">
<path d="M87.3322 83.1797H85.8545V130.702H87.3322V83.1797Z" fill="#9DF1D8"/>
<path d="M90.2792 95.0977H82.8975V118.33H90.2792V95.0977Z" fill="#91D5FD"/>
<path d="M138.938 135.758H137.46V169.988H138.938V135.758Z" fill="#9DF1D8"/>
<path d="M141.892 147.676H134.511V159.496H141.892V147.676Z" fill="#91D5FD"/>
<path d="M160.011 87.2168H158.533V134.74H160.011V87.2168Z" fill="#9DF1D8"/>
<path d="M162.962 95.4395H155.58V125.318H162.962V95.4395Z" fill="#91D5FD"/>
<path d="M188.717 52.6113H187.239V100.134H188.717V52.6113Z" fill="#9DF1D8"/>
<path d="M191.667 60.0996H184.285V76.6856H191.667V60.0996Z" fill="#91D5FD"/>
<path d="M206.43 121.697H204.952V169.22H206.43V121.697Z" fill="#9DF1D8"/>
<path d="M209.38 129.184H201.998V161.284H209.38V129.184Z" fill="#91D5FD"/>
<path d="M229.029 73.1934H227.552V109.639H229.029V73.1934Z" fill="#9DF1D8"/>
<path d="M231.978 82.1543H224.597V99.4765H231.978V82.1543Z" fill="#91D5FD"/>
<path d="M252.828 105.703H251.055V153.226H252.828V105.703Z" fill="#9DF1D8"/>
<path d="M256.383 114.662H247.504V140.853H256.383V114.662Z" fill="#91D5FD"/>
<path d="M272.539 66.7246H270.766V90.6076H272.539V66.7246Z" fill="#9DF1D8"/>
<path d="M276.091 71.2559H267.212V79.8151H276.091V71.2559Z" fill="#91D5FD"/>
<path d="M418.732 78.3193L416.96 78.377L417.734 102.247L419.507 102.19L418.732 78.3193Z" fill="#9DF1D8"/>
<path d="M422.118 84.1064L413.239 84.373L413.496 92.9323L422.375 92.6656L422.118 84.1064Z" fill="#91D5FD"/>
<path d="M117.867 99.0762H116.39V146.599H117.867V99.0762Z" fill="#9DF1D8"/>
<path d="M120.817 109.311H113.436V127.04H120.817V109.311Z" fill="#91D5FD"/>
<path d="M289.636 103.283H287.863V150.806H289.636V103.283Z" fill="#9DF1D8"/>
<path d="M293.193 123.143H284.313V143.62H293.193V123.143Z" fill="#91D5FD"/>
<path d="M314.981 58.3965H313.208V105.919H314.981V58.3965Z" fill="#9DF1D8"/>
<path d="M318.536 66.3379H309.657V98.9444H318.536V66.3379Z" fill="#91D5FD"/>
<path d="M341.552 111.047H339.779V151.187H341.552V111.047Z" fill="#9DF1D8"/>
<path d="M345.108 121.387H336.229V138.808H345.108V121.387Z" fill="#91D5FD"/>
<path d="M365.678 75.8438H363.904V123.366H365.678V75.8438Z" fill="#9DF1D8"/>
<path d="M369.23 83.332H360.351V106.564H369.23V83.332Z" fill="#91D5FD"/>
<path d="M391.026 52H389.253V89.9248H391.026V52Z" fill="#9DF1D8"/>
<path d="M394.577 63.918H385.698V77.5457H394.577V63.918Z" fill="#91D5FD"/>
<path d="M404.463 118.547H402.689V156.472H404.463V118.547Z" fill="#9DF1D8"/>
<path d="M408.015 130.467H399.136V144.094H408.015V130.467Z" fill="#91D5FD"/>
<path d="M60.1221 271.99L170.467 157.052L214.442 182.421L326.823 96.7297L377.313 143.602L457.527 71.8672" stroke="#B6D6FB" stroke-width="11.24" stroke-miterlimit="10"/>
<path d="M69.0584 274.702C70.5356 269.82 67.7793 264.664 62.902 263.185C58.0248 261.707 52.8735 264.466 51.3963 269.348C49.9192 274.23 52.6755 279.386 57.5527 280.865C62.43 282.343 67.5812 279.584 69.0584 274.702Z" fill="#B6D6FB"/>
<path d="M177.011 163.595C180.667 160.041 180.753 154.194 177.202 150.534C173.652 146.875 167.811 146.789 164.155 150.343C160.499 153.896 160.413 159.744 163.963 163.403C167.514 167.063 173.355 167.149 177.011 163.595Z" fill="#B6D6FB"/>
<path d="M220.289 188.031C224.19 184.749 224.694 178.923 221.415 175.018C218.136 171.113 212.316 170.608 208.415 173.891C204.514 177.173 204.01 182.999 207.289 186.904C210.568 190.809 216.388 191.314 220.289 188.031Z" fill="#B6D6FB"/>
<path d="M335.917 98.9247C337.095 93.9616 334.03 88.9828 329.072 87.8041C324.114 86.6254 319.14 89.6932 317.962 94.6562C316.785 99.6193 319.849 104.598 324.808 105.777C329.766 106.956 334.74 103.888 335.917 98.9247Z" fill="#B6D6FB"/>
<path d="M383.88 150.119C387.484 146.512 387.484 140.664 383.88 137.057C380.277 133.45 374.435 133.45 370.831 137.057C367.228 140.664 367.228 146.512 370.831 150.119C374.435 153.726 380.277 153.726 383.88 150.119Z" fill="#B6D6FB"/>
<path d="M473.002 56.2461L453.858 61.3803L434.714 66.5145L454.876 74.3835L462.743 94.5654L467.873 75.409L473.002 56.2461Z" fill="#B6D6FB"/>
<path d="M363.549 226.366C358.956 228.011 354.954 230.983 352.049 234.905C349.144 238.828 347.466 243.524 347.228 248.401C346.989 253.279 348.202 258.117 350.711 262.304C353.22 266.491 356.913 269.84 361.324 271.926C365.734 274.012 370.663 274.742 375.488 274.023C380.313 273.304 384.817 271.17 388.429 267.889C392.042 264.608 394.601 260.328 395.784 255.591C396.966 250.853 396.719 245.872 395.072 241.275C392.865 235.115 388.305 230.084 382.394 227.288C376.483 224.492 369.704 224.16 363.549 226.366ZM378.483 268.064C374.836 269.374 370.883 269.573 367.123 268.634C363.364 267.695 359.967 265.661 357.362 262.79C354.757 259.919 353.061 256.339 352.489 252.503C351.917 248.667 352.494 244.747 354.147 241.239C355.801 237.731 358.456 234.793 361.778 232.796C365.099 230.799 368.938 229.833 372.808 230.02C376.679 230.207 380.407 231.538 383.521 233.846C386.635 236.153 388.996 239.334 390.304 242.984C391.174 245.408 391.558 247.98 391.434 250.552C391.311 253.124 390.682 255.647 389.585 257.976C388.487 260.305 386.941 262.395 385.036 264.125C383.132 265.856 380.905 267.195 378.483 268.064Z" fill="#9DF1D8"/>
<path d="M412.582 261.274C413.221 259.019 413.674 256.715 413.935 254.385L406.454 251.4C406.525 250.007 406.508 248.61 406.402 247.219L413.764 243.755C413.43 241.481 412.912 239.239 412.214 237.049L404.182 237.358C403.658 235.988 403.046 234.653 402.35 233.361L407.676 227.189C406.466 225.266 405.102 223.446 403.597 221.745L396.373 225.302C395.281 224.216 394.121 223.202 392.899 222.265L395.237 214.494C393.372 213.259 391.411 212.175 389.373 211.253L384.224 217.439C382.727 216.865 381.19 216.399 379.626 216.046L378.609 208.006C376.424 207.648 374.215 207.468 372.002 207.467L369.808 215.231C368.183 215.333 366.568 215.553 364.975 215.888L360.791 208.979C359.734 209.268 358.683 209.597 357.632 209.978C356.582 210.359 355.564 210.767 354.565 211.214L355.721 219.214C354.282 219.972 352.899 220.833 351.584 221.791L344.964 217.19C343.256 218.593 341.664 220.132 340.203 221.791L344.517 228.641C343.552 229.91 342.674 231.243 341.89 232.632L334.01 231.126C333.022 233.135 332.196 235.219 331.54 237.358L338.278 241.875C337.926 243.372 337.676 244.892 337.53 246.424L329.682 248.225C329.601 250.493 329.705 252.764 329.99 255.016L338.002 256.396C338.288 257.836 338.663 259.257 339.126 260.65L332.722 265.521C333.584 267.662 334.616 269.731 335.809 271.707L343.69 269.735C344.497 270.883 345.375 271.981 346.317 273.022L342.442 280.082C344.117 281.719 345.928 283.213 347.854 284.546L354.244 279.51C355.381 280.188 356.557 280.8 357.764 281.344L357.107 289.384C359.323 290.219 361.606 290.866 363.93 291.317L367.713 284.132C368.988 284.288 370.271 284.371 371.555 284.381L374.182 292.001C376.561 291.87 378.925 291.538 381.249 291.008L381.781 282.915C382.385 282.731 382.982 282.534 383.587 282.324C384.191 282.113 384.769 281.877 385.353 281.666L390.903 287.583C393.032 286.514 395.067 285.265 396.984 283.849L394.193 276.256C395.174 275.433 396.108 274.555 396.991 273.627L404.471 276.769C405.979 274.941 407.332 272.991 408.516 270.938L402.895 265.153C403.478 263.963 403.998 262.743 404.451 261.498L412.582 261.274ZM380.782 274.475C375.868 276.239 370.542 276.506 365.477 275.24C360.412 273.975 355.835 271.234 352.326 267.365C348.817 263.496 346.533 258.672 345.763 253.503C344.993 248.334 345.772 243.053 348 238.327C350.229 233.602 353.808 229.644 358.284 226.954C362.76 224.264 367.932 222.964 373.147 223.217C378.361 223.47 383.383 225.265 387.579 228.376C391.774 231.486 394.953 235.772 396.715 240.691C399.076 247.286 398.725 254.55 395.737 260.885C392.749 267.221 387.37 272.109 380.782 274.475Z" fill="#9DF1D8"/>
<path d="M426.852 199.683C426.53 199.001 426.162 198.342 425.748 197.711L427.522 194.687C426.891 193.887 426.195 193.141 425.44 192.458L422.307 194.036C421.107 193.127 419.779 192.4 418.367 191.88L418.025 188.382C417.047 188.11 416.047 187.919 415.037 187.811L413.428 190.927C411.927 190.891 410.428 191.08 408.982 191.485L406.657 188.856C406.184 189.033 405.711 189.231 405.245 189.447C404.779 189.664 404.332 189.901 403.892 190.151L404.431 193.622C403.189 194.475 402.082 195.51 401.147 196.692L397.725 195.936C397.163 196.783 396.674 197.676 396.261 198.605L398.73 201.103C398.228 202.52 397.943 204.005 397.883 205.507L394.665 206.908C394.711 207.927 394.838 208.94 395.046 209.938L398.507 210.504C398.725 211.221 398.995 211.922 399.315 212.601C399.63 213.285 399.997 213.944 400.411 214.573L398.638 217.603C399.267 218.403 399.963 219.146 400.72 219.825L403.853 218.248C405.053 219.159 406.381 219.888 407.793 220.411L408.135 223.901C409.115 224.177 410.117 224.37 411.129 224.48L412.732 221.364C414.234 221.397 415.732 221.206 417.178 220.798L419.503 223.428C419.976 223.257 420.449 223.06 420.915 222.843C421.381 222.626 421.828 222.383 422.268 222.133L421.736 218.668C422.977 217.814 424.083 216.779 425.019 215.598L428.441 216.354C429.002 215.504 429.491 214.609 429.906 213.679L427.443 211.187C427.939 209.769 428.222 208.285 428.283 206.783L431.501 205.376C431.459 204.359 431.331 203.348 431.121 202.352L427.659 201.787C427.44 201.067 427.17 200.364 426.852 199.683ZM416.948 214.369C415.324 215.132 413.511 215.397 411.737 215.128C409.964 214.86 408.309 214.071 406.984 212.862C405.658 211.652 404.72 210.076 404.289 208.333C403.858 206.59 403.953 204.759 404.562 203.07C405.171 201.381 406.266 199.91 407.71 198.845C409.154 197.779 410.881 197.166 412.673 197.083C414.465 197 416.241 197.45 417.777 198.378C419.313 199.305 420.54 200.668 421.302 202.293C421.81 203.372 422.101 204.54 422.157 205.732C422.213 206.923 422.033 208.114 421.629 209.235C421.224 210.357 420.603 211.388 419.799 212.269C418.996 213.15 418.027 213.864 416.948 214.369Z" fill="#9DF1D8"/>
<path d="M389.364 184.248C389.416 183.189 389.385 182.127 389.272 181.073L393.488 178.443C393.223 177.029 392.841 175.64 392.346 174.289L387.387 174.203C386.492 172.275 385.314 170.492 383.893 168.911L385.765 164.31C384.72 163.32 383.593 162.421 382.396 161.621L378.337 164.467C376.489 163.434 374.497 162.68 372.427 162.232L371.245 157.42C370.535 157.328 369.82 157.262 369.097 157.229C368.375 157.197 367.652 157.229 366.936 157.229L365.321 161.917C363.213 162.175 361.155 162.745 359.213 163.606L355.424 160.405C354.161 161.095 352.959 161.891 351.832 162.784L353.276 167.531C351.727 168.98 350.399 170.65 349.336 172.487L344.391 172.126C343.773 173.426 343.265 174.777 342.874 176.162L346.814 179.147C346.612 180.19 346.487 181.247 346.44 182.309C346.394 183.37 346.425 184.434 346.532 185.491L342.315 188.12C342.581 189.534 342.963 190.924 343.458 192.275L348.417 192.36C349.313 194.29 350.491 196.075 351.91 197.659L350.039 202.261C351.087 203.249 352.214 204.15 353.408 204.956L357.466 202.109C359.315 203.141 361.307 203.892 363.377 204.338L364.559 209.15C365.268 209.242 365.984 209.308 366.713 209.341C367.442 209.374 368.151 209.341 368.867 209.341L370.483 204.654C372.592 204.399 374.65 203.829 376.591 202.964L380.38 206.166C381.645 205.477 382.849 204.68 383.979 203.786L382.527 199.039C384.077 197.593 385.405 195.925 386.468 194.089L391.42 194.451C392.032 193.146 392.537 191.794 392.93 190.408L388.99 187.423C389.193 186.376 389.318 185.314 389.364 184.248ZM367.311 196.081C364.776 195.967 362.333 195.102 360.289 193.598C358.245 192.093 356.693 190.015 355.829 187.627C354.966 185.24 354.828 182.649 355.435 180.183C356.043 177.718 357.367 175.487 359.24 173.775C361.113 172.062 363.452 170.944 365.96 170.563C368.468 170.181 371.033 170.552 373.331 171.629C375.628 172.707 377.555 174.442 378.867 176.616C380.179 178.789 380.817 181.304 380.702 183.841C380.628 185.526 380.224 187.181 379.511 188.71C378.798 190.239 377.79 191.612 376.547 192.751C375.303 193.89 373.847 194.772 372.262 195.347C370.677 195.921 368.995 196.178 367.311 196.101V196.081Z" fill="#9DF1D8"/>
</g>
<defs>
<filter id="filter0_dd_773_18674" x="0" y="0" width="524" height="348" filterUnits="userSpaceOnUse" color-interpolation-filters="sRGB">
<feFlood flood-opacity="0" result="BackgroundImageFix"/>
<feColorMatrix in="SourceAlpha" type="matrix" values="0 0 0 0 0 0 0 0 0 0 0 0 0 0 0 0 0 0 127 0" result="hardAlpha"/>
<feOffset dy="2"/>
<feGaussianBlur stdDeviation="5"/>
<feColorMatrix type="matrix" values="0 0 0 0 0 0 0 0 0 0 0 0 0 0 0 0 0 0 0.1 0"/>
<feBlend mode="normal" in2="BackgroundImageFix" result="effect1_dropShadow_773_18674"/>
<feColorMatrix in="SourceAlpha" type="matrix" values="0 0 0 0 0 0 0 0 0 0 0 0 0 0 0 0 0 0 127 0" result="hardAlpha"/>
<feOffset/>
<feGaussianBlur stdDeviation="1"/>
<feColorMatrix type="matrix" values="0 0 0 0 0 0 0 0 0 0 0 0 0 0 0 0 0 0 0.2 0"/>
<feBlend mode="normal" in2="effect1_dropShadow_773_18674" result="effect2_dropShadow_773_18674"/>
<feBlend mode="normal" in="SourceGraphic" in2="effect2_dropShadow_773_18674" result="shape"/>
</filter>
<clipPath id="clip0_773_18674">
<rect width="422" height="240" fill="white" transform="translate(51 52)"/>
</clipPath>
</defs>
</svg>
